<svg width="60" height="60" viewBox="0 0 60 60" fill="none" xmlns="http://www.w3.org/2000/svg">
<path d="M55 32.5V22.5C55 10 50 5 37.5 5H22.5C10 5 5 10 5 22.5V37.5C5 50 10 55 22.5 55H32.5" stroke="#F7941E" stroke-width="2.5" stroke-linecap="round" stroke-linejoin="round"/>
<path d="M18.3252 36.2249L24.2752 28.4999C25.1252 27.3999 26.7002 27.1999 27.8002 28.0499L32.3753 31.6499C33.4753 32.4999 35.0502 32.2999 35.9002 31.2249L41.6753 23.7749" stroke="#68686A" stroke-width="2.5" stroke-linecap="round" stroke-linejoin="round"/>
<path d="M48.7001 39.5501L49.4001 40.9751C49.7501 41.6751 50.625 42.3251 51.4 42.4751L52.35 42.6251C55.2 43.1001 55.875 45.2001 53.825 47.2751L52.95 48.1501C52.375 48.7501 52.0501 49.9001 52.2251 50.7001L52.35 51.2251C53.125 54.6751 51.3001 56.0001 48.3001 54.2001L47.65 53.8251C46.875 53.3751 45.625 53.3751 44.85 53.8251L44.2 54.2001C41.175 56.0251 39.35 54.6751 40.15 51.2251L40.275 50.7001C40.45 49.9001 40.1251 48.7501 39.5501 48.1501L38.675 47.2751C36.625 45.2001 37.3 43.1001 40.15 42.6251L41.1 42.4751C41.85 42.3501 42.75 41.6751 43.1 40.9751L43.8 39.5501C45.15 36.8251 47.3501 36.8251 48.7001 39.5501Z" stroke="#F7941E" stroke-width="2.5" stroke-linecap="round" stroke-linejoin="round"/>
</svg>
