<svg width="60" height="60" viewBox="0 0 60 60" fill="none" xmlns="http://www.w3.org/2000/svg">
<path d="M44.9943 17.9C44.8443 17.875 44.6693 17.875 44.5193 17.9C41.0693 17.775 38.3193 14.95 38.3193 11.45C38.3193 7.875 41.1943 5 44.7693 5C48.3443 5 51.2193 7.9 51.2193 11.45C51.1943 14.95 48.4443 17.775 44.9943 17.9Z" stroke="#68686A" stroke-width="2.5" stroke-linecap="round" stroke-linejoin="round"/>
<path d="M42.4188 36.0999C45.8438 36.6749 49.6188 36.0749 52.2688 34.2999C55.7938 31.9499 55.7938 28.0999 52.2688 25.7499C49.5938 23.9749 45.7688 23.3749 42.3438 23.9749" stroke="#68686A" stroke-width="2.5" stroke-linecap="round" stroke-linejoin="round"/>
<path d="M14.9189 17.9C15.0689 17.875 15.2438 17.875 15.3938 17.9C18.8438 17.775 21.5938 14.95 21.5938 11.45C21.5938 7.875 18.7189 5 15.1439 5C11.5689 5 8.69385 7.9 8.69385 11.45C8.71885 14.95 11.4689 17.775 14.9189 17.9Z" stroke="#68686A" stroke-width="2.5" stroke-linecap="round" stroke-linejoin="round"/>
<path d="M17.4937 36.0999C14.0687 36.6749 10.2937 36.0749 7.64375 34.2999C4.11875 31.9499 4.11875 28.0999 7.64375 25.7499C10.3188 23.9749 14.1437 23.3749 17.5687 23.9749" stroke="#68686A" stroke-width="2.5" stroke-linecap="round" stroke-linejoin="round"/>
<path d="M29.9997 36.5751C29.8497 36.5501 29.6747 36.5501 29.5247 36.5751C26.0747 36.4501 23.3247 33.6251 23.3247 30.1251C23.3247 26.5501 26.1997 23.675 29.7747 23.675C33.3497 23.675 36.2247 26.5751 36.2247 30.1251C36.1997 33.6251 33.4497 36.4751 29.9997 36.5751Z" stroke="#F7941E" stroke-width="2.5" stroke-linecap="round" stroke-linejoin="round"/>
<path d="M22.7248 44.4501C19.1998 46.8001 19.1998 50.6501 22.7248 53.0001C26.7248 55.6751 33.2748 55.6751 37.2748 53.0001C40.7998 50.6501 40.7998 46.8001 37.2748 44.4501C33.2998 41.8001 26.7248 41.8001 22.7248 44.4501Z" stroke="#F7941E" stroke-width="2.5" stroke-linecap="round" stroke-linejoin="round"/>
</svg>
