<svg width="60" height="60" viewBox="0 0 60 60" fill="none" xmlns="http://www.w3.org/2000/svg">
<path d="M55 32.5V22.5C55 10 50 5 37.5 5H22.5C10 5 5 10 5 22.5V37.5C5 50 10 55 22.5 55H32.5" stroke="#68686A" stroke-width="1.5" stroke-linecap="round" stroke-linejoin="round"/>
<path d="M55 32.5V22.5C55 10 50 5 37.5 5H22.5C10 5 5 10 5 22.5V37.5C5 50 10 55 22.5 55H32.5" stroke="#68686A" stroke-width="1.5" stroke-linecap="round" stroke-linejoin="round"/>
<path d="M55 32.5V22.5C55 10 50 5 37.5 5H22.5C10 5 5 10 5 22.5V37.5C5 50 10 55 22.5 55H32.5" stroke="#F7941E" stroke-width="2.5" stroke-linecap="round" stroke-linejoin="round"/>
<path d="M40 48.575L43.95 52.5L52.5 42.5" stroke="#68686A" stroke-width="2.5" stroke-linecap="round" stroke-linejoin="round"/>
<path d="M17.5 40V35" stroke="#68686A" stroke-width="2.5" stroke-linecap="round"/>
<path d="M30 40V30" stroke="#68686A" stroke-width="2.5" stroke-linecap="round"/>
<path d="M40 40V27.5" stroke="#68686A" stroke-width="2.5" stroke-linecap="round"/>
<path d="M40 12.5L38.9893 13.5258C33.3862 19.1869 25.8716 23.1953 17.5 25" stroke="#F7941E" stroke-width="2.5" stroke-linecap="round"/>
<path d="M32.5 12.5H40V20" stroke="#F7941E" stroke-width="2.5" stroke-linecap="round" stroke-linejoin="round"/>
</svg>
