<svg width="60" height="60" viewBox="0 0 60 60" fill="none" xmlns="http://www.w3.org/2000/svg">
<path d="M21.6797 35.8246C21.6797 39.0496 24.1547 41.6496 27.2297 41.6496H33.5047C36.1797 41.6496 38.3547 39.3746 38.3547 36.5746C38.3547 33.5246 37.0297 32.4496 35.0547 31.7496L24.9797 28.2496C23.0047 27.5496 21.6797 26.4746 21.6797 23.4246C21.6797 20.6246 23.8547 18.3496 26.5297 18.3496H32.8047C35.8797 18.3496 38.3547 20.9496 38.3547 24.1746" stroke="#68686A" stroke-width="2.5" stroke-linecap="round" stroke-linejoin="round"/>
<path d="M30 15V45" stroke="#68686A" stroke-width="2.5" stroke-linecap="round" stroke-linejoin="round"/>
<path d="M30 55C43.8071 55 55 43.8071 55 30C55 16.1929 43.8071 5 30 5C16.1929 5 5 16.1929 5 30C5 43.8071 16.1929 55 30 55Z" stroke="#F7941E" stroke-width="2.5" stroke-linecap="round" stroke-linejoin="round"/>
</svg>
