<svg width="60" height="60" viewBox="0 0 60 60" fill="none" xmlns="http://www.w3.org/2000/svg">
<path d="M23.75 34.3751C23.75 36.8001 25.625 38.7501 27.925 38.7501H32.625C34.625 38.7501 36.25 37.0501 36.25 34.9251C36.25 32.6501 35.25 31.8251 33.775 31.3001L26.25 28.6751C24.775 28.1501 23.775 27.3501 23.775 25.0501C23.775 22.9501 25.4 21.2251 27.4 21.2251H32.1C34.4 21.2251 36.275 23.1751 36.275 25.6001" stroke="#68686A" stroke-width="2.5" stroke-linecap="round" stroke-linejoin="round"/>
<path d="M30 18.75V41.25" stroke="#68686A" stroke-width="2.5" stroke-linecap="round" stroke-linejoin="round"/>
<path d="M55 30C55 43.8 43.8 55 30 55C16.2 55 5 43.8 5 30C5 16.2 16.2 5 30 5" stroke="#F7941E" stroke-width="2.5" stroke-linecap="round" stroke-linejoin="round"/>
<path d="M55 15V5H45" stroke="#F7941E" stroke-width="2.5" stroke-linecap="round" stroke-linejoin="round"/>
<path d="M42.5 17.5L55 5" stroke="#F7941E" stroke-width="2.5" stroke-linecap="round" stroke-linejoin="round"/>
</svg>
