<svg width="61" height="60" viewBox="0 0 61 60" fill="none" xmlns="http://www.w3.org/2000/svg">
<path d="M23.167 12.5H40.667" stroke="#68686A" stroke-width="2.5" stroke-miterlimit="10" stroke-linecap="round" stroke-linejoin="round"/>
<path d="M31.916 12.5V45C31.916 47.75 34.166 50 36.916 50H40.666" stroke="#68686A" stroke-width="2.5" stroke-miterlimit="10" stroke-linecap="round" stroke-linejoin="round"/>
<path d="M31.916 31.25H40.666" stroke="#68686A" stroke-width="2.5" stroke-miterlimit="10" stroke-linecap="round" stroke-linejoin="round"/>
<path d="M52.668 55H43.668C42.018 55 40.668 53.65 40.668 52V48C40.668 46.35 42.018 45 43.668 45H52.668C54.318 45 55.668 46.35 55.668 48V52C55.668 53.65 54.318 55 52.668 55Z" stroke="#F7941E" stroke-width="2.5" stroke-linecap="round" stroke-linejoin="round"/>
<path d="M18.166 20H10.666C7.91602 20 5.66602 17.75 5.66602 15V10C5.66602 7.25 7.91602 5 10.666 5H18.166C20.916 5 23.166 7.25 23.166 10V15C23.166 17.75 20.916 20 18.166 20Z" stroke="#F7941E" stroke-width="2.5" stroke-linecap="round" stroke-linejoin="round"/>
<path d="M52.668 17.5H43.668C42.018 17.5 40.668 16.15 40.668 14.5V10.5C40.668 8.85003 42.018 7.5 43.668 7.5H52.668C54.318 7.5 55.668 8.85003 55.668 10.5V14.5C55.668 16.15 54.318 17.5 52.668 17.5Z" stroke="#F7941E" stroke-width="2.5" stroke-linecap="round" stroke-linejoin="round"/>
<path d="M52.668 36.25H43.668C42.018 36.25 40.668 34.9 40.668 33.25V29.25C40.668 27.6 42.018 26.25 43.668 26.25H52.668C54.318 26.25 55.668 27.6 55.668 29.25V33.25C55.668 34.9 54.318 36.25 52.668 36.25Z" stroke="#F7941E" stroke-width="2.5" stroke-linecap="round" stroke-linejoin="round"/>
</svg>
