<svg width="60" height="60" viewBox="0 0 60 60" fill="none" xmlns="http://www.w3.org/2000/svg">
<path d="M35.5499 24.45L29.9999 27.225M29.9999 27.225L24.4499 24.45M29.9999 27.225V34.175M35.5499 7.775L29.9999 5L24.4499 7.775M13.3249 46.675L7.7749 43.9V36.95M46.6749 46.675L52.2249 43.9V36.95" stroke="#F7941E" stroke-width="2.5" stroke-linecap="round" stroke-linejoin="round"/>
<path d="M52.2248 17.2749L46.6748 20.0499" stroke="#68686A" stroke-width="2.5" stroke-linecap="round" stroke-linejoin="round"/>
<path d="M52.2248 17.275L46.6748 14.5" stroke="#68686A" stroke-width="2.5" stroke-linecap="round" stroke-linejoin="round"/>
<path d="M52.2253 17.2749V24.2249" stroke="#68686A" stroke-width="2.5" stroke-linecap="round" stroke-linejoin="round"/>
<path d="M7.77466 17.275L13.3247 14.5" stroke="#68686A" stroke-width="2.5" stroke-linecap="round" stroke-linejoin="round"/>
<path d="M7.77466 17.2749L13.3247 20.0499" stroke="#68686A" stroke-width="2.5" stroke-linecap="round" stroke-linejoin="round"/>
<path d="M7.77466 17.2749V24.2249" stroke="#68686A" stroke-width="2.5" stroke-linecap="round" stroke-linejoin="round"/>
<path d="M29.9995 56.1749L24.4495 53.3999" stroke="#68686A" stroke-width="2.5" stroke-linecap="round" stroke-linejoin="round"/>
<path d="M30 56.1749L35.55 53.3999" stroke="#68686A" stroke-width="2.5" stroke-linecap="round" stroke-linejoin="round"/>
<path d="M30 56.1746V49.2246" stroke="#68686A" stroke-width="2.5" stroke-linecap="round" stroke-linejoin="round"/>
</svg>
