<svg width="60" height="60" viewBox="0 0 60 60" fill="none" xmlns="http://www.w3.org/2000/svg">
<path d="M52.2751 27.7998C52.2751 40.0248 43.4001 51.4747 31.2751 54.8247C30.4501 55.0497 29.5501 55.0497 28.7251 54.8247C16.6001 51.4747 7.7251 40.0248 7.7251 27.7998V16.8247C7.7251 14.7747 9.27513 12.4497 11.2001 11.6747L25.1251 5.9748C28.2501 4.6998 31.7751 4.6998 34.9001 5.9748L48.8251 11.6747C50.7251 12.4497 52.3001 14.7747 52.3001 16.8247L52.2751 27.7998Z" stroke="#F7941E" stroke-width="2.5" stroke-linecap="round" stroke-linejoin="round"/>
<path d="M30 31.25C32.7614 31.25 35 29.0114 35 26.25C35 23.4886 32.7614 21.25 30 21.25C27.2386 21.25 25 23.4886 25 26.25C25 29.0114 27.2386 31.25 30 31.25Z" stroke="#68686A" stroke-width="2.5" stroke-miterlimit="10" stroke-linecap="round" stroke-linejoin="round"/>
<path d="M30 31.25V38.75" stroke="#68686A" stroke-width="2.5" stroke-miterlimit="10" stroke-linecap="round" stroke-linejoin="round"/>
</svg>
