<svg width="60" height="60" viewBox="0 0 60 60" fill="none" xmlns="http://www.w3.org/2000/svg">
<path d="M7.92529 18.6001L30.0003 31.3751L51.9252 18.675" stroke="#F7941E" stroke-width="2.5" stroke-linecap="round" stroke-linejoin="round"/>
<path d="M30.0005 54.0251V31.3501" stroke="#F7941E" stroke-width="2.5" stroke-linecap="round" stroke-linejoin="round"/>
<path d="M54.025 32.0751V22.925C54.025 19.475 51.5501 15.2751 48.5251 13.6001L35.1751 6.2C32.3251 4.6 27.675 4.6 24.825 6.2L11.4751 13.6001C8.45005 15.2751 5.9751 19.475 5.9751 22.925V37.0751C5.9751 40.5251 8.45005 44.725 11.4751 46.4L24.825 53.8001C26.25 54.6001 28.1251 55 30.0001 55C31.8751 55 33.7501 54.6001 35.1751 53.8001" stroke="#F7941E" stroke-width="2.5" stroke-linecap="round" stroke-linejoin="round"/>
<path d="M48 53.5001C52.4183 53.5001 56 49.9183 56 45.5C56 41.0818 52.4183 37.5 48 37.5C43.5818 37.5 40 41.0818 40 45.5C40 49.9183 43.5818 53.5001 48 53.5001Z" stroke="#68686A" stroke-width="2.5" stroke-linecap="round" stroke-linejoin="round"/>
<path d="M57.5 55L55 52.5" stroke="#68686A" stroke-width="2.5" stroke-linecap="round" stroke-linejoin="round"/>
</svg>
