<svg width="61" height="60" viewBox="0 0 61 60" fill="none" xmlns="http://www.w3.org/2000/svg">
<path d="M55.333 15V21.05C55.333 25 52.833 27.5 48.883 27.5H40.333V10.025C40.333 7.25 42.608 5 45.383 5C48.108 5.025 50.608 6.125 52.408 7.925C54.208 9.75 55.333 12.25 55.333 15Z" stroke="#F7941E" stroke-width="2.5" stroke-miterlimit="10" stroke-linecap="round" stroke-linejoin="round"/>
<path d="M5.33301 17.5V52.5C5.33301 54.575 7.68301 55.75 9.33301 54.5L13.608 51.3C14.608 50.55 16.008 50.65 16.908 51.55L21.058 55.725C22.033 56.7 23.633 56.7 24.608 55.725L28.808 51.525C29.683 50.65 31.083 50.55 32.058 51.3L36.333 54.5C37.983 55.725 40.333 54.55 40.333 52.5V10C40.333 7.25 42.583 5 45.333 5H17.833H15.333C7.83301 5 5.33301 9.475 5.33301 15V17.5Z" stroke="#F7941E" stroke-width="2.5" stroke-miterlimit="10" stroke-linecap="round" stroke-linejoin="round"/>
<path d="M22.833 32.5249H30.333" stroke="#68686A" stroke-width="2.5" stroke-linecap="round" stroke-linejoin="round"/>
<path d="M22.833 22.5249H30.333" stroke="#68686A" stroke-width="2.5" stroke-linecap="round" stroke-linejoin="round"/>
<path d="M15.3223 32.5H15.3447" stroke="#68686A" stroke-width="2.5" stroke-linecap="round" stroke-linejoin="round"/>
<path d="M15.3222 22.5H15.3447" stroke="#68686A" stroke-width="2.5" stroke-linecap="round" stroke-linejoin="round"/>
</svg>
