<svg width="61" height="60" viewBox="0 0 61 60" fill="none" xmlns="http://www.w3.org/2000/svg">
<path d="M25.333 42.3752H15.858C7.43301 42.3752 5.33301 40.2752 5.33301 31.8502V16.8502C5.33301 8.4252 7.43301 6.3252 15.858 6.3252H42.183C50.608 6.3252 52.708 8.4252 52.708 16.8502" stroke="#F7941E" stroke-width="2.5" stroke-linecap="round" stroke-linejoin="round"/>
<path d="M25.333 53.675V42.375" stroke="#F7941E" stroke-width="2.5" stroke-linecap="round" stroke-linejoin="round"/>
<path d="M5.33301 32.375H25.333" stroke="#68686A" stroke-width="2.5" stroke-linecap="round" stroke-linejoin="round"/>
<path d="M17.1826 53.6748H25.3326" stroke="#F7941E" stroke-width="2.5" stroke-linecap="round" stroke-linejoin="round"/>
<path d="M55.3332 32.0001V46.2751C55.3332 52.2001 53.8582 53.6751 47.9332 53.6751H39.0582C33.1332 53.6751 31.6582 52.2001 31.6582 46.2751V32.0001C31.6582 26.0751 33.1332 24.6001 39.0582 24.6001H47.9332C53.8582 24.6001 55.3332 26.0751 55.3332 32.0001Z" stroke="#F7941E" stroke-width="2.5" stroke-linecap="round" stroke-linejoin="round"/>
<path d="M43.4443 45.625H43.4667" stroke="#68686A" stroke-width="2.5" stroke-linecap="round" stroke-linejoin="round"/>
</svg>
