<svg width="61" height="60" viewBox="0 0 61 60" fill="none" xmlns="http://www.w3.org/2000/svg">
<path d="M22.8333 32.5C21.1833 33.325 19.8083 34.55 18.7833 36.075C18.2083 36.95 18.2083 38.05 18.7833 38.925C19.8083 40.45 21.1833 41.675 22.8333 42.5" stroke="#68686A" stroke-width="2.5" stroke-linecap="round" stroke-linejoin="round"/>
<path d="M38.3584 32.5C40.0084 33.325 41.3834 34.55 42.4084 36.075C42.9834 36.95 42.9834 38.05 42.4084 38.925C41.3834 40.45 40.0084 41.675 38.3584 42.5" stroke="#68686A" stroke-width="2.5" stroke-linecap="round" stroke-linejoin="round"/>
<path d="M22.8335 55H37.8335C50.3335 55 55.3335 50 55.3335 37.5V22.5C55.3335 10 50.3335 5 37.8335 5H22.8335C10.3335 5 5.3335 10 5.3335 22.5V37.5C5.3335 50 10.3335 55 22.8335 55Z" stroke="#F7941E" stroke-width="2.5" stroke-linecap="round" stroke-linejoin="round"/>
<path d="M5.90869 20.025L53.9587 20" stroke="#68686A" stroke-width="2.5" stroke-linecap="round" stroke-linejoin="round"/>
</svg>
