<svg width="61" height="60" viewBox="0 0 61 60" fill="none" xmlns="http://www.w3.org/2000/svg">
<path d="M50.3335 20.625V45C50.3335 52.5 45.8585 55 40.3335 55H20.3335C14.8085 55 10.3335 52.5 10.3335 45V20.625C10.3335 12.5 14.8085 10.625 20.3335 10.625C20.3335 12.175 20.9584 13.575 21.9834 14.6C23.0084 15.625 24.4085 16.25 25.9585 16.25H34.7085C37.8085 16.25 40.3335 13.725 40.3335 10.625C45.8585 10.625 50.3335 12.5 50.3335 20.625Z" stroke="#F7941E" stroke-width="2.5" stroke-linecap="round" stroke-linejoin="round"/>
<path d="M40.3335 10.625C40.3335 13.725 37.8085 16.25 34.7085 16.25H25.9585C24.4085 16.25 23.0084 15.625 21.9834 14.6C20.9584 13.575 20.3335 12.175 20.3335 10.625C20.3335 7.525 22.8585 5 25.9585 5H34.7085C36.2585 5 37.6586 5.62501 38.6836 6.65001C39.7086 7.67501 40.3335 9.075 40.3335 10.625Z" stroke="#68686A" stroke-width="2.5" stroke-linecap="round" stroke-linejoin="round"/>
<path d="M20.3335 32.5H30.3335" stroke="#68686A" stroke-width="1.5" stroke-linecap="round" stroke-linejoin="round"/>
<path d="M20.3335 42.5H40.3335" stroke="#68686A" stroke-width="1.5" stroke-linecap="round" stroke-linejoin="round"/>
<path d="M52.3335 47C52.3335 48.875 51.8085 50.65 50.8835 52.15C49.1585 55.05 45.9835 57 42.3335 57C38.6835 57 35.5085 55.05 33.7835 52.15C32.8585 50.65 32.3335 48.875 32.3335 47C32.3335 41.475 36.8085 37 42.3335 37C47.8585 37 52.3335 41.475 52.3335 47Z" fill="#F4F4F4" stroke="#68686A" stroke-width="2" stroke-miterlimit="10" stroke-linecap="round" stroke-linejoin="round"/>
<path d="M42.0325 49.9122C43.7998 49.9122 45.2325 48.4795 45.2325 46.7122C45.2325 44.9449 43.7998 43.5122 42.0325 43.5122C40.2652 43.5122 38.8325 44.9449 38.8325 46.7122C38.8325 48.4795 40.2652 49.9122 42.0325 49.9122Z" stroke="#F7941E" stroke-width="1.5" stroke-linecap="round" stroke-linejoin="round"/>
<path d="M45.8325 50.5122L44.8325 49.5122" stroke="#F7941E" stroke-width="1.5" stroke-linecap="round" stroke-linejoin="round"/>
</svg>
