<svg width="61" height="60" viewBox="0 0 61 60" fill="none" xmlns="http://www.w3.org/2000/svg">
<path d="M31.2915 32.375V34.7C31.2915 35.575 30.8415 36.4 30.0665 36.85L28.1665 38" stroke="#68686A" stroke-width="2.5" stroke-miterlimit="10" stroke-linecap="round" stroke-linejoin="round"/>
<path d="M20.6666 55H40.6666C50.7166 55 52.5166 50.975 53.0416 46.075L54.9166 26.075C55.5916 19.975 53.8416 15 43.1666 15H18.1666C7.49156 15 5.74156 19.975 6.41656 26.075L8.29156 46.075C8.81656 50.975 10.6166 55 20.6666 55Z" stroke="#F7941E" stroke-width="2.5" stroke-miterlimit="10" stroke-linecap="round" stroke-linejoin="round"/>
<path d="M20.6665 15V13C20.6665 8.575 20.6665 5 28.6665 5H32.6665C40.6665 5 40.6665 8.575 40.6665 13V15" stroke="#68686A" stroke-width="2.5" stroke-miterlimit="10" stroke-linecap="round" stroke-linejoin="round"/>
<path d="M30.6665 45.5005C36.1894 45.5005 40.6665 41.0233 40.6665 35.5005C40.6665 29.9776 36.1894 25.5005 30.6665 25.5005C25.1437 25.5005 20.6665 29.9776 20.6665 35.5005C20.6665 41.0233 25.1437 45.5005 30.6665 45.5005Z" stroke="#68686A" stroke-width="2.5" stroke-miterlimit="10" stroke-linecap="round" stroke-linejoin="round"/>
<path d="M54.7909 27.5C50.4659 30.65 45.6659 32.85 40.6909 34.1" stroke="#F7941E" stroke-width="2.5" stroke-miterlimit="10" stroke-linecap="round" stroke-linejoin="round"/>
<path d="M7.21436 28.1738C11.3894 31.0238 15.9394 33.0488 20.6644 34.1988" stroke="#F7941E" stroke-width="2.5" stroke-miterlimit="10" stroke-linecap="round" stroke-linejoin="round"/>
</svg>
