<svg width="60" height="60" viewBox="0 0 60 60" fill="none" xmlns="http://www.w3.org/2000/svg">
<path d="M30.3504 19.0498H17.1754C12.5254 19.0498 11.4754 21.3748 10.9004 24.2498L8.77539 34.3748H38.7754L36.6504 24.2498C36.0254 21.3748 35.0004 19.0498 30.3504 19.0498Z" stroke="#F7941E" stroke-width="2.5" stroke-linecap="round" stroke-linejoin="round"/>
<path d="M42.4753 50.8996C42.6753 53.0996 40.9253 54.9996 38.6753 54.9996H35.1503C33.1253 54.9996 32.8503 54.1246 32.4753 53.0746L32.1003 51.9497C31.5753 50.4247 31.2253 49.3746 28.5253 49.3746H18.9253C16.2253 49.3746 15.8253 50.5497 15.3503 51.9497L14.9753 53.0746C14.6253 54.1496 14.3503 54.9996 12.3003 54.9996H8.77529C6.52529 54.9996 4.75032 53.0996 4.97532 50.8996L6.02532 39.4746C6.30032 36.6496 6.8253 34.3496 11.7503 34.3496H35.6753C40.6003 34.3496 41.1253 36.6496 41.4003 39.4746L42.4753 50.8996Z" stroke="#F7941E" stroke-width="2.5" stroke-linecap="round" stroke-linejoin="round"/>
<path d="M8.75 28.75H6.875" stroke="#F7941E" stroke-width="2.5" stroke-linecap="round" stroke-linejoin="round"/>
<path d="M40.625 28.75H38.75" stroke="#F7941E" stroke-width="2.5" stroke-linecap="round" stroke-linejoin="round"/>
<path d="M12.5 41.875H18.125" stroke="#68686A" stroke-width="2.5" stroke-linecap="round" stroke-linejoin="round"/>
<path d="M29.375 41.875H35" stroke="#68686A" stroke-width="2.5" stroke-linecap="round" stroke-linejoin="round"/>
<path d="M46.7748 21.8499C47.4748 20.2249 47.2248 18.0249 45.9248 16.0999C44.6498 14.1749 42.6998 13.0999 40.9248 13.1249" stroke="#68686A" stroke-width="2.5" stroke-linecap="round" stroke-linejoin="round"/>
<path d="M54.5496 24.325C55.5996 20.55 54.8496 15.925 52.1746 11.925C49.4996 7.92505 45.4996 5.475 41.5996 5" stroke="#68686A" stroke-width="2.5" stroke-linecap="round" stroke-linejoin="round"/>
</svg>
