<svg width="61" height="60" viewBox="0 0 61 60" fill="none" xmlns="http://www.w3.org/2000/svg">
<path d="M55.666 22.5003V37.5003C55.666 43.7503 54.416 48.1253 51.616 50.9503L35.666 35.0003L54.991 15.6753C55.441 17.6503 55.666 19.9003 55.666 22.5003Z" stroke="#F7941E" stroke-width="2.5" stroke-linecap="round" stroke-linejoin="round"/>
<path d="M54.991 15.675L16.341 54.325C8.81599 52.6 5.66602 47.4 5.66602 37.5V22.5C5.66602 10 10.666 5 23.166 5H38.166C48.066 5 53.266 8.15001 54.991 15.675Z" stroke="#F7941E" stroke-width="2.5" stroke-linecap="round" stroke-linejoin="round"/>
<path d="M51.6159 50.95C48.7909 53.75 44.4158 55 38.1658 55H23.1658C20.5658 55 18.3158 54.775 16.3408 54.325L35.6658 35L51.6159 50.95Z" stroke="#F7941E" stroke-width="2.5" stroke-linecap="round" stroke-linejoin="round"/>
<path d="M16.2672 19.9503C17.9672 12.6253 28.9672 12.6253 30.6672 19.9503C31.6422 24.2503 28.9421 27.9003 26.5671 30.1503C24.8421 31.8003 22.1172 31.8003 20.3672 30.1503C17.9922 27.9003 15.2672 24.2503 16.2672 19.9503Z" stroke="#1B1B1B" stroke-width="2.5"/>
<path d="M23.4023 21.7505H23.4247" stroke="#1B1B1B" stroke-width="2.5" stroke-linecap="round" stroke-linejoin="round"/>
</svg>
