<svg width="60" height="60" viewBox="0 0 60 60" fill="none" xmlns="http://www.w3.org/2000/svg">
<path d="M5 25H55" stroke="#68686A" stroke-width="2.5" stroke-miterlimit="10" stroke-linecap="round" stroke-linejoin="round"/>
<path d="M28.8751 51.2499H16.1001C7.22513 51.2499 4.9751 49.0499 4.9751 40.2749V19.7249C4.9751 11.7749 6.82517 9.22491 13.8002 8.82491C14.5002 8.79991 15.2751 8.7749 16.1001 8.7749H43.8751C52.7501 8.7749 55.0001 10.9749 55.0001 19.7499V30.7749" stroke="#F7941E" stroke-width="2.5" stroke-linecap="round" stroke-linejoin="round"/>
<path d="M15 40H25" stroke="#F7941E" stroke-width="2.5" stroke-miterlimit="10" stroke-linecap="round" stroke-linejoin="round"/>
<path d="M55 45C55 46.875 54.475 48.65 53.55 50.15C51.825 53.05 48.65 55 45 55C41.35 55 38.175 53.05 36.45 50.15C35.525 48.65 35 46.875 35 45C35 39.475 39.475 35 45 35C50.525 35 55 39.475 55 45Z" stroke="#68686A" stroke-width="2.5" stroke-miterlimit="10" stroke-linecap="round" stroke-linejoin="round"/>
<path d="M41.0996 44.9998L43.5746 47.4748L48.8996 42.5498" stroke="#68686A" stroke-width="2.5" stroke-linecap="round" stroke-linejoin="round"/>
</svg>
