<svg width="60" height="60" viewBox="0 0 60 60" fill="none" xmlns="http://www.w3.org/2000/svg">
<path d="M38.4754 13.025L42.0003 20.075C42.4753 21.05 43.7503 21.975 44.8253 22.175L51.2004 23.225C55.2754 23.9 56.2254 26.85 53.3004 29.8L48.3253 34.775C47.5003 35.6 47.0254 37.225 47.3004 38.4L48.7253 44.55C49.8503 49.4 47.2504 51.3 42.9754 48.75L37.0003 45.2C35.9253 44.55 34.1254 44.55 33.0504 45.2L27.0753 48.75C22.8003 51.275 20.2004 49.4 21.3254 44.55L22.7504 38.4C23.0254 37.25 22.5504 35.625 21.7254 34.775L16.7504 29.8C13.8254 26.875 14.7754 23.925 18.8504 23.225L25.2254 22.175C26.3004 22 27.5754 21.05 28.0504 20.075L31.5754 13.025C33.4504 9.2 36.5504 9.2 38.4754 13.025Z" stroke="#F7941E" stroke-width="2.5" stroke-linecap="round" stroke-linejoin="round"/>
<path d="M20 12.5H5" stroke="#68686A" stroke-width="2.5" stroke-linecap="round" stroke-linejoin="round"/>
<path d="M12.5 47.5H5" stroke="#68686A" stroke-width="2.5" stroke-linecap="round" stroke-linejoin="round"/>
<path d="M7.5 30H5" stroke="#68686A" stroke-width="2.5" stroke-linecap="round" stroke-linejoin="round"/>
</svg>
