<svg width="61" height="60" viewBox="0 0 61 60" fill="none" xmlns="http://www.w3.org/2000/svg">
<path d="M45.8527 17.9C45.7027 17.875 45.5277 17.875 45.3777 17.9C41.9277 17.775 39.1777 14.95 39.1777 11.45C39.1777 7.875 42.0527 5 45.6277 5C49.2027 5 52.0777 7.9 52.0777 11.45C52.0527 14.95 49.3027 17.775 45.8527 17.9Z" stroke="#F7941E" stroke-width="2.5" stroke-linecap="round" stroke-linejoin="round"/>
<path d="M43.2762 36.1004C46.7012 36.6754 50.4762 36.0754 53.1262 34.3004C56.6512 31.9504 56.6512 28.1004 53.1262 25.7504C50.4512 23.9754 46.6262 23.3754 43.2012 23.9754" stroke="#F7941E" stroke-width="2.5" stroke-linecap="round" stroke-linejoin="round"/>
<path d="M15.7758 17.9C15.9258 17.875 16.1008 17.875 16.2508 17.9C19.7008 17.775 22.4508 14.95 22.4508 11.45C22.4508 7.875 19.5758 5 16.0008 5C12.4258 5 9.55078 7.9 9.55078 11.45C9.57578 14.95 12.3258 17.775 15.7758 17.9Z" stroke="#F7941E" stroke-width="2.5" stroke-linecap="round" stroke-linejoin="round"/>
<path d="M18.3512 36.1004C14.9262 36.6754 11.1512 36.0754 8.50117 34.3004C4.97617 31.9504 4.97617 28.1004 8.50117 25.7504C11.1762 23.9754 15.0012 23.3754 18.4262 23.9754" stroke="#F7941E" stroke-width="2.5" stroke-linecap="round" stroke-linejoin="round"/>
<path d="M30.8576 36.5758C30.7076 36.5508 30.5326 36.5508 30.3826 36.5758C26.9326 36.4508 24.1826 33.6258 24.1826 30.1258C24.1826 26.5508 27.0576 23.6758 30.6326 23.6758C34.2076 23.6758 37.0826 26.5758 37.0826 30.1258C37.0576 33.6258 34.3076 36.4758 30.8576 36.5758Z" stroke="#68686A" stroke-width="2.5" stroke-linecap="round" stroke-linejoin="round"/>
<path d="M23.5812 44.4509C20.0563 46.8009 20.0563 50.6509 23.5812 53.0009C27.5812 55.6759 34.1312 55.6759 38.1312 53.0009C41.6562 50.6509 41.6562 46.8009 38.1312 44.4509C34.1562 41.8009 27.5812 41.8009 23.5812 44.4509Z" stroke="#68686A" stroke-width="2.5" stroke-linecap="round" stroke-linejoin="round"/>
</svg>
