<svg width="61" height="60" viewBox="0 0 61 60" fill="none" xmlns="http://www.w3.org/2000/svg">
<path d="M21.6641 30.0002L27.6891 36.0502L39.7641 23.9502" stroke="#68686A" stroke-width="2.5" stroke-linecap="round" stroke-linejoin="round"/>
<path d="M27.5891 6.1248C29.3141 4.6498 32.1391 4.6498 33.8891 6.1248L37.8391 9.5248C38.5891 10.1748 39.9891 10.6998 40.9891 10.6998H45.2391C47.8891 10.6998 50.0641 12.8748 50.0641 15.5248V19.7748C50.0641 20.7498 50.5891 22.1748 51.2391 22.9248L54.6391 26.8748C56.1141 28.5998 56.1141 31.4248 54.6391 33.1748L51.2391 37.1248C50.5891 37.8748 50.0641 39.2748 50.0641 40.2748V44.5248C50.0641 47.1748 47.8891 49.3498 45.2391 49.3498H40.9891C40.0141 49.3498 38.5891 49.8748 37.8391 50.5248L33.8891 53.9248C32.1641 55.3998 29.3391 55.3998 27.5891 53.9248L23.6391 50.5248C22.8891 49.8748 21.4891 49.3498 20.4891 49.3498H16.1641C13.5141 49.3498 11.3391 47.1748 11.3391 44.5248V40.2498C11.3391 39.2748 10.8141 37.8748 10.1891 37.1248L6.81406 33.1498C5.36406 31.4248 5.36406 28.6248 6.81406 26.8998L10.1891 22.9248C10.8141 22.1748 11.3391 20.7748 11.3391 19.7998V15.4998C11.3391 12.8498 13.5141 10.6748 16.1641 10.6748H20.4891C21.4641 10.6748 22.8891 10.1498 23.6391 9.4998L27.5891 6.1248Z" stroke="#F7941E" stroke-width="2.5" stroke-linecap="round" stroke-linejoin="round"/>
</svg>
