<svg width="60" height="60" viewBox="0 0 60 60" fill="none" xmlns="http://www.w3.org/2000/svg">
<path d="M42.4004 15.4248C47.4004 18.8998 50.8504 24.4248 51.5504 30.7998" stroke="#68686A" stroke-width="2.5" stroke-linecap="round" stroke-linejoin="round"/>
<path d="M8.7251 30.9248C9.3751 24.5748 12.7751 19.0498 17.7251 15.5498" stroke="#68686A" stroke-width="2.5" stroke-linecap="round" stroke-linejoin="round"/>
<path d="M20.4751 52.3501C23.3751 53.8251 26.6751 54.6501 30.1501 54.6501C33.5001 54.6501 36.6501 53.9001 39.4751 52.5251" stroke="#68686A" stroke-width="2.5" stroke-linecap="round" stroke-linejoin="round"/>
<path d="M30.1502 19.2501C33.9886 19.2501 37.1002 16.1385 37.1002 12.3001C37.1002 8.46172 33.9886 5.3501 30.1502 5.3501C26.3118 5.3501 23.2002 8.46172 23.2002 12.3001C23.2002 16.1385 26.3118 19.2501 30.1502 19.2501Z" stroke="#F7941E" stroke-width="2.5" stroke-linecap="round" stroke-linejoin="round"/>
<path d="M12.075 49.7999C15.9134 49.7999 19.025 46.6883 19.025 42.8499C19.025 39.0115 15.9134 35.8999 12.075 35.8999C8.23662 35.8999 5.125 39.0115 5.125 42.8499C5.125 46.6883 8.23662 49.7999 12.075 49.7999Z" stroke="#F7941E" stroke-width="2.5" stroke-linecap="round" stroke-linejoin="round"/>
<path d="M47.9246 49.7999C51.763 49.7999 54.8746 46.6883 54.8746 42.8499C54.8746 39.0115 51.763 35.8999 47.9246 35.8999C44.0862 35.8999 40.9746 39.0115 40.9746 42.8499C40.9746 46.6883 44.0862 49.7999 47.9246 49.7999Z" stroke="#F7941E" stroke-width="2.5" stroke-linecap="round" stroke-linejoin="round"/>
</svg>
