<svg width="61" height="60" viewBox="0 0 61 60" fill="none" xmlns="http://www.w3.org/2000/svg">
<path d="M55.2861 15V21.05C55.2861 25 52.7861 27.5 48.8361 27.5H40.2861V10.025C40.2861 7.25 42.5611 5 45.3361 5C48.0611 5.025 50.5611 6.125 52.3611 7.925C54.1611 9.75 55.2861 12.25 55.2861 15Z" stroke="#F7941E" stroke-width="2.5" stroke-miterlimit="10" stroke-linecap="round" stroke-linejoin="round"/>
<path d="M5.28613 17.5V52.5C5.28613 54.575 7.63613 55.75 9.28613 54.5L13.5611 51.3C14.5611 50.55 15.9611 50.65 16.8611 51.55L21.0111 55.725C21.9861 56.7 23.5861 56.7 24.5611 55.725L28.7611 51.525C29.6361 50.65 31.0361 50.55 32.0111 51.3L36.2861 54.5C37.9361 55.725 40.2861 54.55 40.2861 52.5V10C40.2861 7.25 42.5361 5 45.2861 5H17.7861H15.2861C7.78613 5 5.28613 9.475 5.28613 15V17.5Z" stroke="#F7941E" stroke-width="2.5" stroke-miterlimit="10" stroke-linecap="round" stroke-linejoin="round"/>
<path d="M22.7861 32.5249H30.2861" stroke="#68686A" stroke-width="2.5" stroke-linecap="round" stroke-linejoin="round"/>
<path d="M22.7861 22.5249H30.2861" stroke="#68686A" stroke-width="2.5" stroke-linecap="round" stroke-linejoin="round"/>
<path d="M15.2754 32.5H15.2978" stroke="#68686A" stroke-width="2.5" stroke-linecap="round" stroke-linejoin="round"/>
<path d="M15.2753 22.5H15.2978" stroke="#68686A" stroke-width="2.5" stroke-linecap="round" stroke-linejoin="round"/>
</svg>
