<svg width="61" height="60" viewBox="0 0 61 60" fill="none" xmlns="http://www.w3.org/2000/svg">
<path d="M25.4287 42.3752H15.9537C7.52871 42.3752 5.42871 40.2752 5.42871 31.8502V16.8502C5.42871 8.4252 7.52871 6.3252 15.9537 6.3252H42.2787C50.7037 6.3252 52.8037 8.4252 52.8037 16.8502" stroke="#F7941E" stroke-width="2.5" stroke-linecap="round" stroke-linejoin="round"/>
<path d="M25.4287 53.675V42.375" stroke="#F7941E" stroke-width="2.5" stroke-linecap="round" stroke-linejoin="round"/>
<path d="M5.42871 32.375H25.4287" stroke="#68686A" stroke-width="2.5" stroke-linecap="round" stroke-linejoin="round"/>
<path d="M17.2783 53.6748H25.4283" stroke="#F7941E" stroke-width="2.5" stroke-linecap="round" stroke-linejoin="round"/>
<path d="M55.4289 32.0001V46.2751C55.4289 52.2001 53.9539 53.6751 48.0289 53.6751H39.1539C33.2289 53.6751 31.7539 52.2001 31.7539 46.2751V32.0001C31.7539 26.0751 33.2289 24.6001 39.1539 24.6001H48.0289C53.9539 24.6001 55.4289 26.0751 55.4289 32.0001Z" stroke="#F7941E" stroke-width="2.5" stroke-linecap="round" stroke-linejoin="round"/>
<path d="M43.54 45.625H43.5624" stroke="#68686A" stroke-width="2.5" stroke-linecap="round" stroke-linejoin="round"/>
</svg>
