<svg width="24" height="24" viewBox="0 0 24 24" fill="none" xmlns="http://www.w3.org/2000/svg">
<g clip-path="url(#clip0_1492_2339)">
<path d="M24 12.0742C24 18.0632 19.606 23.0282 13.87 23.9292V15.5662H16.659L17.19 12.1062H13.87V9.86122C13.87 8.91422 14.334 7.99222 15.82 7.99222H17.329V5.04622C17.329 5.04622 15.959 4.81222 14.65 4.81222C11.916 4.81222 10.13 6.46922 10.13 9.46822V12.1052H7.091V15.5652H10.13V23.9282C4.395 23.0262 0 18.0622 0 12.0742C0 5.44722 5.373 0.0742188 12 0.0742188C18.627 0.0742188 24 5.44622 24 12.0742Z" fill="#F6F6F6"/>
</g>
<defs>
<clipPath id="clip0_1492_2339">
<rect width="24" height="24" fill="white"/>
</clipPath>
</defs>
</svg>
