<?xml version="1.0" encoding="UTF-8"?>
<svg id="Layer_1" data-name="Layer 1" xmlns="http://www.w3.org/2000/svg" width="195.34" height="45.86" viewBox="0 0 195.34 45.86">
  <path d="m195.34,36.17c0,5.35-3.97,9.69-8.87,9.69H8.87c-4.9,0-8.87-4.34-8.87-9.69V9.69C0,4.34,3.97,0,8.87,0h177.61c4.9,0,8.87,4.34,8.87,9.69v26.48Z" fill="#58595b" stroke-width="0"/>
  <g>
    <path d="m22.97,34.91v-18c0-.24.11-.44.33-.59.22-.15.49-.22.81-.22s.58.08.79.23c.21.15.31.35.31.6v1.16c.34-.6.84-1.11,1.5-1.53.66-.42,1.42-.62,2.29-.62,1.42,0,2.62.53,3.61,1.58.99,1.05,1.49,2.32,1.49,3.79v2.85c0,1.42-.5,2.67-1.5,3.77-1,1.1-2.16,1.65-3.48,1.65-.83,0-1.59-.21-2.28-.64-.69-.42-1.19-.95-1.51-1.57v7.54c0,.2-.12.4-.35.57-.24.18-.51.27-.84.27s-.59-.08-.82-.25c-.23-.17-.34-.36-.34-.59Zm2.35-10.02c0,.46.33,1,.98,1.63.65.62,1.39.93,2.22.93s1.6-.34,2.25-1.01c.65-.68.98-1.44.98-2.29v-2.83c0-.83-.33-1.58-.98-2.25-.65-.67-1.42-1-2.31-1-.83,0-1.56.3-2.19.9-.63.6-.95,1.38-.95,2.35v3.58Z" fill="#f6921e" stroke-width="0"/>
    <path d="m37.99,12.06c-.29-.27-.44-.58-.44-.94s.14-.66.43-.92c.28-.26.63-.39,1.05-.39s.74.13,1.02.39c.28.26.42.57.42.92s-.14.67-.42.94c-.28.27-.62.41-1.02.41s-.74-.14-1.03-.41Zm-.13,16.45v-11.6c0-.24.11-.44.34-.59.23-.15.5-.22.82-.22.34,0,.62.07.85.22.23.15.34.35.34.59v11.6c0,.2-.12.4-.35.57-.24.18-.51.27-.84.27s-.59-.08-.82-.25c-.23-.17-.34-.36-.34-.59Z" fill="#f6921e" stroke-width="0"/>
    <path d="m51.22,25.35v-15.01c0-.17.07-.31.21-.42.14-.11.3-.17.47-.17.19,0,.35.06.5.17.14.11.21.25.21.42v5.81h3.77c.15,0,.28.06.38.18.1.12.16.27.16.43,0,.15-.06.28-.17.41-.11.12-.24.18-.37.18h-3.77v7.99c0,.99.22,1.69.65,2.1.43.41,1.19.62,2.27.62h.71c.19,0,.34.06.47.18.12.12.18.27.18.46,0,.17-.06.32-.18.45-.12.13-.28.2-.47.2h-.71c-2.87,0-4.3-1.33-4.3-4Z" fill="#fff" stroke-width="0"/>
    <path d="m59.46,24.35v-3.33c0-1.38.51-2.56,1.53-3.55,1.02-.99,2.25-1.48,3.68-1.48s2.59.48,3.6,1.45c1.01.97,1.52,2.17,1.52,3.61,0,.5-.06.91-.18,1.22-.12.31-.32.53-.58.66-.26.13-.5.21-.72.24-.22.03-.52.04-.92.04h-6.55v1.17c0,1.17.42,2.12,1.27,2.82.85.71,1.94,1.06,3.28,1.06.68,0,1.25-.09,1.72-.28.47-.19.83-.37,1.07-.56.24-.19.43-.28.57-.28.17,0,.31.07.44.22.13.15.19.3.19.45,0,.35-.39.73-1.17,1.12-.78.39-1.74.59-2.89.59-1.74,0-3.15-.48-4.25-1.43-1.1-.95-1.64-2.2-1.64-3.75Zm1.39-2.29h6.03c.64,0,1.07-.07,1.27-.2.21-.13.31-.4.31-.81,0-.99-.36-1.87-1.08-2.65-.72-.78-1.62-1.17-2.72-1.17s-1.96.36-2.7,1.09c-.75.73-1.12,1.59-1.12,2.6v1.15Z" fill="#fff" stroke-width="0"/>
    <path d="m73.19,24.35v-3.19c0-1.53.45-2.77,1.35-3.73.9-.96,2.22-1.44,3.98-1.44,1.08,0,1.98.19,2.72.57.74.38,1.1.76,1.1,1.13,0,.17-.07.32-.2.46-.13.14-.28.21-.45.21-.09,0-.26-.09-.5-.27-.24-.18-.58-.36-1.03-.54-.45-.19-.99-.28-1.61-.28-1.26,0-2.24.35-2.93,1.03-.69.69-1.03,1.64-1.03,2.85v3.19c0,1.23.34,2.18,1.02,2.86.68.68,1.67,1.02,2.97,1.02.66,0,1.23-.09,1.7-.28.47-.19.83-.37,1.08-.56.24-.19.42-.28.54-.28.17,0,.32.07.44.21.12.14.18.29.18.46,0,.39-.38.78-1.15,1.16-.76.38-1.71.57-2.85.57-1.74,0-3.06-.48-3.96-1.43-.91-.95-1.36-2.2-1.36-3.75Z" fill="#fff" stroke-width="0"/>
    <path d="m86.11,28.74V8.53c0-.17.07-.31.2-.42.13-.11.29-.17.48-.17.21,0,.38.06.51.17.13.11.2.25.2.42v9.59c.32-.6.81-1.1,1.46-1.51.65-.41,1.42-.61,2.31-.61,1.38,0,2.57.5,3.57,1.51,1,1.01,1.5,2.21,1.5,3.61v7.63c0,.41-.24.61-.71.61s-.68-.2-.68-.61v-7.63c0-.99-.38-1.87-1.13-2.65-.76-.78-1.64-1.17-2.66-1.17-.96,0-1.81.35-2.55,1.05-.74.7-1.1,1.63-1.1,2.78v7.63c0,.15-.07.29-.21.42-.14.13-.31.2-.5.2s-.35-.06-.48-.18c-.13-.12-.2-.27-.2-.43Z" fill="#fff" stroke-width="0"/>
    <path d="m100.86,28.74v-12.02c0-.37.23-.56.68-.56.19,0,.35.05.48.15.13.1.2.24.2.41v1.4c.32-.6.81-1.1,1.47-1.51.66-.41,1.43-.61,2.32-.61,1.38,0,2.57.5,3.57,1.51,1,1.01,1.5,2.21,1.5,3.61v7.63c0,.41-.24.61-.71.61s-.68-.2-.68-.61v-7.63c0-.99-.38-1.87-1.13-2.65-.76-.78-1.64-1.17-2.66-1.17-.96,0-1.81.35-2.55,1.05-.74.7-1.1,1.63-1.1,2.78v7.63c0,.15-.07.29-.21.42-.14.13-.31.2-.5.2s-.35-.06-.48-.18c-.13-.12-.2-.27-.2-.43Z" fill="#fff" stroke-width="0"/>
    <path d="m115.21,10.96c0-.26.1-.49.31-.68.21-.2.46-.29.76-.29.28,0,.53.1.74.29.21.2.31.42.31.68,0,.28-.1.52-.31.73-.21.21-.45.31-.74.31-.3,0-.56-.1-.76-.31-.21-.2-.31-.45-.31-.73Zm.4,17.78v-12.02c0-.37.23-.56.68-.56s.71.19.71.56v12.02c0,.15-.07.29-.21.42-.14.13-.31.2-.5.2s-.35-.06-.48-.18c-.13-.12-.2-.27-.2-.43Z" fill="#fff" stroke-width="0"/>
    <path d="m121.16,24.35v-3.24c0-1.42.5-2.62,1.5-3.62,1-1,2.2-1.5,3.6-1.5.87,0,1.63.21,2.29.61.66.41,1.16.91,1.5,1.51v-1.4c0-.17.07-.3.2-.41.13-.1.29-.15.48-.15.45,0,.68.19.68.56v18.59c0,.17-.07.31-.2.43-.13.12-.29.18-.48.18s-.35-.07-.5-.2c-.14-.13-.21-.27-.21-.42v-7.91c-.32.6-.84,1.1-1.54,1.51-.71.41-1.47.61-2.28.61-1.34,0-2.52-.52-3.52-1.57-1.01-1.04-1.51-2.25-1.51-3.61Zm1.39,0c0,1.01.38,1.91,1.13,2.7.75.79,1.63,1.19,2.63,1.19s1.82-.35,2.58-1.06c.75-.71,1.13-1.33,1.13-1.87v-4.19c0-1.16-.37-2.08-1.1-2.78-.74-.7-1.6-1.05-2.58-1.05s-1.91.39-2.66,1.17c-.75.78-1.13,1.67-1.13,2.65v3.24Z" fill="#fff" stroke-width="0"/>
    <path d="m135.94,24.4v-7.66c0-.15.07-.28.21-.41.14-.12.31-.18.5-.18.17,0,.33.06.47.18.14.12.21.26.21.41v7.66c0,1.01.37,1.9,1.12,2.67.75.77,1.64,1.16,2.68,1.16s1.93-.39,2.68-1.16c.75-.77,1.12-1.66,1.12-2.67v-7.69c0-.15.07-.28.21-.39.14-.11.31-.17.5-.17s.35.06.48.17c.13.11.2.24.2.39v7.69c0,1.38-.51,2.58-1.53,3.59-1.02,1.02-2.24,1.52-3.65,1.52s-2.63-.51-3.65-1.54c-1.02-1.02-1.53-2.22-1.53-3.58Z" fill="#fff" stroke-width="0"/>
    <path d="m150.32,24.35v-3.33c0-1.38.51-2.56,1.53-3.55,1.02-.99,2.25-1.48,3.68-1.48s2.59.48,3.6,1.45c1.01.97,1.52,2.17,1.52,3.61,0,.5-.06.91-.18,1.22-.12.31-.32.53-.58.66-.26.13-.5.21-.72.24-.22.03-.52.04-.92.04h-6.55v1.17c0,1.17.42,2.12,1.27,2.82.85.71,1.94,1.06,3.28,1.06.68,0,1.25-.09,1.72-.28.47-.19.83-.37,1.07-.56.24-.19.43-.28.57-.28.17,0,.31.07.44.22.13.15.19.3.19.45,0,.35-.39.73-1.17,1.12-.78.39-1.74.59-2.89.59-1.74,0-3.15-.48-4.25-1.43-1.1-.95-1.64-2.2-1.64-3.75Zm1.39-2.29h6.03c.64,0,1.07-.07,1.27-.2.21-.13.31-.4.31-.81,0-.99-.36-1.87-1.08-2.65-.72-.78-1.62-1.17-2.72-1.17s-1.96.36-2.7,1.09c-.75.73-1.12,1.59-1.12,2.6v1.15Z" fill="#fff" stroke-width="0"/>
    <path d="m163.68,27.62c0-.15.05-.29.16-.43.1-.14.22-.21.35-.21.11-.02.26.05.45.2l.65.45c.23.15.58.3,1.05.45.47.15,1,.22,1.59.22,1.06,0,1.84-.2,2.35-.6.51-.4.76-.92.76-1.55,0-.75-.24-1.34-.72-1.77-.48-.43-1.06-.75-1.75-.95-.69-.2-1.38-.41-2.08-.62-.7-.21-1.3-.57-1.78-1.07-.48-.5-.72-1.18-.72-2.04,0-.97.36-1.83,1.09-2.57.73-.74,1.8-1.12,3.21-1.12.89,0,1.71.14,2.48.41.76.27,1.15.55,1.15.85,0,.15-.07.31-.2.48-.13.17-.27.25-.42.25-.02,0-.35-.13-.99-.38-.64-.25-1.3-.38-1.98-.38-1.02,0-1.78.25-2.28.75-.5.5-.75,1.06-.75,1.68s.24,1.13.72,1.48c.48.35,1.07.63,1.76.84.69.21,1.39.42,2.1.63.7.21,1.29.6,1.78,1.17.48.57.72,1.33.72,2.28,0,1.08-.39,1.93-1.16,2.54-.77.61-1.86.92-3.26.92-1.21,0-2.22-.21-3.04-.63-.82-.42-1.23-.84-1.23-1.27Z" fill="#fff" stroke-width="0"/>
  </g>
</svg>