<svg width="24" height="24" viewBox="0 0 24 24" fill="none" xmlns="http://www.w3.org/2000/svg">
<g clip-path="url(#clip0_1492_2342)">
<path d="M12 2.162C15.204 2.162 15.584 2.174 16.849 2.232C18.157 2.292 19.504 2.59 20.457 3.543C21.419 4.505 21.708 5.839 21.768 7.151C21.826 8.416 21.838 8.796 21.838 12C21.838 15.204 21.826 15.584 21.768 16.849C21.709 18.15 21.404 19.51 20.457 20.457C19.495 21.419 18.162 21.708 16.849 21.768C15.584 21.826 15.204 21.838 12 21.838C8.796 21.838 8.416 21.826 7.151 21.768C5.86 21.709 4.482 21.397 3.543 20.457C2.586 19.5 2.292 18.153 2.232 16.849C2.174 15.584 2.162 15.204 2.162 12C2.162 8.796 2.174 8.416 2.232 7.151C2.291 5.855 2.599 4.487 3.543 3.543C4.503 2.583 5.842 2.292 7.151 2.232C8.416 2.174 8.796 2.162 12 2.162ZM12 0C8.741 0 8.332 0.014 7.052 0.072C5.197 0.157 3.355 0.673 2.014 2.014C0.668 3.36 0.157 5.198 0.072 7.052C0.014 8.332 0 8.741 0 12C0 15.259 0.014 15.668 0.072 16.948C0.157 18.801 0.675 20.648 2.014 21.986C3.359 23.331 5.2 23.843 7.052 23.928C8.332 23.986 8.741 24 12 24C15.259 24 15.668 23.986 16.948 23.928C18.802 23.843 20.646 23.326 21.986 21.986C23.333 20.639 23.843 18.802 23.928 16.948C23.986 15.668 24 15.259 24 12C24 8.741 23.986 8.332 23.928 7.052C23.843 5.197 23.326 3.354 21.986 2.014C20.643 0.671 18.797 0.156 16.948 0.072C15.668 0.014 15.259 0 12 0Z" fill="#F6F6F6"/>
<path d="M11.9979 5.83594C8.59494 5.83594 5.83594 8.59494 5.83594 11.9979C5.83594 15.4009 8.59494 18.1599 11.9979 18.1599C15.4009 18.1599 18.1599 15.4009 18.1599 11.9979C18.1599 8.59494 15.4009 5.83594 11.9979 5.83594ZM11.9979 15.9979C9.78894 15.9979 7.99794 14.2069 7.99794 11.9979C7.99794 9.78894 9.78894 7.99794 11.9979 7.99794C14.2069 7.99794 15.9979 9.78894 15.9979 11.9979C15.9979 14.2069 14.2069 15.9979 11.9979 15.9979Z" fill="#F6F6F6"/>
<path d="M18.4088 7.03625C19.204 7.03625 19.8488 6.39154 19.8488 5.59625C19.8488 4.80096 19.204 4.15625 18.4088 4.15625C17.6135 4.15625 16.9688 4.80096 16.9688 5.59625C16.9688 6.39154 17.6135 7.03625 18.4088 7.03625Z" fill="#F6F6F6"/>
</g>
<defs>
<clipPath id="clip0_1492_2342">
<rect width="24" height="24" fill="white"/>
</clipPath>
</defs>
</svg>
