<?xml version="1.0" encoding="UTF-8"?>
<svg id="Layer_2" data-name="Layer 2" xmlns="http://www.w3.org/2000/svg" width="45" height="45" viewBox="0 0 510.24 510.24">
  <g id="Layer_1-2" data-name="Layer 1">
    <g>
      <rect width="510.24" height="510.24" rx="88.99" ry="88.99" fill="#58595b" stroke-width="0"/>
      <g>
        <path d="m159.24,389.78v-199.83c0-2.68,1.18-4.86,3.57-6.52,2.37-1.65,5.32-2.48,8.84-2.48s6.41.84,8.69,2.52c2.27,1.68,3.41,3.88,3.41,6.61v12.9c3.72-6.7,9.2-12.36,16.45-16.97,7.24-4.61,15.62-6.92,25.13-6.92,15.52,0,28.7,5.85,39.56,17.53,10.86,11.69,16.29,25.71,16.29,42.04v31.65c0,15.72-5.49,29.69-16.45,41.89-10.97,12.21-23.69,18.3-38.16,18.3-9.11,0-17.43-2.35-24.97-7.07-7.55-4.71-13.09-10.52-16.6-17.44v83.75c0,2.27-1.29,4.4-3.88,6.38-2.59,1.97-5.64,2.96-9.15,2.96s-6.52-.93-9-2.79c-2.48-1.86-3.72-4.03-3.72-6.52Zm25.75-111.22c0,5.14,3.57,11.15,10.71,18.05,7.14,6.89,15.25,10.33,24.35,10.33s17.53-3.75,24.67-11.25c7.14-7.51,10.7-15.99,10.7-25.45v-31.46c0-9.25-3.57-17.58-10.7-24.98-7.14-7.4-15.57-11.11-25.29-11.11-9.11,0-17.12,3.35-24.04,10.03-6.93,6.68-10.4,15.37-10.4,26.07v39.79Z" fill="#f7941d" stroke-width="0"/>
        <path d="m323.85,136.13c-3.21-3-4.81-6.46-4.81-10.4s1.55-7.34,4.66-10.24c3.1-2.9,6.92-4.34,11.48-4.34s8.07,1.45,11.17,4.34c3.1,2.9,4.65,6.31,4.65,10.24s-1.55,7.4-4.65,10.4c-3.1,3-6.83,4.5-11.17,4.5s-8.12-1.5-11.32-4.5Zm-1.4,182.6v-128.77c0-2.68,1.24-4.86,3.72-6.52,2.48-1.65,5.48-2.48,9-2.48,3.72,0,6.83.83,9.31,2.48,2.48,1.66,3.72,3.83,3.72,6.52v128.77c0,2.28-1.29,4.4-3.88,6.36-2.59,1.97-5.64,2.95-9.15,2.95s-6.52-.93-9-2.79c-2.48-1.86-3.72-4.03-3.72-6.52Z" fill="#f7941d" stroke-width="0"/>
      </g>
    </g>
  </g>
</svg>