<svg width="233" height="40" viewBox="0 0 233 40" fill="none" xmlns="http://www.w3.org/2000/svg">
<path d="M232.175 31.4647C231.677 34.2732 230.43 36.3708 228.435 37.7573C226.441 39.1438 224.037 39.8371 221.223 39.8371C217.555 39.8371 214.617 38.5572 212.409 35.9975C210.201 33.4378 209.097 30.0959 209.097 25.972C209.097 21.848 210.201 18.5061 212.409 15.9464C214.617 13.3867 217.555 12.1069 221.223 12.1069C224.108 12.1069 226.566 12.889 228.596 14.4533C230.626 16.0176 231.819 18.044 232.175 20.5326C232.246 20.7103 232.175 20.7992 231.961 20.7992H229.664C229.522 20.7992 229.415 20.7103 229.344 20.5326C229.023 18.8262 228.115 17.4219 226.619 16.3197C225.159 15.1821 223.36 14.6133 221.223 14.6133C218.375 14.6133 216.148 15.6976 214.546 17.8662C212.979 20.0348 212.195 22.7368 212.195 25.972C212.195 29.1716 212.997 31.8735 214.599 34.0777C216.238 36.2462 218.446 37.3307 221.223 37.3307C223.396 37.3307 225.195 36.8328 226.619 35.8375C228.044 34.8421 228.952 33.3667 229.344 31.4114C229.379 31.2336 229.486 31.1447 229.664 31.1447H231.961C232.175 31.1447 232.246 31.2514 232.175 31.4647ZM103.828 14.6133C105.965 14.6133 107.763 15.1821 109.223 16.3197C110.719 17.4219 111.627 18.8262 111.948 20.5326C112.019 20.7103 112.126 20.7992 112.268 20.7992H114.566C114.779 20.7992 114.85 20.7103 114.779 20.5326C114.423 18.044 113.23 16.0176 111.2 14.4533C109.17 12.889 106.713 12.1069 103.828 12.1069C100.159 12.1069 97.221 13.3867 95.0132 15.9464C92.805 18.5061 91.701 21.848 91.701 25.972C91.701 30.0959 92.805 33.4378 95.0132 35.9975C97.221 38.5572 100.159 39.8371 103.828 39.8371C106.641 39.8371 109.045 39.1438 111.04 37.7573C113.034 36.3708 114.28 34.2732 114.779 31.4647C114.85 31.2514 114.779 31.1447 114.566 31.1447H112.268C112.09 31.1447 111.983 31.2336 111.948 31.4114C111.556 33.3667 110.648 34.8421 109.223 35.8375C107.799 36.8328 106 37.3307 103.828 37.3307C101.05 37.3307 98.8416 36.2462 97.2035 34.0777C95.6009 31.8735 94.7995 29.1716 94.7995 25.972C94.7995 22.7368 95.5829 20.0348 97.1501 17.8662C98.7527 15.6976 100.978 14.6133 103.828 14.6133ZM84.2024 6.66752C87.2297 10.1516 88.7433 14.8088 88.7433 20.6392C88.7433 26.4697 87.2297 31.1269 84.2024 34.611C81.1753 38.0952 76.9905 39.8371 71.6484 39.8371C66.3062 39.8371 62.1393 38.0952 59.1477 34.611C56.1561 31.1269 54.6603 26.4697 54.6603 20.6392C54.6603 14.8088 56.1561 10.1516 59.1477 6.66752C62.1393 3.18346 66.3062 1.44143 71.6484 1.44143C76.9905 1.44143 81.1753 3.18346 84.2024 6.66752ZM85.6448 20.6392C85.6448 15.6976 84.4161 11.7336 81.9587 8.74726C79.5369 5.76092 76.1002 4.26784 71.6484 4.26784C67.1965 4.26784 63.7598 5.76092 61.338 8.74726C58.9518 11.698 57.7587 15.662 57.7587 20.6392C57.7587 25.6165 58.9518 29.5982 61.338 32.5846C63.7598 35.5353 67.1965 37.0107 71.6484 37.0107C76.1002 37.0107 79.5369 35.5175 81.9587 32.5313C84.4161 29.5449 85.6448 25.5809 85.6448 20.6392ZM203.069 1.97471H200.131C199.953 1.97471 199.864 2.06355 199.864 2.2413V5.97423C199.864 6.15198 199.953 6.24091 200.131 6.24091H203.069C203.248 6.24091 203.336 6.152 203.336 5.97423V2.2413C203.336 2.06355 203.248 1.97471 203.069 1.97471ZM185.652 12.1602C181.806 12.1602 178.85 13.7956 176.784 17.0663V12.9068C176.784 12.729 176.695 12.6402 176.517 12.6402H174.22C174.042 12.6402 173.953 12.729 173.953 12.9068V39.0371C173.953 39.2151 174.042 39.3038 174.22 39.3038H176.517C176.695 39.3038 176.784 39.2151 176.784 39.0371V23.6789C176.784 21.2259 177.532 19.1106 179.028 17.333C180.56 15.5554 182.518 14.6666 184.904 14.6666C187.113 14.6666 188.787 15.3065 189.926 16.5863C191.101 17.8307 191.689 19.9815 191.689 23.039V39.0371C191.689 39.2151 191.778 39.3038 191.956 39.3038H194.253C194.431 39.3038 194.52 39.2151 194.52 39.0371V22.2924C194.52 15.5376 191.564 12.1602 185.652 12.1602ZM168.312 21.2259V39.0371C168.312 39.2151 168.223 39.3038 168.045 39.3038H165.748C165.57 39.3038 165.481 39.2151 165.481 39.0371V33.8644C164.626 35.6776 163.362 37.1353 161.688 38.2373C160.014 39.3038 158.162 39.8371 156.132 39.8371C153.105 39.8371 150.808 39.1617 149.241 37.8106C147.709 36.4595 146.944 34.5399 146.944 32.0512C146.944 30.4159 147.389 29.0472 148.279 27.9451C149.205 26.8429 150.363 26.0786 151.752 25.652C153.141 25.1898 154.619 24.7987 156.186 24.4788C157.788 24.1588 159.284 23.9277 160.673 23.7856C162.062 23.6434 163.201 23.3589 164.092 22.9323C165.018 22.4701 165.481 21.8657 165.481 21.1192C165.481 18.9505 164.893 17.3329 163.718 16.2664C162.543 15.1998 160.655 14.6665 158.056 14.6665C155.954 14.6665 154.209 15.2176 152.82 16.3197C151.467 17.4218 150.754 19.0216 150.683 21.1191C150.683 21.2969 150.594 21.3858 150.416 21.3858H148.119C147.941 21.3858 147.852 21.2969 147.852 21.1191C147.994 18.2039 149.045 15.9819 151.004 14.4532C152.998 12.8889 155.349 12.1068 158.056 12.1068C161.225 12.1068 163.718 12.8534 165.535 14.3466C167.386 15.8042 168.312 18.0973 168.312 21.2259ZM165.481 25.0654C164.555 25.5275 163.131 25.9187 161.207 26.2386C159.284 26.5586 157.539 26.8252 155.972 27.0385C154.44 27.2518 153.069 27.7851 151.859 28.6383C150.647 29.456 150.042 30.5936 150.042 32.0512C150.042 33.8288 150.594 35.162 151.698 36.0508C152.838 36.904 154.334 37.3306 156.186 37.3306C159.07 37.3306 161.332 36.3707 162.97 34.451C164.644 32.5312 165.481 30.167 165.481 27.3584L165.481 25.0654ZM139.987 15.8931C141.981 18.3817 142.943 21.8302 142.872 26.2386C142.872 26.4164 142.783 26.5052 142.605 26.5052H122.999C123.106 29.9182 123.889 32.5667 125.349 34.451C126.845 36.3353 129 37.2773 131.813 37.2773C134.022 37.2773 135.82 36.7619 137.209 35.7308C138.634 34.6998 139.524 33.26 139.88 31.4113C139.951 31.2336 140.058 31.1446 140.201 31.1446H142.284C142.534 31.1446 142.623 31.2335 142.551 31.4113C142.017 34.0777 140.788 36.1575 138.865 37.6506C136.978 39.1084 134.609 39.8371 131.76 39.8371C127.949 39.8371 125.011 38.5752 122.945 36.0508C120.88 33.4911 119.847 30.1315 119.847 25.972C119.847 21.9191 120.915 18.595 123.052 15.9998C125.225 13.4045 128.092 12.1069 131.653 12.1069C135.214 12.1069 137.993 13.3689 139.987 15.8931ZM139.773 24.0522C139.738 21.1725 139.025 18.8972 137.636 17.2263C136.247 15.5198 134.253 14.6665 131.653 14.6665C129.053 14.6665 127.005 15.5198 125.51 17.2263C124.05 18.9327 123.23 21.208 123.052 24.0522H139.773ZM202.749 12.6402H200.452C200.273 12.6402 200.185 12.729 200.185 12.9068V39.0371C200.185 39.2151 200.274 39.3038 200.452 39.3038H202.749C202.927 39.3038 203.016 39.2151 203.016 39.0371V12.9068C203.016 12.729 202.927 12.6402 202.749 12.6402ZM17.6379 10.7573C16.7036 10.9871 15.7753 11.2368 14.8499 11.4958C15.1774 10.6274 15.5742 9.78945 16.0415 8.99024C18.0007 5.63941 20.7481 3.66907 22.7079 2.60624L22.1622 0.118938C17.555 -0.186751 12.9283 0.0973873 8.41047 0.964699C5.61264 1.50188 2.87063 2.25907 0.20166 3.22737V6.05831C3.02342 4.97368 5.9346 4.13967 8.91203 3.56794C11.8921 2.9958 14.9221 2.6905 17.9615 2.65447C16.4853 3.90448 14.9832 5.54107 13.7479 7.654C12.8785 9.14071 12.2171 10.7401 11.7702 12.4182C7.81497 13.6772 3.94947 15.1977 0.201688 16.9812V19.9263C5.96506 17.0819 12.0204 14.8697 18.2735 13.3314C25.0059 11.6749 31.8885 10.8152 38.8062 10.7627C36.2054 12.234 33.349 14.4146 30.8731 17.6246C27.4205 22.1009 26.0838 26.7732 25.6066 30.3008C26.5016 29.4758 27.568 28.6208 28.7805 27.8681C29.4596 25.2103 30.7118 22.1794 32.9773 19.2421C36.2919 14.9446 40.3636 12.6986 43.3099 11.5528V8.189C34.6662 7.82846 26.0386 8.69057 17.6379 10.7573ZM23.7924 36.9019C22.2371 34.7635 20.3627 32.997 18.2007 31.6347C11.917 27.6757 4.91159 28.2719 0.20166 29.4368V32.165C4.40535 31.0166 10.9867 30.2245 16.7832 33.8767C19.1497 35.3677 21.1263 37.4279 22.6581 40L24.9481 39.9878C26.0188 38.1455 27.9813 35.5268 31.2497 33.5132C34.7906 31.3318 38.2894 30.8068 40.6731 30.7634V28.1108C37.9492 28.1547 33.9261 28.7492 29.855 31.2573C27.0696 32.9732 25.1143 35.0724 23.7924 36.9019Z" fill="#020A08"/>
</svg>
