<svg width="24" height="24" viewBox="0 0 24 24" fill="none" xmlns="http://www.w3.org/2000/svg">
<g clip-path="url(#clip0_1492_2349)">
<path d="M21.544 7.10434C21.558 7.31534 21.558 7.52734 21.558 7.74034C21.558 14.2473 16.604 21.7503 7.54798 21.7503V21.7463C4.87298 21.7503 2.25298 20.9843 0.000976562 19.5393C0.389977 19.5863 0.780977 19.6093 1.17298 19.6103C3.39098 19.6123 5.54498 18.8683 7.28798 17.4983C5.18098 17.4583 3.33298 16.0843 2.68798 14.0783C3.42598 14.2203 4.18598 14.1913 4.91098 13.9943C2.61298 13.5303 0.960977 11.5113 0.960977 9.16734C0.960977 9.14634 0.960977 9.12534 0.960977 9.10534C1.64598 9.48734 2.41198 9.69834 3.19598 9.72134C1.03198 8.27634 0.363976 5.39834 1.67098 3.14834C4.17098 6.22434 7.85998 8.09434 11.819 8.29334C11.422 6.58334 11.965 4.79134 13.243 3.58834C15.226 1.72334 18.345 1.81934 20.21 3.80234C21.313 3.58534 22.37 3.18034 23.337 2.60734C22.969 3.74734 22.2 4.71534 21.172 5.33134C22.149 5.21434 23.102 4.95334 24.001 4.55534C23.34 5.54434 22.508 6.40734 21.544 7.10434Z" fill="#F6F6F6"/>
</g>
<defs>
<clipPath id="clip0_1492_2349">
<rect width="24" height="24" fill="white" transform="translate(0.000976562)"/>
</clipPath>
</defs>
</svg>
