<svg width="120" height="87" viewBox="0 0 120 87" fill="none" xmlns="http://www.w3.org/2000/svg">
<g clip-path="url(#clip0_7747_4009)">
<path d="M42.64 63.184C42.64 61.644 41.868 60.303 40.635 59.69C39.61 59.181 38.467 59.278 37.58 59.952C36.744 60.588 35.799 61.378 35.084 61.993C34.793 60.975 34.146 60.138 33.238 59.69C32.217 59.181 31.072 59.278 30.183 59.952C28.926 60.906 26.816 62.764 26.816 62.764C26.507 63.026 26.304 63.412 26.292 63.852V66.766V77.157C26.292 77.325 26.432 77.462 26.605 77.462V77.472H27.575V77.46C27.732 77.44 27.849 77.318 27.849 77.157V66.766V64.32C27.849 64.312 27.849 64.312 27.849 64.311C27.849 64.042 27.974 63.81 28.165 63.654C28.165 63.654 30.095 61.968 31.125 61.198C31.535 60.88 32.061 60.841 32.54 61.082C33.098 61.357 33.686 62.053 33.686 63.184V77.147C33.686 77.15 33.686 77.15 33.686 77.15C33.686 77.321 33.822 77.46 33.992 77.46V77.472H34.967V77.454C35.124 77.436 35.243 77.309 35.243 77.15V64.312C35.243 64.055 35.359 63.827 35.534 63.671C35.534 63.671 37.484 61.979 38.519 61.197C38.931 60.879 39.451 60.84 39.941 61.081C40.49 61.356 41.084 62.052 41.084 63.183V77.149C41.084 77.32 41.22 77.459 41.391 77.459V77.471H42.362V77.453C42.52 77.435 42.64 77.308 42.64 77.149C42.64 77.146 42.64 77.146 42.64 77.146V63.184Z" fill="#535353"/>
<path d="M93.7584 59.3418L93.7524 59.3458H92.7974C92.7874 59.3458 92.7854 59.3418 92.7854 59.3418L92.7644 59.3458H92.7454V59.3518C92.5964 59.3698 92.4744 59.4928 92.4744 59.6498C92.4744 59.6608 92.4774 59.6638 92.4774 59.6708V72.4958H92.4744C92.4744 72.5048 92.4774 72.5088 92.4774 72.5148C92.4774 72.8288 92.3264 73.1048 92.0894 73.2798C91.3474 73.9408 90.2304 74.8858 89.3614 75.4668C88.6934 75.9198 87.8824 75.9908 87.2504 75.6508C86.6654 75.3458 86.3534 74.7448 86.3534 73.9628C86.3534 72.2168 86.3534 61.6268 86.3534 59.6618C86.3534 59.6558 86.3534 59.6558 86.3534 59.6508C86.3534 59.4818 86.2184 59.3428 86.0414 59.3428H85.0304V59.3528C84.8774 59.3708 84.7604 59.4938 84.7604 59.6508H84.7544C84.7544 61.6398 84.7544 72.6358 84.7544 73.9628C84.7544 75.3458 85.3944 76.4728 86.4944 77.0588C87.0024 77.3318 87.5574 77.4608 88.1224 77.4608C88.8524 77.4608 89.6024 77.2378 90.2584 76.7948C90.9534 76.3238 91.7784 75.6568 92.4784 75.0628V77.5448C92.4784 80.7558 91.8444 81.4338 91.1034 82.3478C90.5624 83.0178 89.1084 84.3898 88.6264 84.7988C88.6134 84.8048 88.6054 84.8108 88.6044 84.8168C88.4894 84.9298 88.4894 85.1078 88.5834 85.2268L88.5924 85.2358C88.5984 85.2408 88.5984 85.2418 88.6044 85.2508L89.2334 86.0068V86.0088C89.3564 86.1298 89.5494 86.1298 89.6714 86.0088C89.6754 86.0068 89.6754 86.0068 89.6774 86.0028C90.4074 85.3878 91.1224 84.7698 92.3144 83.3918C93.3784 82.1558 94.0764 81.0858 94.0764 77.5458V59.6488H94.0704C94.0694 59.4798 93.9304 59.3418 93.7584 59.3418Z" fill="#535353"/>
<path d="M9.24118 65.1479C9.24118 61.8449 8.52118 60.7109 7.35918 59.9509C6.41118 59.3359 4.75818 58.9049 2.19618 60.2549C2.08818 60.3029 2.00218 60.4139 2.00218 60.5399C2.00218 60.6079 2.02718 60.6709 2.06418 60.7229L2.50018 61.4879C2.54718 61.5959 2.65018 61.6739 2.77718 61.6739C2.81118 61.6739 2.83918 61.6679 2.87018 61.6609C2.87018 61.6609 2.88318 61.6539 2.88718 61.6499C2.91218 61.6429 2.93718 61.6299 2.95518 61.6149C4.06118 61.0409 5.47518 60.5869 6.50818 61.2559C6.88918 61.5119 7.38518 61.8399 7.58418 63.4199C7.59718 63.4609 7.59718 63.5019 7.60618 63.5429C7.60618 63.5499 7.61018 63.5559 7.61018 63.5629H7.60718C7.61118 63.5819 7.61118 63.5969 7.61118 63.6139C7.61118 63.9359 7.44818 64.2179 7.20818 64.3929C6.12818 65.2539 4.13018 66.8349 2.80018 67.8479C1.18918 69.0819 0.22918 70.5599 0.0381796 72.1209C-0.12782 73.4219 0.25718 74.6929 1.14018 75.8079C1.96918 76.8439 3.27918 77.4319 4.65418 77.4319C4.98418 77.4319 5.30618 77.3999 5.63318 77.3319C6.72318 77.1049 7.64818 76.5209 8.31418 75.6769C8.98718 74.7969 9.18918 73.9549 9.24118 73.2679C9.25318 72.5919 9.24318 71.5779 9.24318 71.5779V65.1479H9.24118ZM7.68018 73.0589C7.68018 73.2859 7.64518 73.6829 7.58418 73.8319C7.15818 74.8669 6.37518 75.5859 5.31418 75.8079C4.17718 76.0429 3.01918 75.6619 2.35718 74.8329C1.74418 74.0569 1.47318 73.1869 1.58218 72.3119C1.72118 71.1789 2.46818 70.0619 3.74818 69.0859C4.90018 68.2039 6.55218 66.8989 7.68018 66.0029V73.0589Z" fill="#535353"/>
<path d="M67.6602 65.1479C67.6602 61.8449 66.9372 60.7109 65.7742 59.9509C64.8302 59.3359 63.1782 58.9049 60.6182 60.2549C60.4992 60.3029 60.4262 60.4139 60.4262 60.5399C60.4262 60.6079 60.4482 60.6709 60.4852 60.7229L60.9162 61.4889C60.9672 61.5969 61.0732 61.6749 61.1972 61.6749C61.2302 61.6749 61.2642 61.6689 61.2912 61.6619C61.2912 61.6619 61.3052 61.6549 61.3082 61.6509C61.3332 61.6439 61.3602 61.6309 61.3752 61.6159C62.4802 61.0419 63.8962 60.5879 64.9282 61.2569C65.3092 61.5129 65.8072 61.8409 66.0082 63.4209C66.0172 63.4619 66.0222 63.5029 66.0222 63.5439C66.0302 63.5509 66.0302 63.5569 66.0302 63.5639C66.0302 63.5829 66.0302 63.5979 66.0302 63.6149C66.0302 63.9369 65.8702 64.2189 65.6322 64.3939C64.5442 65.2549 62.5502 66.8359 61.2222 67.8489C59.6032 69.0829 58.6482 70.5609 58.4532 72.1219C58.2942 73.4229 58.6752 74.6939 59.5642 75.8089C60.3872 76.8449 61.7002 77.4329 63.0732 77.4329C63.3972 77.4329 63.7302 77.4009 64.0572 77.3329C65.1432 77.1059 66.0652 76.5219 66.7312 75.6779C67.4052 74.7979 67.6072 73.9559 67.6592 73.2689C67.6672 72.5929 67.6622 71.5789 67.6622 71.5789V65.1479H67.6602ZM66.1002 73.0589C66.1002 73.2859 66.0632 73.6829 66.0042 73.8319C65.5802 74.8669 64.7932 75.5859 63.7362 75.8079C62.5992 76.0429 61.4362 75.6619 60.7812 74.8329C60.1562 74.0569 59.8902 73.1869 59.9962 72.3119C60.1412 71.1789 60.8832 70.0619 62.1622 69.0859C63.3182 68.2039 64.9682 66.8989 66.1002 66.0029V73.0589Z" fill="#535353"/>
<path d="M119.049 71.5769V65.1479C119.049 61.8449 118.333 60.7109 117.172 59.9509C116.223 59.3359 114.57 58.9049 112.01 60.2549C111.898 60.3029 111.82 60.4139 111.82 60.5399C111.82 60.6079 111.844 60.6709 111.877 60.7229L112.313 61.4889C112.359 61.5969 112.47 61.6749 112.591 61.6749C112.624 61.6749 112.653 61.6689 112.688 61.6619C112.693 61.6619 112.695 61.6549 112.709 61.6509C112.73 61.6439 112.75 61.6309 112.771 61.6159C113.875 61.0419 115.291 60.5879 116.318 61.2569C116.709 61.5129 117.197 61.8409 117.4 63.4209C117.41 63.4619 117.416 63.5029 117.42 63.5439C117.42 63.5509 117.424 63.5569 117.424 63.5639H117.42C117.424 63.5829 117.426 63.5979 117.426 63.6149C117.426 63.9369 117.26 64.2189 117.026 64.3939C115.94 65.2549 113.945 66.8359 112.614 67.8489C111 69.0829 110.044 70.5609 109.851 72.1219C109.689 73.4229 110.069 74.6939 110.955 75.8089C111.781 76.8449 113.092 77.4329 114.469 77.4329C114.794 77.4329 115.121 77.4009 115.451 77.3329C116.531 77.1059 117.459 76.5219 118.125 75.6779C118.799 74.7979 119 73.9559 119.051 73.2689C119.063 72.5919 119.049 71.5769 119.049 71.5769ZM117.499 73.0589C117.499 73.2859 117.457 73.6829 117.399 73.8319C116.975 74.8669 116.188 75.5859 115.131 75.8079C113.992 76.0429 112.828 75.6619 112.173 74.8329C111.551 74.0569 111.281 73.1869 111.395 72.3119C111.536 71.1789 112.281 70.0619 113.557 69.0859C114.713 68.2039 116.369 66.8989 117.498 66.0029L117.499 73.0589Z" fill="#535353"/>
<path d="M60.4252 23.982C61.0902 23.102 61.2932 22.267 61.3462 21.573C61.3602 20.9 61.3492 19.888 61.3492 19.888V13.459C61.3492 13.42 61.3492 13.388 61.3492 13.352L61.3312 13.138L66.1562 9.583V21.67C66.1562 24.878 65.5232 25.558 64.7792 26.471C64.2392 27.14 63.3382 28.006 62.8522 28.415C62.8462 28.42 62.8392 28.424 62.8372 28.43C62.7182 28.542 62.7172 28.722 62.8152 28.845L62.8272 28.853C62.8272 28.853 62.8322 28.86 62.8382 28.868L63.4592 29.621L63.4652 29.623C63.5862 29.743 63.7772 29.743 63.9042 29.623C63.9072 29.621 63.9072 29.621 63.9072 29.616C64.6352 29.001 64.7972 28.893 65.9892 27.517C67.0542 26.28 67.7532 25.206 67.7532 21.669V0.306H67.7462C67.7472 0.138 67.6122 0 67.4382 0L67.4242 0.005H66.4792C66.4702 0.005 66.4692 0 66.4692 0C66.4512 0 66.4482 0.005 66.4482 0.005H66.4252V0.007C66.2722 0.025 66.1472 0.153 66.1472 0.306C66.1472 0.316 66.1572 0.319 66.1572 0.33V6.92H66.1472C66.1472 6.926 66.1522 6.935 66.1522 6.941C66.1522 7.245 66.0102 7.516 65.7842 7.688L61.1902 11.253L61.1842 11.173C60.9072 9.604 60.2982 8.832 59.4462 8.209C60.2842 7.321 60.8162 6.379 60.9482 5.306C61.1072 4.007 60.7252 2.738 59.8402 1.625C59.0122 0.588 57.7022 0 56.3292 0C56.0052 0 55.6752 0.033 55.3472 0.1C54.6952 0.237 54.0952 0.504 53.5792 0.88C53.5792 0.88 53.5772 0.882 53.5732 0.885C53.4382 0.986 53.4112 1.169 53.4972 1.311H53.4852L54.0022 2.052H54.0132C54.0212 2.066 54.0212 2.076 54.0272 2.087C54.1362 2.231 54.3382 2.264 54.4842 2.153C54.4842 2.151 54.4842 2.151 54.4882 2.149V2.155C54.8302 1.901 55.2222 1.718 55.6682 1.626C56.8012 1.389 57.9652 1.771 58.6242 2.601C59.2422 3.372 59.5142 4.244 59.4012 5.118C59.2612 6.255 58.3842 7.127 57.1592 8.167C56.0562 9.1 54.0212 10.378 53.2852 10.951V10.953C53.1532 11.062 53.1252 11.257 53.2292 11.392V11.397H53.2222L53.7152 12.107V12.105C53.7252 12.107 53.7252 12.116 53.7252 12.122C53.8342 12.265 54.0382 12.296 54.1752 12.189C54.1952 12.178 54.1992 12.163 54.2122 12.152V12.16C55.3132 11.355 56.6052 10.512 57.7432 9.669L57.7222 9.693C58.1072 9.402 58.3682 9.402 58.6152 9.565C59.0042 9.82 59.4942 10.148 59.6952 11.728C59.7092 11.769 59.7122 11.811 59.7152 11.853C59.7172 11.859 59.7172 11.864 59.7172 11.871C59.7172 11.891 59.7172 11.905 59.7172 11.92C59.7172 12.243 59.5642 12.525 59.3212 12.702C58.2372 13.565 56.2432 15.145 54.9112 16.157C53.2982 17.389 52.3432 18.867 52.1462 20.431C51.9852 21.728 52.3692 23.003 53.2542 24.115C54.0802 25.15 55.3912 25.74 56.7622 25.74C57.0882 25.74 57.4202 25.709 57.7442 25.641C58.8312 25.412 59.7582 24.828 60.4252 23.982ZM59.7922 21.366C59.7922 21.59 59.7532 21.99 59.6942 22.139C59.2702 23.175 58.4872 23.891 57.4282 24.114C56.2892 24.35 55.1312 23.969 54.4702 23.14C53.8532 22.365 53.5782 21.495 53.6892 20.619C53.8342 19.487 54.5832 18.371 55.8552 17.397C57.0112 16.514 58.6652 15.209 59.7922 14.311V21.366Z" fill="#535353"/>
</g>
<defs>
<clipPath id="clip0_7747_4009">
<rect width="119.055" height="86.098" fill="white"/>
</clipPath>
</defs>
</svg>
