<svg width="245" height="28" viewBox="0 0 245 28" fill="none" xmlns="http://www.w3.org/2000/svg">
<path d="M39.095 13.6697V13.6084C39.095 7.97824 43.3011 3.31006 49.167 3.31006C52.779 3.31006 54.9386 4.59263 56.9285 6.47405L55.3913 8.12442C53.7126 6.53063 51.8406 5.38952 49.1387 5.38952C44.7252 5.38952 41.4244 8.96847 41.4244 13.5518V13.6084C41.4244 18.2152 44.7487 21.8366 49.1387 21.8366C51.8595 21.8366 53.6513 20.7804 55.561 18.9603L57.0369 20.4126C54.9574 22.5156 52.6847 23.9067 49.0774 23.9067C43.3341 23.9067 39.0903 19.3846 39.0903 13.6697H39.095Z" fill="#3e3e3e"/>
<path d="M66.6604 3.65918H68.9049V12.5004H80.3915V3.65918H82.6454V23.5626H80.3915V14.6129H68.9049V23.5626H66.6604V3.65918Z" fill="#3e3e3e"/>
<path d="M101.333 3.51807H103.445L112.508 23.563H110.094L107.76 18.3101H96.924L94.5616 23.563H92.2605L101.328 3.51807H101.333ZM106.883 16.2825L102.356 6.13036L97.8104 16.2825H106.878H106.883Z" fill="#3e3e3e"/>
<path d="M122.127 3.65918H124.235L136.773 19.6159V3.65918H138.966V23.5626H137.169L124.31 7.24755V23.5626H122.123V3.65918H122.127Z" fill="#3e3e3e"/>
<path d="M157.657 3.51807H159.76L168.832 23.563H166.409L164.079 18.3101H153.248L150.886 23.563H148.58L157.657 3.51807ZM163.202 16.2825L158.68 6.13036L154.13 16.2825H163.202Z" fill="#3e3e3e"/>
<path d="M178.447 3.65918H180.692V15.5513L192.131 3.65918H195.031L186.496 12.359L195.399 23.5626H192.584L184.931 13.9292L180.692 18.2201V23.5626H178.447V3.65918Z" fill="#3e3e3e"/>
<path d="M210.766 15.6927L202.495 3.65918H205.221L211.935 13.6133L218.702 3.65918H221.314L213.039 15.6644V23.5626H210.761V15.6927H210.766Z" fill="#3e3e3e"/>
<path d="M233.825 3.51807H235.928L245 23.563H242.576L240.252 18.3101H229.416L227.053 23.563H224.748L233.825 3.51807ZM239.365 16.2825L234.848 6.13036L230.293 16.2825H239.365Z" fill="#3e3e3e"/>
<path d="M21.4972 6.25726L21.3888 6.23368L21.3605 6.11108C20.4599 2.46612 17.4798 0 13.5755 0C10.8076 0 7.12959 1.89085 6.19124 6.12523L6.15823 6.24311L6.04506 6.2714C2.42368 7.19561 0 10.1521 0 14.0328C0 16.7866 1.87671 20.441 6.07336 21.4029L6.19596 21.4359L6.21953 21.5538C7.17675 25.741 10.8311 27.6272 13.5943 27.6272C17.4798 27.6272 20.4457 25.1752 21.3605 21.5444L21.3935 21.4359L21.5067 21.4029C25.7033 20.4457 27.5706 16.7913 27.5753 14.0328C27.5753 10.138 25.1233 7.17675 21.4972 6.26197V6.25726ZM8.14811 5.69141C9.05345 3.38561 11.1282 1.93329 13.7829 1.938C16.3905 1.938 18.5077 3.43748 19.4461 5.69141L19.5545 5.95076H19.2622C19.1914 5.95076 19.1631 5.94133 19.1631 5.94133C17.5929 5.94133 15.9803 6.32327 13.8631 7.21918L13.7877 7.24748L13.7122 7.21918C11.5903 6.32799 9.9918 5.94133 8.41216 5.94133C8.41216 5.94133 8.38859 5.95076 8.32257 5.95076H8.04437L8.14339 5.69141H8.14811ZM7.28991 13.8112C6.52603 15.3013 5.97433 16.9186 5.96962 19.2905V19.5639L5.70556 19.4602C3.39504 18.5643 1.93329 16.4848 1.94272 13.8159C1.93329 11.2131 3.43748 9.10061 5.6867 8.16697L5.94604 8.0538V8.33672C5.96962 10.7133 6.50717 12.1137 7.28991 13.6273L7.3465 13.7216L7.28991 13.8112ZM19.4696 21.9216C18.5266 24.1803 16.4188 25.675 13.8112 25.675H13.8018C11.1423 25.6892 9.05817 24.2274 8.15754 21.9169L8.05851 21.6528H8.34615C10.7133 21.6387 12.3306 21.0917 13.8301 20.3137L13.9197 20.2712L13.9998 20.3137C15.5135 21.0964 16.8951 21.6434 19.2857 21.6528H19.5781L19.4696 21.9169V21.9216ZM19.9506 19.7431L19.9412 19.9034L19.7808 19.9176C19.5639 19.927 19.3518 19.9742 19.0924 19.9742C17.3336 19.9742 15.6502 19.3612 13.9197 18.2625C12.1561 19.3706 10.2511 19.9742 8.48761 19.9742C8.25184 19.9742 8.06323 19.9412 7.88405 19.9223L7.71901 19.9082L7.70486 19.7526C7.69072 19.5639 7.653 19.3753 7.653 19.1443C7.653 17.376 8.25184 15.4757 9.35995 13.7216C8.25184 11.977 7.63885 10.2559 7.63885 8.48289C7.63885 8.24713 7.67186 8.04437 7.68129 7.85104L7.69543 7.686H7.86519C8.02079 7.67186 8.18583 7.6247 8.3933 7.6247C10.204 7.6247 11.8827 8.13396 13.7877 9.22792C15.6974 8.13396 17.3666 7.6247 19.1961 7.6247C19.413 7.6247 19.5922 7.67186 19.7573 7.68129L19.9223 7.69072L19.9317 7.86047C19.9412 8.01136 19.9789 8.18111 19.9789 8.38387C19.9789 10.1898 19.4743 11.9392 18.3898 13.8442C19.4838 15.7351 19.9883 17.409 19.9883 19.2244C19.9883 19.4272 19.96 19.5828 19.9459 19.7384L19.9506 19.7431ZM21.9358 19.4366L21.6481 19.5451L21.6764 19.2433V19.2103C21.6764 17.6354 21.2945 16.0369 20.4033 13.915L20.375 13.8395L20.4033 13.7688C21.2803 11.6657 21.6623 9.98709 21.6623 8.43103L21.6293 8.06323L21.9216 8.18583C24.1614 9.1289 25.6373 11.2367 25.6373 13.8254C25.6373 16.4612 24.2085 18.5219 21.931 19.4413L21.9358 19.4366Z" fill="#3e3e3e"/>
</svg>
