<svg width="179" height="171" viewBox="0 0 179 171" fill="none" xmlns="http://www.w3.org/2000/svg">
<path d="M65.7943 19.6458H61.6599C61.5886 19.2886 61.5174 18.86 61.4461 18.5028L63.0143 17.8599C63.7271 17.5741 63.2994 16.4311 62.5866 16.7883L61.0184 17.4312C60.8045 17.074 60.5907 16.7883 60.3768 16.5025L63.3707 13.5021C63.941 12.9306 63.0856 12.1448 62.5153 12.6449L59.5214 15.6453C59.2363 15.431 58.8799 15.2166 58.5948 15.0023L59.2363 13.4307C59.5214 12.7163 58.4522 12.2877 58.1671 13.0021L57.5255 14.5737C57.1691 14.4308 56.8127 14.3594 56.385 14.3594V10.1445C56.385 9.35872 55.1732 9.35872 55.1732 10.1445V14.288C54.8168 14.3594 54.3891 14.4308 54.0327 14.5023L53.3911 13.0021C53.106 12.2877 51.9655 12.7163 52.3219 13.4307L52.9634 15.0023C52.607 15.2166 52.3219 15.431 52.0367 15.6453L49.0429 12.7163C48.4726 12.1448 47.6885 13.0021 48.1875 13.5736L51.1814 16.574C50.9675 16.8597 50.7537 17.2169 50.5398 17.5027L48.9716 16.8597C48.2588 16.574 47.8311 17.6455 48.5439 17.9313L50.1121 18.5742C49.9695 18.9314 49.8983 19.2886 49.8983 19.7173H45.6926C44.9085 19.7173 44.9085 20.9317 45.6926 20.9317H49.827C49.8983 21.2889 49.9695 21.7175 50.0408 22.0747L48.4726 22.7177C47.7598 23.0034 48.1875 24.1464 48.9003 23.7892L50.4685 23.1463C50.6824 23.5035 50.8962 23.7892 51.1101 24.075L48.1875 27.0754C47.6172 27.6469 48.4726 28.4327 49.0429 27.9326L52.0367 24.9322C52.3219 25.1466 52.6783 25.3609 52.9634 25.5752L52.3219 27.1468C52.0367 27.8612 53.106 28.2898 53.3911 27.5755L54.0327 26.0038C54.3891 26.1467 54.7455 26.2181 55.1732 26.2181V30.3615C55.1732 31.1474 56.385 31.1474 56.385 30.3615V26.2181C56.7414 26.1467 57.1691 26.0753 57.5255 26.0038L58.1671 27.5755C58.4522 28.2898 59.5927 27.8612 59.2363 27.1468L58.5948 25.5752C58.9512 25.3609 59.2363 25.1466 59.5214 24.9322L62.5153 27.9326C63.0856 28.5042 63.8697 27.6469 63.3707 27.0754L60.3768 24.075C60.5907 23.7892 60.8045 23.432 61.0184 23.1463L62.5866 23.7892C63.2994 24.075 63.7271 23.0034 63.0143 22.7177L61.4461 22.0747C61.5886 21.7175 61.6599 21.3603 61.6599 20.9317H65.7943C66.5784 20.8603 66.5784 19.6458 65.7943 19.6458Z" fill="#484848"></path>
<path d="M128.88 20.5023C128.666 20.3594 128.452 20.288 128.239 20.2166C128.452 20.1451 128.666 20.0737 128.88 19.9308C130.234 19.145 130.733 17.359 129.949 16.0017C129.165 14.6444 127.383 14.1443 126.029 14.9301C125.815 15.073 125.601 15.2159 125.459 15.3588C125.53 15.1445 125.53 14.8587 125.53 14.6444C125.53 13.0728 124.247 11.7869 122.678 11.7869C121.11 11.7869 119.827 13.0728 119.827 14.6444C119.827 14.9301 119.827 15.1445 119.898 15.3588C119.756 15.2159 119.542 15.073 119.328 14.9301C117.974 14.1443 116.192 14.6444 115.408 16.0017C114.624 17.359 115.051 19.145 116.477 19.9308C116.691 20.0737 116.905 20.1451 117.118 20.2166C116.905 20.288 116.691 20.3594 116.477 20.5023C115.122 21.2881 114.624 23.0741 115.408 24.4314C116.192 25.7887 117.974 26.2888 119.328 25.503C119.542 25.3601 119.756 25.2172 119.898 25.0744C119.827 25.2887 119.827 25.5744 119.827 25.7887C119.827 27.3604 121.11 28.6463 122.678 28.6463C124.247 28.6463 125.53 27.3604 125.53 25.7887C125.53 25.503 125.53 25.2887 125.459 25.0744C125.601 25.2172 125.815 25.3601 126.029 25.503C127.383 26.2888 129.165 25.7887 129.949 24.4314C130.733 23.0741 130.234 21.2881 128.88 20.5023ZM122.678 23.0027C121.182 23.0027 119.898 21.7882 119.898 20.2166C119.898 18.7164 121.11 17.4305 122.678 17.4305C124.175 17.4305 125.459 18.6449 125.459 20.2166C125.459 21.7882 124.247 23.0027 122.678 23.0027Z" fill="#484848"></path>
<path d="M88.8881 31.5042C88.603 31.5042 88.3891 31.3613 88.2466 31.147L86.3219 27.5751L82.7578 25.6463C82.5439 25.5034 82.4014 25.2891 82.4014 25.0033C82.4014 24.7176 82.5439 24.5032 82.7578 24.3604L86.3219 22.4315L88.2466 18.8596C88.3891 18.6453 88.603 18.5024 88.8881 18.5024C89.1732 18.5024 89.3871 18.6453 89.5296 18.8596L91.4543 22.4315L95.0184 24.3604C95.2323 24.5032 95.3748 24.7176 95.3748 25.0033C95.3748 25.2891 95.2323 25.5034 95.0184 25.6463L91.4543 27.5751L89.5296 31.147C89.3871 31.3613 89.1019 31.5042 88.8881 31.5042Z" fill="#484848"></path>
<path d="M88.8884 6.71519C88.7458 6.71519 88.6032 6.64375 88.532 6.50087L87.534 4.71492L85.7519 3.71478C85.6094 3.64335 85.5381 3.50047 85.5381 3.35759C85.5381 3.21472 85.6094 3.07184 85.7519 3.0004L87.534 2.00027L88.532 0.214315C88.6032 0.0714382 88.7458 0 88.8884 0C89.0309 0 89.1735 0.0714382 89.2448 0.214315L90.2427 2.00027L92.0248 3.0004C92.1674 3.07184 92.2387 3.21472 92.2387 3.35759C92.2387 3.50047 92.1674 3.64335 92.0248 3.71478L90.2427 4.71492L89.2448 6.50087C89.1022 6.64375 88.9597 6.71519 88.8884 6.71519Z" fill="#484848"></path>
<path d="M78.6251 17.2173C78.4112 17.2173 78.2686 17.0744 78.1261 16.9315L76.7004 14.2883L74.063 12.8596C73.9204 12.7881 73.7778 12.5738 73.7778 12.3595C73.7778 12.1452 73.9204 12.0023 74.063 11.8594L76.7004 10.4307L78.1261 7.78746C78.1974 7.64459 78.4112 7.50171 78.6251 7.50171C78.8389 7.50171 78.9815 7.64459 79.124 7.78746L80.5497 10.4307L83.1872 11.8594C83.3297 11.9309 83.4723 12.1452 83.4723 12.3595C83.4723 12.5738 83.3297 12.7167 83.1872 12.8596L80.5497 14.2883L79.124 16.9315C78.9815 17.1459 78.8389 17.2173 78.6251 17.2173Z" fill="#484848"></path>
<path d="M99.084 17.2168C98.8702 17.2168 98.7276 17.0739 98.5851 16.9311L97.1594 14.2878L94.522 12.8591C94.3794 12.7876 94.2368 12.5733 94.2368 12.359C94.2368 12.1447 94.3794 12.0018 94.522 11.8589L97.1594 10.4302L98.5851 7.78697C98.6564 7.6441 98.8702 7.50122 99.084 7.50122C99.2979 7.50122 99.4405 7.6441 99.583 7.78697L101.009 10.4302L103.646 11.8589C103.789 11.9304 103.931 12.1447 103.931 12.359C103.931 12.5733 103.789 12.7162 103.646 12.8591L101.009 14.2878L99.583 16.9311C99.4405 17.1454 99.2979 17.2168 99.084 17.2168Z" fill="#484848"></path>
<path d="M88.8896 120.659C88.4619 120.659 88.1055 120.516 87.8916 120.159L77.1279 106.729V106.514C77.1279 106.371 77.0566 106.3 77.0566 106.157V76.5817C77.0566 75.9388 77.5556 75.4387 78.1972 75.4387C78.8387 75.4387 79.3377 75.9388 79.3377 76.5817V105.8L88.8896 117.73C92.2399 113.587 97.301 107.229 98.4415 105.8V76.5817C98.4415 75.9388 98.9405 75.4387 99.582 75.4387C100.224 75.4387 100.723 75.9388 100.723 76.5817V106.443L100.58 106.729C100.224 107.229 98.6553 109.229 89.8875 120.159C89.6024 120.516 89.246 120.659 88.8896 120.659ZM79.3377 106.014C79.3377 106.086 79.3377 106.086 79.3377 106.014V106.014Z" fill="#484848"></path>
<path d="M78.1265 98.2993H99.5826V105.8H78.1977" fill="#484848"></path>
<path d="M78.1265 83.3689H99.5826V90.8699H78.1977" fill="#484848"></path>
<path d="M83.9712 112.087H93.7369L88.8184 118.088L83.9712 112.087Z" fill="#484848"></path>
<path d="M94.8049 47.7921C94.6624 47.7921 94.5911 47.7921 94.4485 47.7207C93.807 47.5064 93.5218 46.8634 93.6644 46.2919C95.9454 39.0052 103.715 35.0047 110.986 37.3622C111.628 37.5765 111.913 38.2194 111.77 38.7909C111.556 39.4339 110.915 39.7196 110.345 39.5767C107.422 38.648 104.357 38.9338 101.577 40.2911C98.868 41.7199 96.8721 44.0773 95.9455 47.0063C95.7316 47.4349 95.3039 47.7921 94.8049 47.7921Z" fill="#484848"></path>
<path d="M82.902 47.7915C82.403 47.7915 81.9753 47.5058 81.8328 47.0057C80.9061 44.0767 78.9102 41.7193 76.2014 40.2905C73.4927 38.8618 70.3562 38.6474 67.4336 39.5761C66.7921 39.7905 66.1505 39.4333 66.008 38.7903C65.7941 38.1474 66.1505 37.5044 66.7921 37.3616C70.2849 36.2185 74.0629 36.5757 77.2707 38.2188C80.5497 39.9333 82.9733 42.7909 84.0425 46.2913C84.2564 46.9343 83.9 47.5772 83.2584 47.7201C83.1158 47.7201 83.0446 47.7915 82.902 47.7915Z" fill="#484848"></path>
<path d="M101.506 63.0085C100.864 63.0085 100.365 62.5084 100.365 61.8654C100.365 55.5075 95.2331 50.3639 88.8889 50.3639C82.5448 50.3639 77.4124 55.5075 77.4124 61.8654C77.4124 62.5084 76.9134 63.0085 76.2719 63.0085C75.6303 63.0085 75.1313 62.5084 75.1313 61.8654C75.1313 54.2216 81.3329 48.0779 88.8889 48.0779C96.5162 48.0779 102.646 54.293 102.646 61.8654C102.646 62.437 102.148 63.0085 101.506 63.0085Z" fill="#484848"></path>
<path d="M88.8878 75.654C84.8247 75.654 80.9754 73.8681 78.338 70.7248C77.9103 70.2248 77.9815 69.5104 78.4805 69.0817C78.9795 68.6531 79.6923 68.7245 80.12 69.2246C82.3298 71.7964 85.4662 73.2966 88.8878 73.2966C92.2381 73.2966 95.4458 71.7964 97.6556 69.2246C98.0833 68.7245 98.7961 68.6531 99.2951 69.0817C99.7941 69.5104 99.8654 70.2248 99.4377 70.7248C96.7289 73.8681 92.8796 75.654 88.8878 75.654Z" fill="#484848"></path>
<path d="M130.946 90.1541C125.173 90.1541 119.969 88.8682 115.407 86.2965C103.788 79.7956 100.651 67.3653 100.509 66.8653C100.366 66.2223 100.723 65.6508 101.364 65.4365C102.006 65.2936 102.647 65.6508 102.79 66.2938C102.79 66.4366 105.855 78.2954 116.619 84.2962C124.246 88.5825 133.869 88.9397 145.274 85.4392C144.205 82.2959 140.285 73.0804 131.374 68.0083C124.246 64.0077 115.478 63.4362 105.285 66.4366C104.643 66.651 104.002 66.2938 103.859 65.6508C103.645 65.0079 104.002 64.3649 104.643 64.2221C115.478 61.0788 124.816 61.6503 132.586 66.008C144.276 72.5803 147.769 85.3678 147.912 85.9393L148.197 87.0108L147.128 87.368C141.211 89.2254 135.865 90.1541 130.946 90.1541Z" fill="#484848"></path>
<path d="M130.02 81.0097C128.096 81.0097 126.1 80.8668 124.175 80.5096C119.185 79.7238 114.124 77.8664 109.705 75.1518C106.711 73.3658 103.004 70.8655 100.794 67.365C100.723 67.2936 100.652 67.1507 100.652 67.0793C100.295 66.5078 100.509 65.7934 101.079 65.5076C101.65 65.1504 102.363 65.3648 102.648 65.9363C102.719 66.0077 102.719 66.0791 102.79 66.1506C104.786 69.2224 108.208 71.5084 110.988 73.1515C115.193 75.6519 119.898 77.4378 124.603 78.1522C129.022 78.8666 133.656 78.7237 138.004 77.6521C138.646 77.5092 139.287 77.8664 139.43 78.5094C139.572 79.1523 139.216 79.7953 138.574 79.9381C135.723 80.724 132.872 81.0097 130.02 81.0097Z" fill="#484848"></path>
<path d="M146.7 76.8668C146.273 76.8668 145.916 76.6524 145.702 76.2238C145.417 75.6523 145.631 74.9379 146.201 74.6522C148.197 73.5806 150.122 72.3662 151.975 70.9374C155.682 68.0799 159.246 64.5794 162.454 60.436C162.596 60.2217 162.739 60.0788 162.882 59.8645C163.095 59.5787 163.309 59.3644 163.523 59.0787C163.095 58.7215 162.668 58.3643 162.169 57.9356C152.831 50.2918 140.499 46.4341 129.307 47.5771C119.898 48.5772 111.843 52.8635 105.998 60.0788C105.57 60.5789 104.857 60.6503 104.358 60.2217C103.859 59.793 103.788 59.0787 104.216 58.5786C110.489 50.8633 119.043 46.2198 129.094 45.2197C140.927 44.0052 153.9 48.0772 163.666 56.0783C164.379 56.6498 165.02 57.2213 165.59 57.7213C165.804 57.9356 166.517 58.5786 166.089 59.3644C165.662 60.0074 165.234 60.6503 164.735 61.2218C164.592 61.3647 164.45 61.579 164.307 61.7219C160.957 66.0082 157.322 69.6515 153.401 72.6519C151.476 74.1521 149.409 75.438 147.271 76.581C147.057 76.7953 146.843 76.8668 146.7 76.8668Z" fill="#484848"></path>
<path d="M46.7622 90.1541C41.8436 90.1541 36.4262 89.2254 30.6522 87.368L29.583 87.0108L29.8681 85.9393C30.0107 85.3678 33.5036 72.6518 45.1939 66.008C52.8925 61.6503 62.3018 61.0788 73.1368 64.2221C73.7783 64.4364 74.1347 65.0793 73.9209 65.6508C73.707 66.2938 73.0655 66.651 72.4952 66.4366C62.3018 63.4362 53.534 64.0077 46.4057 68.0083C37.4241 73.0804 33.5748 82.3674 32.5056 85.4392C43.9108 88.9397 53.534 88.511 61.1613 84.2247C71.925 78.2239 74.9189 66.3652 74.9189 66.2938C75.0614 65.6508 75.703 65.2936 76.3445 65.4365C76.9861 65.5794 77.3425 66.2223 77.1999 66.8653C77.0573 67.3653 73.9209 79.7956 62.3018 86.2965C57.7397 88.8682 52.5361 90.1541 46.7622 90.1541Z" fill="#484848"></path>
<path d="M47.6896 81.0105C44.8383 81.0105 41.9869 80.6533 39.2782 80.0104C38.6367 79.8675 38.2802 79.2245 38.4228 78.5816C38.5654 77.9386 39.2069 77.5815 39.8485 77.7243C44.1254 78.7959 48.7588 78.9388 53.2496 78.2244C57.9543 77.4386 62.659 75.7241 66.8646 73.2237C69.6447 71.5807 73.0662 69.2232 75.0622 66.2228C75.1334 66.1514 75.1334 66.0799 75.2047 66.0085C75.5611 65.437 76.274 65.2941 76.7729 65.6513C77.3432 66.0085 77.4858 66.7229 77.1294 67.2229C77.0581 67.2944 76.9868 67.4372 76.9868 67.5087C74.7057 71.0091 70.999 73.5095 68.0764 75.2954C63.6569 77.9386 58.6671 79.796 53.606 80.6533C51.6101 80.8676 49.6142 81.0105 47.6896 81.0105Z" fill="#484848"></path>
<path d="M31.0793 76.866C30.8654 76.866 30.7229 76.7945 30.509 76.7231C28.3705 75.5801 26.3746 74.2942 24.3787 72.794C20.4581 69.7936 16.8227 66.1502 13.4724 61.864C13.3299 61.7211 13.1873 61.5068 13.0447 61.3639C12.5457 60.7924 12.118 60.1494 11.6904 59.5065C11.1914 58.6492 11.9042 58.0063 12.1181 57.8634C12.6883 57.2919 13.3299 56.7918 14.0427 56.2203C23.8797 48.2193 36.7819 44.1473 48.6148 45.3617C58.6657 46.3619 67.2909 51.0054 73.4925 58.7207C73.9202 59.2207 73.8489 59.9351 73.3499 60.3638C72.851 60.7924 72.1381 60.7209 71.7104 60.2209C65.9365 52.9342 57.8816 48.5765 48.4723 47.6478C37.2096 46.5048 24.9489 50.3624 15.6109 58.0063C15.1119 58.4349 14.6842 58.7921 14.2565 59.1493C14.4704 59.4351 14.6842 59.7208 14.8981 59.9351C15.0406 60.1494 15.1832 60.2923 15.3258 60.5066C18.5335 64.5786 22.0976 68.0791 25.8043 70.9366C27.6577 72.3654 29.5823 73.5798 31.5782 74.6514C32.1485 74.9371 32.3624 75.6515 32.0772 76.223C31.8634 76.5802 31.4357 76.866 31.0793 76.866Z" fill="#484848"></path>
<path d="M62.0878 115.087C62.3729 115.087 62.5868 114.944 62.7293 114.73L64.654 111.158L68.2181 109.158C68.432 109.015 68.5745 108.801 68.5745 108.515C68.5745 108.229 68.432 108.015 68.2181 107.872L64.654 105.943L62.6581 102.371C62.5155 102.157 62.3016 102.014 62.0165 102.014C61.7314 102.014 61.5175 102.157 61.375 102.371L59.4503 105.943L55.8862 107.944C55.6724 108.086 55.5298 108.301 55.5298 108.586C55.5298 108.872 55.6724 109.087 55.8862 109.229L59.4503 111.158L61.4463 114.73C61.5175 114.944 61.8027 115.087 62.0878 115.087Z" fill="#484848"></path>
<path d="M44.6232 105.515C44.7658 105.515 44.9084 105.443 44.9797 105.3L45.9776 103.514L47.7597 102.514C47.9022 102.443 47.9735 102.3 47.9735 102.157C47.9735 102.014 47.9022 101.871 47.7597 101.8L45.9776 100.8L44.9797 99.0139C44.9084 98.871 44.7658 98.7996 44.6232 98.7996C44.4807 98.7996 44.3381 98.871 44.2668 99.0139L43.2689 100.8L41.4868 101.8C41.3442 101.871 41.2729 102.014 41.2729 102.157C41.2729 102.3 41.3442 102.443 41.4868 102.514L43.2689 103.514L44.2668 105.3C44.3381 105.443 44.4807 105.515 44.6232 105.515Z" fill="#484848"></path>
<path d="M115.692 115.087C115.407 115.087 115.193 114.944 115.051 114.73L113.126 111.158L109.562 109.157C109.348 109.015 109.206 108.8 109.206 108.515C109.206 108.229 109.348 108.014 109.562 107.872L113.126 105.943L115.122 102.371C115.265 102.157 115.478 102.014 115.764 102.014C116.049 102.014 116.263 102.157 116.405 102.371L118.33 105.943L121.894 107.943C122.108 108.086 122.25 108.3 122.25 108.586C122.25 108.872 122.108 109.086 121.894 109.229L118.33 111.158L116.334 114.73C116.191 114.944 115.906 115.087 115.692 115.087Z" fill="#484848"></path>
<path d="M133.086 105.514C132.943 105.514 132.801 105.443 132.729 105.3L131.731 103.514L129.949 102.514C129.807 102.442 129.735 102.299 129.735 102.156C129.735 102.014 129.807 101.871 129.949 101.799L131.731 100.799L132.729 99.0131C132.801 98.8703 132.943 98.7988 133.086 98.7988C133.228 98.7988 133.371 98.8703 133.442 99.0131L134.44 100.799L136.222 101.799C136.365 101.871 136.436 102.014 136.436 102.156C136.436 102.299 136.365 102.442 136.222 102.514L134.44 103.514L133.442 105.3C133.371 105.443 133.228 105.514 133.086 105.514Z" fill="#484848"></path>
<path d="M16.4663 151.735C14.7555 151.735 13.6863 151.735 11.9042 151.735C11.6191 151.735 11.6191 151.735 11.6191 151.45C11.6191 149.235 11.6191 143.877 11.6191 143.877H5.13236C5.13236 143.877 5.13236 149.164 5.13236 151.45C5.13236 151.664 5.13236 151.735 4.91851 151.735C3.13644 151.735 1.92464 151.735 0.285131 151.735C0 151.735 0 151.735 0 151.45C0 144.091 0 139.448 0 132.59C0 132.304 0 132.304 0.285131 132.304C1.99592 132.304 3.13644 132.304 4.91851 132.304C5.13236 132.304 5.13236 132.304 5.13236 132.59C5.13236 134.805 5.13236 139.305 5.13236 139.305H11.6191C11.6191 139.305 11.6191 134.805 11.6191 132.59C11.6191 132.376 11.6191 132.304 11.9042 132.304C13.6863 132.304 14.8268 132.304 16.4663 132.304C16.7515 132.304 16.7515 132.304 16.7515 132.59C16.7515 139.162 16.7515 143.734 16.7515 151.45C16.7515 151.807 16.7515 151.735 16.4663 151.735Z" fill="#484848"></path>
<path d="M30.795 152.235C25.0211 152.235 20.6729 147.734 20.6729 142.091C20.6729 136.447 25.0211 131.946 30.795 131.946C36.5689 131.946 40.9172 136.518 40.9172 142.091C40.9172 147.663 36.5689 152.235 30.795 152.235ZM30.795 136.876C27.7298 136.876 26.0191 139.162 26.0191 142.162C26.0191 145.162 27.7298 147.377 30.795 147.377C33.7889 147.377 35.571 145.091 35.571 142.162C35.571 139.233 33.8602 136.876 30.795 136.876Z" fill="#484848"></path>
<path d="M61.0894 152.235C61.0181 152.235 60.9468 152.235 60.8043 152.163C56.5273 148.949 49.7554 142.734 49.7554 142.734V151.449C49.7554 151.735 49.7554 151.735 49.4703 151.735C47.6882 151.735 46.9041 151.735 45.1933 151.735C44.9795 151.735 44.9082 151.592 44.9082 151.449C44.7656 144.162 44.7656 139.59 44.9082 132.089C44.9082 131.946 44.9082 131.875 44.9795 131.875C45.0508 131.804 45.122 131.875 45.1933 131.875C49.2564 134.804 56.2422 141.305 56.2422 141.305V132.732C56.2422 132.447 56.2422 132.375 56.456 132.375C58.1668 132.375 59.0222 132.375 60.8043 132.375C61.0894 132.375 61.0894 132.447 61.0894 132.732C61.2319 138.304 61.1607 145.948 61.0894 151.878C61.1607 152.092 61.1607 152.235 61.0894 152.235Z" fill="#484848"></path>
<path d="M80.0506 151.735H67.0058C66.7207 151.735 66.7207 151.664 66.7207 151.307C66.7207 146.306 66.7207 138.091 66.7207 132.59C66.7207 132.304 66.7207 132.304 67.0058 132.304H79.8367C80.1219 132.304 80.1219 132.304 80.1219 132.661C80.1219 134.09 80.1219 134.947 80.1219 136.162C80.1219 136.448 80.0506 136.59 79.8367 136.59L71.7105 136.519V139.734H79.6942C79.9793 139.734 79.9793 139.805 79.9793 140.162C79.9793 141.591 79.9793 142.52 79.9793 143.663C79.9793 144.02 79.9793 144.091 79.6942 144.091H71.7105V147.378L80.0506 147.306C80.3357 147.306 80.3357 147.306 80.3357 147.663C80.3357 149.092 80.3357 150.164 80.3357 151.378C80.3357 151.664 80.3357 151.735 80.0506 151.735Z" fill="#484848"></path>
<path d="M95.1628 145.591V151.377C95.1628 151.734 95.1628 151.806 94.8777 151.806C93.1669 151.806 91.8125 151.806 90.173 151.806C90.0305 151.806 89.9592 151.806 89.9592 151.377V145.734C89.9592 145.734 85.8248 138.304 83.116 132.732C82.9022 132.375 82.9735 132.375 83.2586 132.375H88.1058C88.5335 132.375 88.6761 132.518 88.8187 132.803C89.9592 135.161 92.5966 141.09 92.5966 141.09C92.5966 141.09 95.2341 135.232 96.1608 132.875C96.3033 132.446 96.4459 132.375 96.731 132.375H100.937C101.507 132.375 101.65 132.446 101.364 133.089C98.7982 138.661 95.1628 145.591 95.1628 145.591Z" fill="#484848"></path>
<path d="M115.834 151.735C111.771 151.735 109.205 151.735 105.071 151.735C104.857 151.735 104.786 151.735 104.786 151.307C104.786 144.091 104.786 139.877 104.786 132.59C104.786 132.376 104.857 132.304 105.142 132.304C108.279 132.304 111.415 132.304 115.122 132.304C118.615 132.304 120.753 134.162 120.753 137.376C120.753 139.448 119.541 141.02 117.331 141.663C119.755 141.948 121.323 144.163 121.323 146.378C121.323 149.664 119.256 151.735 115.834 151.735ZM113.767 136.376H109.918V140.02H113.767C114.908 140.02 115.621 139.305 115.621 138.162C115.549 137.019 114.908 136.376 113.767 136.376ZM114.052 143.52H109.918V147.735H114.052C115.264 147.735 116.048 147.02 116.048 145.663C115.977 144.449 115.193 143.52 114.052 143.52Z" fill="#484848"></path>
<path d="M140.143 151.735H127.098C126.813 151.735 126.813 151.664 126.813 151.307C126.813 146.306 126.813 138.091 126.813 132.59C126.813 132.304 126.813 132.304 127.098 132.304H140C140.285 132.304 140.285 132.304 140.285 132.661C140.285 134.09 140.285 134.947 140.285 136.162C140.285 136.448 140.214 136.59 140 136.59L131.874 136.519V139.734H139.715C140 139.734 140 139.805 140 140.162C140 141.591 140 142.52 140 143.663C140 144.02 140 144.091 139.715 144.091H131.732V147.378L140.072 147.306C140.357 147.306 140.357 147.306 140.357 147.663C140.357 149.092 140.357 150.164 140.357 151.378C140.428 151.664 140.428 151.735 140.143 151.735Z" fill="#484848"></path>
<path d="M159.174 151.735H146.129C145.844 151.735 145.844 151.664 145.844 151.307C145.844 146.306 145.844 138.091 145.844 132.59C145.844 132.304 145.844 132.304 146.129 132.304H158.96C159.245 132.304 159.245 132.304 159.245 132.661C159.245 134.09 159.245 134.947 159.245 136.162C159.245 136.448 159.174 136.59 158.96 136.59L150.834 136.519V139.734H158.817C159.102 139.734 159.102 139.805 159.102 140.162C159.102 141.591 159.102 142.52 159.102 143.663C159.102 144.02 159.102 144.091 158.817 144.091H150.834V147.378L159.174 147.306C159.459 147.306 159.459 147.306 159.459 147.663C159.459 149.092 159.459 150.164 159.459 151.378C159.53 151.664 159.459 151.735 159.174 151.735Z" fill="#484848"></path>
<path d="M171.078 152.235C167.229 152.235 164.806 150.663 163.808 147.877C163.665 147.591 163.736 147.448 163.95 147.305L167.443 145.877C167.728 145.805 167.728 145.805 167.728 146.02C168.085 147.091 169.368 148.306 171.15 148.306C173.146 148.306 174.001 147.734 174.001 146.377C174.001 145.234 173.146 144.448 170.579 144.162C170.366 144.162 170.08 144.091 169.867 144.091C166.445 143.734 164.021 141.805 164.021 138.233C164.021 134.518 166.588 131.946 171.577 131.946C175.355 131.946 177.708 133.732 178.421 136.161C178.492 136.447 178.421 136.59 178.207 136.661L174.856 138.019C174.643 138.09 174.571 138.019 174.5 137.876C174.072 136.733 172.789 135.59 171.292 135.59C169.296 135.59 168.655 136.304 168.655 137.376C168.655 138.661 169.724 139.233 172.29 139.662C172.575 139.662 172.86 139.733 173.217 139.804C176.852 140.305 178.991 142.233 178.991 145.805C179.205 150.306 175.569 152.235 171.078 152.235Z" fill="#484848"></path>
<path d="M4.27746 167.737C3.92105 167.809 2.42411 167.809 2.42411 167.809C2.42411 167.809 2.42411 168.88 2.42411 169.88C2.42411 169.952 2.42411 170.023 2.28154 170.023C1.49743 170.023 0.927171 170.023 0.214343 170.023C0.0717774 170.023 0.0717773 170.023 0.0717773 169.88C0.0717773 166.523 0.0717773 164.38 0.0717773 161.308C0.0717773 161.165 0.14306 161.165 0.214343 161.165H4.1349C6.05953 161.165 7.20006 162.522 7.20006 164.522C7.12877 166.737 5.91697 167.594 4.27746 167.737ZM3.49335 163.165H2.42411V165.951L3.49335 165.88C4.42003 165.808 4.77644 165.237 4.77644 164.522C4.77644 163.665 4.27746 163.165 3.49335 163.165Z" fill="#484848"></path>
<path d="M18.1771 170.023H15.896C15.8247 170.023 15.7534 170.023 15.6109 169.738C15.1832 168.88 14.2565 167.38 14.2565 167.38H12.7596C12.7596 167.38 12.7596 168.809 12.7596 169.809C12.7596 169.88 12.7596 169.952 12.6883 169.952C11.8329 169.952 11.3339 169.952 10.5498 169.952C10.4785 169.952 10.4785 169.952 10.4785 169.809C10.4785 166.451 10.4785 164.308 10.4785 161.236C10.4785 161.094 10.5498 161.094 10.5498 161.094H14.5416C16.5376 161.094 17.6068 162.451 17.6068 164.094C17.6068 165.308 17.1791 166.166 16.395 166.523C16.7514 167.023 17.4642 168.38 18.2483 169.595C18.3909 169.952 18.3196 170.023 18.1771 170.023ZM14.0427 163.165H12.7596V165.737L14.0427 165.666C14.7555 165.666 15.1119 165.094 15.1119 164.38C15.1832 163.665 14.8268 163.165 14.0427 163.165Z" fill="#484848"></path>
<path d="M27.4448 170.023H21.5283C21.3857 170.023 21.3857 170.023 21.3857 169.809C21.3857 167.523 21.3857 163.808 21.3857 161.308C21.3857 161.165 21.3857 161.165 21.5283 161.165H27.3735C27.5161 161.165 27.5161 161.165 27.5161 161.308C27.5161 161.951 27.5161 162.308 27.5161 162.879C27.5161 163.022 27.4448 163.094 27.3735 163.094L23.6668 163.022V164.522H27.3022C27.4448 164.522 27.4448 164.522 27.4448 164.737C27.4448 165.38 27.4448 165.808 27.4448 166.308C27.4448 166.451 27.4448 166.523 27.3022 166.523H23.6668V168.023L27.4448 167.951C27.5873 167.951 27.5873 167.951 27.5873 168.094C27.5873 168.737 27.5873 169.237 27.5873 169.737C27.5873 170.023 27.5873 170.023 27.4448 170.023Z" fill="#484848"></path>
<path d="M33.7169 170.238C31.9349 170.238 30.8656 169.523 30.4379 168.237C30.3667 168.094 30.3667 168.023 30.5092 168.023L32.0774 167.38C32.22 167.309 32.22 167.309 32.22 167.451C32.3626 167.952 33.0041 168.523 33.7882 168.523C34.7149 168.523 35.0713 168.237 35.0713 167.666C35.0713 167.166 34.7149 166.809 33.5031 166.666C33.4318 166.666 33.2892 166.666 33.218 166.594C31.6497 166.451 30.5805 165.523 30.5805 163.951C30.5805 162.237 31.721 161.094 34.0021 161.094C35.7129 161.094 36.7821 161.879 37.1385 163.022C37.2098 163.165 37.1385 163.237 37.0672 163.237L35.5703 163.88C35.499 163.951 35.4277 163.88 35.4277 163.808C35.2139 163.308 34.6436 162.808 34.0021 162.808C33.0754 162.808 32.7903 163.165 32.7903 163.594C32.7903 164.165 33.2892 164.451 34.4298 164.665C34.5723 164.665 34.7149 164.737 34.8575 164.737C36.497 164.951 37.4949 165.88 37.4949 167.451C37.4236 169.38 35.7841 170.238 33.7169 170.238Z" fill="#484848"></path>
<path d="M44.9786 170.237C42.1986 170.237 40.3452 168.166 40.3452 165.665C40.3452 163.022 42.3411 161.022 44.9073 161.022C47.0458 161.022 48.3289 162.165 48.9704 163.522C49.0417 163.665 48.9704 163.736 48.8991 163.736L46.9745 164.522C46.9032 164.522 46.9032 164.522 46.8319 164.451C46.4755 163.665 45.834 163.236 44.9073 163.236C43.6242 163.236 42.7688 164.236 42.7688 165.665C42.7688 167.308 43.8381 168.023 44.9073 168.023C45.7627 168.023 46.4043 167.594 46.6894 166.951C46.7607 166.88 46.7607 166.808 46.8319 166.88L48.7566 167.38C48.8991 167.38 48.8991 167.451 48.8991 167.523C48.4715 168.951 46.9745 170.237 44.9786 170.237Z" fill="#484848"></path>
<path d="M59.5926 170.023C58.8085 170.023 58.3095 170.023 57.5254 170.023C57.3828 170.023 57.3828 170.023 57.3828 169.88C57.3828 168.88 57.3828 166.451 57.3828 166.451H54.4602C54.4602 166.451 54.4602 168.88 54.4602 169.88C54.4602 169.952 54.4602 170.023 54.389 170.023C53.6049 170.023 53.0346 170.023 52.2505 170.023C52.1079 170.023 52.1079 170.023 52.1079 169.88C52.1079 166.523 52.1079 164.38 52.1079 161.308C52.1079 161.165 52.1079 161.165 52.2505 161.165C53.0346 161.165 53.5336 161.165 54.389 161.165C54.4602 161.165 54.4602 161.165 54.4602 161.308C54.4602 162.308 54.4602 164.38 54.4602 164.38H57.3828C57.3828 164.38 57.3828 162.308 57.3828 161.308C57.3828 161.236 57.3828 161.165 57.5254 161.165C58.3095 161.165 58.8798 161.165 59.5926 161.165C59.7352 161.165 59.7352 161.165 59.7352 161.308C59.7352 164.308 59.7352 166.38 59.7352 169.88C59.7352 170.023 59.7352 170.023 59.5926 170.023Z" fill="#484848"></path>
<path d="M67.7901 170.237C65.1527 170.237 63.1567 168.166 63.1567 165.665C63.1567 163.165 65.1527 161.022 67.7901 161.022C70.4276 161.022 72.4235 163.093 72.4235 165.665C72.4235 168.237 70.4276 170.237 67.7901 170.237ZM67.7901 163.236C66.3645 163.236 65.5804 164.308 65.5804 165.594C65.5804 166.951 66.3645 167.951 67.7901 167.951C69.1445 167.951 69.9999 166.88 69.9999 165.594C69.9999 164.308 69.1445 163.236 67.7901 163.236Z" fill="#484848"></path>
<path d="M80.0509 170.237C77.4134 170.237 75.4175 168.166 75.4175 165.665C75.4175 163.165 77.4134 161.022 80.0509 161.022C82.6883 161.022 84.6842 163.093 84.6842 165.665C84.6842 168.237 82.617 170.237 80.0509 170.237ZM80.0509 163.236C78.6252 163.236 77.8411 164.308 77.8411 165.594C77.8411 166.951 78.6252 167.951 80.0509 167.951C81.4052 167.951 82.2606 166.88 82.2606 165.594C82.1893 164.308 81.4052 163.236 80.0509 163.236Z" fill="#484848"></path>
<path d="M93.666 170.023C92.8819 170.023 88.9613 170.023 88.1772 170.023C88.0347 170.023 88.0347 170.023 88.0347 169.88C88.0347 166.523 88.0347 164.38 88.0347 161.308C88.0347 161.165 88.0347 161.165 88.1772 161.165C88.9613 161.165 89.4603 161.165 90.2444 161.165C90.3157 161.165 90.387 161.165 90.387 161.308C90.387 162.665 90.387 167.951 90.387 167.951L93.666 167.88C93.7373 167.88 93.8086 167.88 93.8086 168.023C93.8086 168.523 93.8086 168.88 93.8086 169.88C93.8086 170.023 93.8086 170.023 93.666 170.023Z" fill="#484848"></path>
<path d="M107.139 170.023C106.355 170.023 102.434 170.023 101.65 170.023C101.508 170.023 101.508 170.023 101.508 169.88C101.508 166.523 101.508 164.38 101.508 161.308C101.508 161.165 101.508 161.165 101.65 161.165C102.434 161.165 102.933 161.165 103.718 161.165C103.789 161.165 103.86 161.165 103.86 161.308C103.86 162.665 103.86 167.951 103.86 167.951L107.139 167.88C107.21 167.88 107.282 167.88 107.282 168.023C107.282 168.523 107.282 168.88 107.282 169.88C107.282 170.023 107.282 170.023 107.139 170.023Z" fill="#484848"></path>
<path d="M116.334 170.023H110.417C110.275 170.023 110.275 170.023 110.275 169.809C110.275 167.523 110.275 163.808 110.275 161.308C110.275 161.165 110.275 161.165 110.417 161.165H116.263C116.405 161.165 116.405 161.165 116.405 161.308C116.405 161.951 116.405 162.308 116.405 162.879C116.405 163.022 116.334 163.094 116.263 163.094L112.556 163.022V164.522H116.191C116.334 164.522 116.334 164.522 116.334 164.737C116.334 165.38 116.334 165.808 116.334 166.308C116.334 166.451 116.334 166.523 116.191 166.523H112.556V168.023L116.334 167.951C116.477 167.951 116.477 167.951 116.477 168.094C116.477 168.737 116.477 169.237 116.477 169.737C116.477 170.023 116.477 170.023 116.334 170.023Z" fill="#484848"></path>
<path d="M127.954 170.023C127.312 170.023 126.528 170.023 125.53 170.023C125.459 170.023 125.387 170.023 125.387 169.951C125.245 169.594 125.031 169.094 124.888 168.808H121.752C121.609 169.166 121.396 169.594 121.324 169.951C121.253 170.023 121.253 170.094 121.11 170.094C120.255 170.094 119.827 170.094 118.972 170.094C118.901 170.094 118.829 170.023 118.901 169.88C120.255 167.022 122.322 162.879 123.32 160.95C123.32 160.95 123.391 160.95 123.463 160.95C123.534 160.95 123.605 160.95 123.605 160.95C124.817 163.236 126.599 167.022 128.025 169.88C128.096 170.023 128.096 170.023 127.954 170.023ZM123.32 165.094L122.465 167.094H124.247L123.32 165.094Z" fill="#484848"></path>
<path d="M138.717 170.023H136.436C136.365 170.023 136.293 170.023 136.151 169.738C135.723 168.88 134.797 167.38 134.797 167.38H133.3C133.3 167.38 133.3 168.809 133.3 169.809C133.3 169.88 133.3 169.952 133.228 169.952C132.373 169.952 131.874 169.952 131.09 169.952C131.019 169.952 131.019 169.952 131.019 169.809C131.019 166.451 131.019 164.308 131.019 161.236C131.019 161.094 131.09 161.094 131.09 161.094H135.082C137.078 161.094 138.147 162.451 138.147 164.094C138.147 165.308 137.719 166.166 136.935 166.523C137.291 167.023 138.004 168.38 138.788 169.595C138.931 169.952 138.86 170.023 138.717 170.023ZM134.583 163.165H133.3V165.737L134.583 165.666C135.296 165.666 135.652 165.094 135.652 164.38C135.652 163.665 135.367 163.165 134.583 163.165Z" fill="#484848"></path>
<path d="M149.266 170.237C149.266 170.237 149.195 170.237 149.124 170.166C147.199 168.666 144.134 165.88 144.134 165.88V169.88C144.134 170.023 144.134 170.023 143.991 170.023C143.207 170.023 142.779 170.023 142.067 170.023C141.995 170.023 141.924 169.952 141.924 169.88C141.853 166.594 141.853 164.522 141.924 161.093C141.924 161.022 141.924 161.022 141.995 161.022H142.067C143.92 162.379 147.128 165.308 147.128 165.308V161.379C147.128 161.236 147.128 161.236 147.199 161.236C147.983 161.236 148.34 161.236 149.195 161.236C149.337 161.236 149.337 161.236 149.337 161.379C149.409 163.879 149.409 167.38 149.337 170.094C149.337 170.166 149.337 170.237 149.266 170.237Z" fill="#484848"></path>
<path d="M155.468 170.023C154.613 170.023 154.114 170.023 153.33 170.023C153.187 170.023 153.187 170.023 153.187 169.88C153.187 166.523 153.187 164.38 153.187 161.308C153.187 161.165 153.187 161.165 153.33 161.165C154.114 161.165 154.613 161.165 155.468 161.165C155.611 161.165 155.611 161.165 155.611 161.308C155.611 163.308 155.611 167.809 155.611 169.88C155.611 170.023 155.611 170.023 155.468 170.023Z" fill="#484848"></path>
<path d="M166.873 170.237C166.873 170.237 166.802 170.237 166.731 170.166C164.806 168.666 161.741 165.88 161.741 165.88V169.88C161.741 170.023 161.741 170.023 161.598 170.023C160.814 170.023 160.386 170.023 159.674 170.023C159.602 170.023 159.531 169.952 159.531 169.88C159.46 166.594 159.46 164.522 159.531 161.093C159.531 161.022 159.531 161.022 159.602 161.022H159.674C161.527 162.379 164.735 165.308 164.735 165.308V161.379C164.735 161.236 164.735 161.236 164.806 161.236C165.59 161.236 165.946 161.236 166.802 161.236C166.944 161.236 166.944 161.236 166.944 161.379C167.016 163.879 167.016 167.38 166.944 170.094C166.944 170.166 166.944 170.237 166.873 170.237Z" fill="#484848"></path>
<path d="M178.848 170.237C178.777 170.237 178.777 170.237 178.705 170.166L177.28 169.308C176.781 169.809 176.21 170.166 174.927 170.166C172.147 170.166 170.365 168.308 170.365 165.594C170.365 162.808 172.361 160.95 174.999 160.95C177.066 160.95 178.278 162.022 178.919 163.308C178.99 163.451 178.99 163.522 178.919 163.522L176.995 164.236C176.923 164.308 176.852 164.236 176.781 164.165C176.496 163.593 175.925 163.165 175.07 163.165C173.644 163.165 172.86 164.165 172.86 165.522C172.86 167.022 173.716 167.88 174.999 167.88C176.139 167.88 176.709 167.165 176.852 166.237C176.852 166.165 176.923 166.094 176.923 166.094H178.848C178.919 166.094 178.919 166.094 178.919 166.165C178.919 167.38 178.919 168.737 178.919 170.023C178.99 170.166 178.99 170.237 178.848 170.237Z" fill="#484848"></path>
</svg>