<svg width="102" height="63" viewBox="0 0 102 63" fill="none" xmlns="http://www.w3.org/2000/svg" style="filter: grayscale(1);">
<path d="M8.75717 16.3457C8.90805 16.4185 9.01859 16.4256 9.14304 16.4567L8.75717 16.3457Z" fill="#EC1C24"/>
<path d="M11.3066 7.46427L11.8709 8.06895C13.1445 6.84945 13.2656 6.47415 14.5918 5.52954C14.4472 4.90685 14.8262 4.30227 14.1689 3.66211C12.6543 4.14622 12.0879 6.13196 11.1185 7.26281L11.2629 7.31663L11.3066 7.46427Z" fill="#EC1C24"/>
<path d="M11.0131 7.45303L11.1169 7.26172C10.2604 7.46436 9.82926 8.69637 9.49829 8.96102C9.91414 8.96706 9.71624 9.29566 10.0625 9.56549C10.6421 9.01936 11.4751 8.95175 11.7691 8.16157C11.4132 8.15812 11.6116 7.82919 11.2046 7.55678L11.0131 7.45303Z" fill="#EC1C24"/>
<path d="M9.82845 5.0767C10.6074 4.8719 10.994 3.90896 11.0579 3.36392C11.8757 2.96608 11.8999 2.05555 12.0052 1.34852C11.8562 0.892127 10.9815 1.17932 11.4409 0.743948C10.79 0.609143 9.95603 1.93379 10.4063 2.46374C9.5046 3.37513 8.75023 4.29213 9.62657 5.2651L9.68049 5.12059L9.82845 5.0767Z" fill="#EC1C24"/>
<path d="M9.32689 5.44376L9.52479 5.35317C9.33929 5.08938 9.14766 4.98132 8.95397 4.94336C7.91478 5.52507 7.67882 6.3724 8.09423 7.25425C8.70733 7.44071 9.85716 6.22627 9.51853 5.54815L9.32689 5.44376Z" fill="#EC1C24"/>
<path d="M6.97974 0C6.19378 0.0431377 6.36244 0.950216 6.15366 1.33695C6.53402 1.61346 6.93143 1.39745 7.31568 1.57205C8.06369 0.974696 7.26704 0.0944716 6.97974 0Z" fill="#EC1C24"/>
<path d="M6.35497 3.97914C7.12972 3.7587 7.61286 2.22785 6.71765 1.94336C5.81887 2.21189 5.57612 3.75061 6.05915 4.06638L6.16365 3.87474L6.35497 3.97914Z" fill="#EC1C24"/>
<path d="M5.94832 4.45603L5.85751 4.25781C4.94386 4.54123 4.88864 5.46319 5.30664 6.09203C5.43983 5.99809 5.5631 6.19653 5.68981 6.30049C6.2217 5.92864 6.18892 5.53739 6.50889 5.15799C6.52895 4.89873 6.12669 4.62492 6.14653 4.36577L5.94832 4.45603Z" fill="#EC1C24"/>
<path d="M0.684236 1.5332C-0.00132957 2.15978 -0.056438 2.80814 0.0327491 3.46135C1.53103 4.62488 0.657059 5.99925 2.16925 6.55864C2.31948 6.14085 2.08556 5.71012 2.3102 5.29503C1.93814 4.76206 1.61019 4.27611 1.49727 3.41455C1.38113 2.5285 1.83979 1.71826 0.684236 1.5332Z" fill="#EC1C24"/>
<path d="M8.93998 16.6494C10.065 16.9553 10.9683 18.8039 12.2929 18.4228L12.7966 17.9527C12.5326 16.46 11.5292 16.4122 10.5121 16.3139C9.95479 16.2596 9.41331 16.3115 8.95367 16.2598L9.14175 16.4611L8.93998 16.6494Z" fill="#EC1C24"/>
<path d="M8.75752 16.3492L8.95541 16.2588C8.79073 15.5475 8.21538 15.8076 7.92065 15.1502C7.75467 14.7799 8.41608 14.4542 8.0685 13.6927C7.78174 13.3638 6.98176 13.3798 7.01389 13.1686C8.0905 13.4687 8.11865 12.3183 7.75284 11.5359C8.56523 12.0397 9.48859 10.7969 9.8489 10.1453C7.79576 7.58482 5.9031 6.41708 3.40618 7.48507C2.82857 7.27002 2.25969 6.79562 1.65975 7.22969C1.40588 7.80849 0.944311 8.67038 1.40448 8.97634C0.53914 9.71874 -0.475566 12.7482 0.262304 13.8134C0.557905 14.2406 1.40276 14.523 1.98188 14.8479C2.58052 15.1835 2.80667 15.6436 3.3927 16.3595C4.58049 16.6341 6.07716 17.1858 7.00731 16.1919L6.9164 15.9933L7.10815 16.0976C7.34001 15.8884 8.10182 16.236 7.49078 16.3058L7.58158 16.5038L7.38326 16.5947C7.41065 16.9141 8.28441 16.7413 8.65312 16.5411L8.75752 16.3492ZM5.67705 12.3423C5.97988 12.0407 6.2785 11.8661 6.57033 11.8854C6.29835 12.2314 6.04513 12.0358 5.7712 12.443L5.66703 12.6344L5.57611 12.4364C5.3958 12.6232 4.72684 12.9984 4.88451 12.7048C5.08866 12.4373 5.27501 12.6847 5.48197 12.3355L5.58625 12.1434L5.67705 12.3423Z" fill="#EC1C24"/>
<path d="M11.0137 7.45781C11.1063 7.42276 11.1846 7.37143 11.262 7.32031L11.0137 7.45781Z" fill="#EC1C24"/>
<path d="M9.67989 5.11719C9.69024 5.13876 9.70081 5.16011 9.71073 5.18179C9.69585 5.36124 9.49472 5.43306 9.32713 5.44633" fill="#EC1C24"/>
<path d="M5.94815 4.44871C6.08975 4.26225 6.14356 4.05734 6.16319 3.87109L5.94815 4.44871Z" fill="#EC1C24"/>
<path d="M6.91515 15.9922C7.09784 16.2096 7.30231 16.415 7.58033 16.5026L6.91515 15.9922Z" fill="#EC1C24"/>
<path d="M5.58487 12.1445C5.61431 12.3061 5.65011 12.4615 5.66553 12.6353L5.58487 12.1445Z" fill="#EC1C24"/>
<path d="M95.4277 21.4961C95.5786 21.5689 95.6891 21.576 95.8135 21.6071L95.4277 21.4961Z" fill="#EC1C24"/>
<path d="M97.9764 12.601L98.5409 13.2057C99.8144 11.9862 99.9354 11.6109 101.262 10.6663C101.117 10.0436 101.496 9.4391 100.839 8.79883C99.3241 9.28305 98.7577 11.2687 97.7884 12.3995L97.9328 12.4533L97.9764 12.601Z" fill="#EC1C24"/>
<path d="M97.6848 12.5996L97.7886 12.4082C96.9321 12.611 96.5009 13.8429 96.17 14.1075C96.5858 14.1135 96.3879 14.4423 96.7342 14.712C97.3138 14.166 98.1467 14.0982 98.4407 13.3081C98.0849 13.3047 98.2833 12.9758 97.8762 12.7034L97.6848 12.5996Z" fill="#EC1C24"/>
<path d="M96.499 10.2154C97.2779 10.0107 97.6646 9.04763 97.7284 8.50259C98.5462 8.10475 98.5704 7.19422 98.6758 6.4872C98.5269 6.0308 97.652 6.31799 98.1114 5.88262C97.4605 5.74782 96.6266 7.07246 97.0768 7.60241C96.1751 8.5138 95.4208 9.4308 96.2971 10.4038L96.3511 10.2593L96.499 10.2154Z" fill="#EC1C24"/>
<path d="M95.9968 10.5923L96.1948 10.5017C96.0091 10.2378 95.8176 10.1299 95.6239 10.0918C94.5847 10.6735 94.3489 11.5209 94.7641 12.4028C95.3773 12.5893 96.5271 11.3748 96.1885 10.6967L95.9968 10.5923Z" fill="#EC1C24"/>
<path d="M93.6508 5.14453C92.8649 5.18767 93.0335 6.09475 92.8248 6.48148C93.2051 6.75799 93.6025 6.54198 93.9868 6.71658C94.7349 6.11923 93.9381 5.239 93.6508 5.14453Z" fill="#EC1C24"/>
<path d="M93.0249 9.11976C93.7997 8.89943 94.2829 7.36848 93.3876 7.08398C92.4888 7.35252 92.246 8.89124 92.7292 9.20701L92.8336 9.01548L93.0249 9.11987V9.11976Z" fill="#EC1C24"/>
<path d="M92.6188 9.58689L92.5279 9.38867C91.6144 9.67209 91.5592 10.594 91.9772 11.2229C92.1104 11.129 92.2336 11.3274 92.3603 11.4314C92.8921 11.0595 92.8594 10.6684 93.1793 10.2888C93.1995 10.0296 92.7972 9.75577 92.8171 9.49662L92.6188 9.58689Z" fill="#EC1C24"/>
<path d="M87.3548 6.68164C86.6692 7.30832 86.6141 7.95658 86.7033 8.60979C88.2016 9.77332 87.3275 11.1477 88.8398 11.7071C88.9899 11.2893 88.7561 10.8586 88.9807 10.4435C88.6087 9.9105 88.2807 9.42455 88.1678 8.56298C88.0517 7.67704 88.5103 6.8667 87.3548 6.68164Z" fill="#EC1C24"/>
<path d="M95.6117 21.7822C96.7367 22.0881 97.64 23.9368 98.9645 23.5556L99.4683 23.0855C99.2043 21.5928 98.2009 21.545 97.1838 21.4467C96.6265 21.3924 96.085 21.4443 95.6254 21.3926L95.8133 21.5939L95.6117 21.7822Z" fill="#EC1C24"/>
<path d="M95.4274 21.4859L95.6253 21.3957C95.4606 20.6842 94.8853 20.9443 94.5905 20.2869C94.4246 19.9166 95.086 19.5909 94.7383 18.8294C94.4516 18.5005 93.6516 18.5166 93.6837 18.3053C94.7604 18.6054 94.7885 17.455 94.4227 16.6726C95.2352 17.1764 96.1584 15.9336 96.5188 15.282C94.4657 12.7215 92.573 11.5538 90.0761 12.6218C89.4985 12.4067 88.9296 11.9323 88.3296 12.3664C88.0758 12.9452 87.6142 13.8072 88.0744 14.1131C87.209 14.8555 86.1944 17.8849 86.9322 18.9501C87.2279 19.3774 88.0728 19.6597 88.6518 19.9846C89.2504 20.3202 89.4766 20.7803 90.0626 21.4962C91.2505 21.7709 92.747 22.3225 93.6772 21.3286L93.5863 21.13L93.778 21.2343C94.0098 21.0252 94.7718 21.3727 94.1607 21.4425L94.2516 21.6405L94.0532 21.7314C94.0805 22.0508 94.9543 21.8781 95.3229 21.6778L95.4274 21.4859ZM92.3471 17.479C92.6498 17.1774 92.9484 17.0028 93.2402 17.0222C92.9682 17.3681 92.715 17.1725 92.4411 17.5797L92.3369 17.7711L92.246 17.5731C92.0657 17.7599 91.3966 18.1351 91.5544 17.8416C91.7586 17.574 91.945 17.8214 92.1519 17.4722L92.2561 17.2802L92.3471 17.479Z" fill="#EC1C24"/>
<path d="M97.6854 12.5946C97.778 12.5596 97.8563 12.5083 97.9337 12.457L97.6854 12.5946Z" fill="#EC1C24"/>
<path d="M96.351 10.248C96.3614 10.2696 96.3719 10.291 96.3818 10.3126C96.367 10.4921 96.1658 10.5639 95.9982 10.5772" fill="#EC1C24"/>
<path d="M92.6187 9.59715C92.7602 9.41079 92.8141 9.20578 92.8336 9.01953L92.6187 9.59715Z" fill="#EC1C24"/>
<path d="M93.5851 21.1328C93.7678 21.3502 93.9724 21.5557 94.2504 21.6431L93.5851 21.1328Z" fill="#EC1C24"/>
<path d="M92.256 17.2812C92.2854 17.4428 92.3212 17.5982 92.3365 17.772L92.256 17.2812Z" fill="#EC1C24"/>
<path d="M36.6987 7.12315C36.6097 6.98123 36.5904 6.87209 36.5459 6.75195L36.6987 7.12315Z" fill="#0088CF"/>
<path d="M45.249 3.61649L44.5858 3.12214C45.6575 1.7221 46.0173 1.56034 46.8101 0.138087C47.4447 0.213147 48.0039 -0.230094 48.7127 0.352805C48.3982 1.91148 46.4871 2.69313 45.4698 3.78117L45.4004 3.64356L45.249 3.61649Z" fill="#0088CF"/>
<path d="M45.29 3.90179L45.4687 3.77744C45.3616 4.6512 44.1847 5.21533 43.958 5.57348C43.9062 5.16087 43.6014 5.3937 43.2951 5.07934C43.774 4.44316 43.7495 3.6077 44.5025 3.22852C44.5451 3.58181 44.8502 3.34844 45.1658 3.72287L45.29 3.90179Z" fill="#0088CF"/>
<path d="M47.7886 4.81252C47.9063 4.01577 48.8208 3.5254 49.3555 3.40181C49.6608 2.54521 50.5632 2.42075 51.2543 2.23828C51.7243 2.33599 51.5352 3.23703 51.9173 2.73253C52.123 3.36461 50.8983 4.33952 50.322 3.95031C49.5155 4.9469 48.6873 5.79779 47.6236 5.03393L47.7613 4.96437L47.7886 4.81252Z" fill="#0088CF"/>
<path d="M47.4717 5.36238L47.5399 5.15564C47.8225 5.31104 47.9511 5.48963 48.0102 5.67793C47.5464 6.77481 46.7303 7.10277 45.8081 6.787C45.5552 6.19817 46.6356 4.92162 47.3468 5.18335L47.4717 5.36238Z" fill="#0088CF"/>
<path d="M53.143 7.09301C53.1866 7.87898 52.2665 7.81114 51.905 8.06134C51.5883 7.71365 51.7593 7.295 51.5434 6.93221C52.0547 6.12295 53.0173 6.8179 53.143 7.09301Z" fill="#0088CF"/>
<path d="M49.2583 8.1533C49.3921 7.35902 50.8604 6.71012 51.2417 7.56856C51.0738 8.49149 49.5712 8.90216 49.2042 8.45688L49.3831 8.33199L49.2583 8.1533Z" fill="#0088CF"/>
<path d="M48.8334 8.60528L49.0403 8.67376C48.8594 9.61297 47.9491 9.76946 47.2781 9.42328C47.3567 9.28049 47.1458 9.17987 47.0286 9.06545C47.3396 8.49582 47.7321 8.48525 48.074 8.12548C48.3293 8.07706 48.6459 8.44653 48.9013 8.39833L48.8334 8.60528Z" fill="#0088CF"/>
<path d="M52.3075 13.5123C51.7602 14.2627 51.1219 14.3888 50.4631 14.3722C49.1414 13.0112 47.8717 14.0313 47.1491 12.59C47.5478 12.3947 48.0016 12.5796 48.3894 12.3105C48.9603 12.6217 49.4793 12.8941 50.348 12.9115C51.2415 12.9292 51.9963 12.3841 52.3075 13.5123Z" fill="#0088CF"/>
<path d="M36.3813 6.97657C35.9532 5.89209 34.0164 5.198 34.2493 3.83949L34.6611 3.28711C36.1737 3.38492 36.3318 4.37698 36.5415 5.37702C36.6569 5.92498 36.6649 6.46895 36.7671 6.92006L36.5462 6.75538L36.3813 6.97657Z" fill="#0088CF"/>
<path d="M36.6978 7.12564L36.7658 6.9189C37.491 7.00431 37.2958 7.60479 37.9817 7.82533C38.3681 7.94957 38.619 7.25613 39.4141 7.51787C39.7726 7.76656 39.8447 8.56353 40.0512 8.50831C39.6343 7.47128 40.7746 7.31652 41.5926 7.59401C41.0024 6.8419 42.1358 5.7874 42.7438 5.35742C45.5147 7.11604 46.8839 8.86851 46.0976 11.4679C46.3749 12.0182 46.9092 12.5314 46.5438 13.1756C45.9965 13.4916 45.1906 14.0454 44.8359 13.6216C44.1933 14.5635 41.2941 15.9058 40.1541 15.2898C39.6969 15.043 39.3232 14.2344 38.9365 13.6946C38.5369 13.1367 38.0547 12.9625 37.2787 12.459C36.8748 11.3086 36.1616 9.88181 37.047 8.84791L37.2544 8.91628L37.1295 8.73726C37.3119 8.48383 36.8827 7.76483 36.8805 8.37987L36.6738 8.31139L36.6052 8.51855C36.2847 8.52653 36.3602 7.63908 36.5186 7.25063L36.6978 7.12564ZM41.0198 9.74593C41.2861 9.41172 41.4268 9.09574 41.3754 8.80779C41.0614 9.11623 41.2838 9.34637 40.9093 9.66354L40.7306 9.7881L40.9373 9.85658C40.7715 10.0564 40.4724 10.7627 40.7467 10.5736C40.9901 10.3411 40.7238 10.1831 41.0479 9.93908L41.2273 9.8143L41.0198 9.74593Z" fill="#0088CF"/>
<path d="M45.2902 3.90052C45.3148 3.80454 45.3572 3.72117 45.3996 3.63867L45.2902 3.90052Z" fill="#0088CF"/>
<path d="M47.7609 4.97078C47.7383 4.9628 47.7159 4.95471 47.6933 4.94727C47.5165 4.98188 47.4673 5.18959 47.4726 5.35762" fill="#0088CF"/>
<path d="M48.834 8.6016C49.0036 8.44037 49.2014 8.36434 49.3844 8.32422L48.834 8.6016Z" fill="#0088CF"/>
<path d="M37.2552 8.90958C37.019 8.75202 36.7922 8.57128 36.6745 8.30469L37.2552 8.90958Z" fill="#0088CF"/>
<path d="M41.2272 9.80983C41.0634 9.79829 40.905 9.77985 40.7306 9.78373L41.2272 9.80983Z" fill="#0088CF"/>
<path d="M74.569 9.47667C74.48 9.33474 74.4607 9.22561 74.4162 9.10547L74.569 9.47667Z" fill="#0088CF"/>
<path d="M83.1187 5.9622L82.4555 5.46784C83.5273 4.06781 83.8869 3.90615 84.6798 2.48379C85.3145 2.55885 85.8737 2.11561 86.5824 2.69851C86.2679 4.25718 84.3568 5.03884 83.3396 6.12688L83.2702 5.98927L83.1187 5.9622Z" fill="#0088CF"/>
<path d="M83.1608 6.25139L83.3396 6.12705C83.2324 7.00081 82.0555 7.56494 81.8289 7.92309C81.7771 7.51048 81.4723 7.74331 81.166 7.42895C81.6448 6.79277 81.6203 5.95731 82.3733 5.57812C82.4159 5.93131 82.721 5.69794 83.0367 6.07248L83.1608 6.25139Z" fill="#0088CF"/>
<path d="M85.6588 7.16994C85.7766 6.37319 86.691 5.88282 87.2257 5.75923C87.531 4.90263 88.4334 4.77828 89.1245 4.5957C89.5946 4.69352 89.4054 5.59445 89.7875 5.08995C89.9933 5.72214 88.7685 6.69694 88.1923 6.30773C87.3858 7.30432 86.5575 8.15521 85.4939 7.39135L85.6315 7.32179L85.6588 7.16994Z" fill="#0088CF"/>
<path d="M85.3426 7.70214L85.4109 7.4954C85.6935 7.6508 85.822 7.8294 85.8811 8.01769C85.4174 9.11458 84.6012 9.44253 83.679 9.12676C83.4261 8.53793 84.5065 7.26138 85.2177 7.52322L85.3426 7.70214Z" fill="#0088CF"/>
<path d="M91.0133 9.44064C91.057 10.2266 90.1368 10.1588 89.7754 10.409C89.4587 10.0614 89.6297 9.64263 89.4138 9.27995C89.925 8.47058 90.8878 9.16553 91.0133 9.44064Z" fill="#0088CF"/>
<path d="M87.1287 10.4991C87.2625 9.70469 88.7307 9.05579 89.1122 9.91434C88.9442 10.8372 87.4417 11.2479 87.0746 10.8027L87.2536 10.6778L87.1287 10.4991Z" fill="#0088CF"/>
<path d="M86.7024 10.9568L86.9095 11.0253C86.7284 11.9645 85.8181 12.121 85.1471 11.7748C85.2257 11.6322 85.015 11.5314 84.8978 11.417C85.2087 10.8474 85.6011 10.8368 85.943 10.477C86.1984 10.4286 86.5149 10.7981 86.7704 10.7499L86.7024 10.9568Z" fill="#0088CF"/>
<path d="M90.1767 15.8657C89.6295 16.6162 88.9912 16.7423 88.3321 16.7256C87.0106 15.3647 85.7408 16.3847 85.0183 14.9434C85.417 14.7481 85.8708 14.933 86.2586 14.6641C86.8294 14.9752 87.3484 15.2475 88.2172 15.2649C89.1105 15.2827 89.8655 14.7376 90.1767 15.8657Z" fill="#0088CF"/>
<path d="M74.251 9.31848C73.8231 8.23399 71.8861 7.53991 72.1191 6.18129L72.5309 5.62891C74.0434 5.72683 74.2016 6.71889 74.4114 7.71893C74.5268 8.26689 74.5348 8.81085 74.6369 9.26197L74.4159 9.09729L74.251 9.31848Z" fill="#0088CF"/>
<path d="M74.5692 9.47134L74.6373 9.2646C75.3624 9.35002 75.1674 9.95049 75.8531 10.1709C76.2395 10.2952 76.4904 9.60183 77.2855 9.86346C77.6441 10.1123 77.7161 10.9091 77.9227 10.854C77.5057 9.81698 78.6461 9.66222 79.464 9.9396C78.8739 9.1876 80.0073 8.13299 80.6152 7.70312C83.3863 9.46174 84.7554 11.2142 83.9691 13.8135C84.2463 14.3639 84.7806 14.877 84.4152 15.5213C83.868 15.8373 83.0621 16.3911 82.7074 15.9672C82.0647 16.9093 79.1656 18.2515 78.0255 17.6355C77.5684 17.3887 77.1947 16.5801 76.808 16.0404C76.4084 15.4824 75.9263 15.3082 75.1502 14.8047C74.7463 13.6543 74.0331 12.2275 74.9185 11.1936L75.1258 11.262L75.0011 11.0829C75.1834 10.8294 74.7541 10.1105 74.7519 10.7256L74.5452 10.6571L74.4767 10.8643C74.1562 10.8722 74.2316 9.98468 74.3901 9.59622L74.5692 9.47134ZM78.8912 12.0915C79.1576 11.7574 79.2982 11.4413 79.2468 11.1534C78.9329 11.4619 79.1552 11.692 78.7807 12.0091L78.602 12.1337L78.8088 12.2023C78.643 12.4021 78.3438 13.1084 78.6182 12.9193C78.8617 12.6868 78.5952 12.5288 78.9195 12.2848L79.0988 12.16L78.8912 12.0915Z" fill="#0088CF"/>
<path d="M83.16 6.25414C83.1847 6.15816 83.2269 6.07469 83.2694 5.99219L83.16 6.25414Z" fill="#0088CF"/>
<path d="M85.6313 7.32039C85.6088 7.31251 85.5863 7.30442 85.5637 7.29688C85.3869 7.33149 85.3377 7.53931 85.3429 7.70722" fill="#0088CF"/>
<path d="M86.7037 10.957C86.8733 10.7957 87.0712 10.7197 87.2541 10.6797L86.7037 10.957Z" fill="#0088CF"/>
<path d="M75.1243 11.267C74.8881 11.1093 74.6613 10.9287 74.5437 10.6621L75.1243 11.267Z" fill="#0088CF"/>
<path d="M79.0975 12.1672C78.9336 12.1557 78.7753 12.1373 78.6009 12.1412L79.0975 12.1672Z" fill="#0088CF"/>
<path d="M13.1814 9.92401C13.0982 9.77853 13.0834 9.66885 13.0438 9.54688L13.1814 9.92401Z" fill="#FFC709"/>
<path d="M21.8671 6.76691L21.2246 6.24602C22.3524 4.89064 22.7183 4.74375 23.5683 3.35472C24.1995 3.45566 24.7761 3.0355 25.4606 3.64665C25.0831 5.19131 23.1417 5.89467 22.0812 6.94044L22.0175 6.80013L21.8671 6.76691Z" fill="#FFC709"/>
<path d="M21.8969 7.05437L22.0806 6.93747C21.938 7.80605 20.7391 8.32186 20.4982 8.67052C20.4633 8.25619 20.1491 8.47651 19.8559 8.14985C20.3603 7.53363 20.3697 6.69795 21.1375 6.34961C21.1656 6.70431 21.48 6.48355 21.7801 6.8706L21.8969 7.05437Z" fill="#FFC709"/>
<path d="M24.3559 8.06405C24.5059 7.27269 25.4395 6.81996 25.9789 6.71826C26.3188 5.87471 27.2253 5.78714 27.9233 5.63281C28.3891 5.74961 28.1635 6.64213 28.5658 6.15359C28.7456 6.79354 27.4822 7.71787 26.9223 7.30559C26.0759 8.26853 25.2137 9.08501 24.1821 8.27855L24.3224 8.2146L24.3559 8.06405Z" fill="#FFC709"/>
<path d="M24.0198 8.5967L24.0964 8.39287C24.3725 8.55971 24.4936 8.74326 24.545 8.93382C24.0371 10.0111 23.2082 10.3055 22.2996 9.95252C22.071 9.35388 23.2023 8.12229 23.9023 8.41283L24.0198 8.5967Z" fill="#FFC709"/>
<path d="M29.6156 10.5639C29.6272 11.3509 28.7106 11.2458 28.3393 11.4811C28.0369 11.1209 28.2248 10.7095 28.0239 10.3383C28.5676 9.55047 29.5012 10.2839 29.6156 10.5639Z" fill="#FFC709"/>
<path d="M25.6906 11.4531C25.8566 10.6649 27.3501 10.0761 27.6961 10.9495C27.4909 11.8647 25.9728 12.2141 25.6241 11.7542L25.808 11.6367L25.6906 11.4531Z" fill="#FFC709"/>
<path d="M25.246 11.8976L25.4501 11.9744C25.231 12.9056 24.3151 13.0249 23.6586 12.6518C23.743 12.5124 23.5366 12.4032 23.4241 12.2841C23.758 11.7276 24.1504 11.733 24.5066 11.3874C24.7638 11.3494 25.065 11.7315 25.3223 11.6936L25.246 11.8976Z" fill="#FFC709"/>
<path d="M28.5187 16.938C27.9413 17.6657 27.2985 17.7657 26.6406 17.7223C25.3755 16.3088 24.0654 17.2763 23.4019 15.8069C23.8083 15.6278 24.2542 15.8311 24.6527 15.5781C25.2103 15.9121 25.7179 16.2055 26.5852 16.2581C27.4772 16.3121 28.2536 15.7982 28.5187 16.938Z" fill="#FFC709"/>
<path d="M12.8718 9.75643C12.4883 8.65545 10.5812 7.88318 10.8691 6.53523L11.303 6C12.8104 6.15929 12.9281 7.15695 13.097 8.16476C13.19 8.71692 13.1758 9.26078 13.2596 9.71567L13.0455 9.54215L12.8718 9.75643Z" fill="#FFC709"/>
<path d="M13.1822 9.93315L13.2585 9.72943C13.9797 9.84417 13.7602 10.4362 14.4365 10.6844C14.8176 10.8243 15.0964 10.1417 15.8803 10.4354C16.2283 10.6985 16.268 11.4976 16.4766 11.4511C16.1022 10.3978 17.2478 10.2896 18.0537 10.6001C17.4946 9.82465 18.67 8.81696 19.295 8.41211C21.9922 10.2819 23.289 12.0886 22.3977 14.6538C22.6524 15.2151 23.1652 15.7496 22.7741 16.3784C22.2143 16.6718 21.3866 17.1924 21.0494 16.7545C20.3691 17.6696 17.4178 18.8928 16.3037 18.231C15.8569 17.9659 15.5165 17.1427 15.1519 16.5877C14.7754 16.0139 14.3007 15.8204 13.5457 15.2857C13.189 14.1199 12.5344 12.6652 13.4611 11.6681L13.6654 11.7449L13.5481 11.5609C13.7406 11.3151 13.3408 10.5793 13.3137 11.1937L13.1099 11.117L13.033 11.3212C12.7125 11.3161 12.8239 10.4324 12.998 10.0507L13.1822 9.93315ZM17.394 12.727C17.6737 12.4039 17.827 12.0938 17.7874 11.804C17.4612 12.0994 17.674 12.3384 17.2869 12.6401L17.1033 12.7573L17.3071 12.8342C17.1334 13.0271 16.8057 13.7206 17.0875 13.5429C17.3402 13.3205 17.0804 13.1518 17.4143 12.9211L17.5986 12.8036L17.394 12.727Z" fill="#FFC709"/>
<path d="M21.8976 7.05799C21.9261 6.9632 21.9718 6.88145 22.0175 6.80078L21.8976 7.05799Z" fill="#FFC709"/>
<path d="M24.3234 8.21772C24.3012 8.20877 24.2791 8.19982 24.2569 8.19141C24.0789 8.2188 24.0213 8.42446 24.0196 8.59248" fill="#FFC709"/>
<path d="M25.2463 11.8993C25.4223 11.745 25.6231 11.6771 25.8075 11.6445L25.2463 11.8993Z" fill="#FFC709"/>
<path d="M13.6657 11.7336C13.436 11.5664 13.2168 11.3767 13.1101 11.1055L13.6657 11.7336Z" fill="#FFC709"/>
<path d="M17.5985 12.7982C17.4354 12.7801 17.2778 12.7552 17.1033 12.752L17.5985 12.7982Z" fill="#FFC709"/>
<path d="M50.1767 9.79119C50.0935 9.64571 50.0788 9.53593 50.0391 9.41406L50.1767 9.79119Z" fill="#FFC709"/>
<path d="M58.8618 6.63801L58.2193 6.11701C59.3471 4.76173 59.7132 4.61474 60.563 3.22581C61.1943 3.32676 61.7709 2.90659 62.4553 3.51775C62.0779 5.0624 60.1365 5.76576 59.0759 6.81153L59.0122 6.67122L58.8618 6.63801Z" fill="#FFC709"/>
<path d="M58.8917 6.92547L59.0753 6.80856C58.9329 7.67714 57.734 8.19296 57.4929 8.54162C57.458 8.12729 57.1439 8.3475 56.8506 8.02095C57.355 7.40473 57.3645 6.56904 58.1323 6.2207C58.1605 6.5754 58.4748 6.35465 58.7749 6.74159L58.8917 6.92547Z" fill="#FFC709"/>
<path d="M61.3506 7.94285C61.5007 7.1516 62.4344 6.69876 62.9736 6.59706C63.3135 5.75351 64.2202 5.66594 64.9181 5.51172C65.3838 5.62841 65.1583 6.52103 65.5606 6.0325C65.7403 6.67245 64.4769 7.59667 63.9171 7.18438C63.0706 8.14733 62.2084 8.96381 61.1768 8.15736L61.3172 8.0934L61.3506 7.94285Z" fill="#FFC709"/>
<path d="M61.014 8.46584L61.0905 8.26212C61.3667 8.42885 61.4877 8.61251 61.5392 8.80296C61.0312 9.88022 60.2023 10.1746 59.2937 9.82177C59.0651 9.22301 60.1964 7.99143 60.8964 8.28197L61.014 8.46584Z" fill="#FFC709"/>
<path d="M66.6097 10.4291C66.6213 11.2162 65.7048 11.1111 65.3335 11.3463C65.0311 10.9861 65.2189 10.5747 65.018 10.2035C65.5618 9.41571 66.4954 10.1492 66.6097 10.4291Z" fill="#FFC709"/>
<path d="M62.6847 11.3242C62.8507 10.536 64.3441 9.94723 64.6903 10.8206C64.4849 11.7358 62.9669 12.0852 62.6183 11.6253L62.8021 11.5078L62.6847 11.3242Z" fill="#FFC709"/>
<path d="M62.2402 11.7668L62.4444 11.8436C62.2252 12.7747 61.3093 12.8941 60.6529 12.5209C60.7372 12.3815 60.5307 12.2723 60.4182 12.1532C60.7522 11.5967 61.1446 11.6021 61.501 11.2566C61.7581 11.2185 62.0593 11.6005 62.3165 11.5627L62.2402 11.7668Z" fill="#FFC709"/>
<path d="M65.5128 16.813C64.9354 17.5407 64.2926 17.6407 63.6347 17.5973C62.3695 16.1838 61.0595 17.1514 60.3961 15.6818C60.8023 15.5028 61.2483 15.7061 61.6468 15.4531C62.2043 15.7871 62.7119 16.0805 63.5793 16.1331C64.4713 16.1871 65.2477 15.6732 65.5128 16.813Z" fill="#FFC709"/>
<path d="M49.8653 9.62948C49.4818 8.5285 47.5747 7.75622 47.8627 6.40828L48.2965 5.87305C49.804 6.03233 49.9215 7.03 50.0906 8.0378C50.1836 8.58997 50.1694 9.13383 50.2531 9.58871L50.0391 9.41519L49.8653 9.62948Z" fill="#FFC709"/>
<path d="M50.1757 9.79838L50.252 9.59466C50.9732 9.70941 50.7538 10.3015 51.4301 10.5496C51.8111 10.6895 52.09 10.007 52.8739 10.3006C53.2218 10.5638 53.2615 11.3629 53.4702 11.3162C53.0957 10.2631 54.2414 10.1548 55.0474 10.4653C54.4882 9.68989 55.6636 8.68219 56.2886 8.27734C58.9857 10.1471 60.2826 11.9539 59.3912 14.519C59.6459 15.0803 60.1588 15.6147 59.7675 16.2436C59.2079 16.537 58.3802 17.0576 58.043 16.6197C57.3627 17.5348 54.4112 18.7581 53.2972 18.0962C52.8505 17.8311 52.51 17.008 52.1455 16.4529C51.7689 15.8792 51.2942 15.6856 50.5393 15.1509C50.1824 13.9851 49.5279 12.5304 50.4546 11.5334L50.659 11.6102L50.5416 11.4262C50.7341 11.1803 50.3344 10.4445 50.3073 11.059L50.1035 10.9822L50.0266 11.1864C49.7061 11.1814 49.8175 10.2976 49.9915 9.91593L50.1757 9.79838ZM54.3876 12.5921C54.6672 12.2691 54.8206 11.959 54.781 11.6693C54.4549 11.9646 54.6676 12.2036 54.2805 12.5054L54.0967 12.6225L54.3007 12.6994C54.1269 12.8923 53.7993 13.5859 54.0811 13.408C54.3339 13.1858 54.0739 13.017 54.4079 12.7863L54.5922 12.6689L54.3876 12.5921Z" fill="#FFC709"/>
<path d="M58.8912 6.92322C58.9197 6.82832 58.9653 6.74668 59.0111 6.66602L58.8912 6.92322Z" fill="#FFC709"/>
<path d="M61.317 8.08295C61.2948 8.07411 61.2727 8.06505 61.2504 8.05664C61.0723 8.08403 61.0147 8.28969 61.0132 8.45771" fill="#FFC709"/>
<path d="M62.241 11.7645C62.4171 11.6103 62.6178 11.5423 62.8022 11.5098L62.241 11.7645Z" fill="#FFC709"/>
<path d="M50.6598 11.6065C50.4301 11.4394 50.2109 11.2496 50.1043 10.9785L50.6598 11.6065Z" fill="#FFC709"/>
<path d="M54.5927 12.6693C54.4294 12.6512 54.2719 12.6263 54.0975 12.623L54.5927 12.6693Z" fill="#FFC709"/>
<path d="M31.8331 49.5491C31.8607 48.9246 31.5902 48.3869 31.0213 47.9356C30.452 47.4848 29.7234 47.2106 28.8354 47.1133C27.947 47.0302 27.1524 47.1551 26.4517 47.4882C25.7507 47.8212 25.31 48.328 25.1298 49.0077C24.9076 49.8961 25.0257 50.5484 25.4837 50.9647C25.8028 51.2702 26.5038 51.5964 27.5863 51.9431L27.7737 52.0056C28.1204 52.103 28.3842 52.1825 28.5647 52.245C28.7449 52.3074 29.0051 52.4084 29.3454 52.5468C29.6853 52.6857 29.9596 52.8142 30.1677 52.932C30.3758 53.0501 30.6186 53.2131 30.8963 53.4212C31.1738 53.6294 31.4028 53.8447 31.5834 54.0666C31.7635 54.2887 31.9441 54.5559 32.1246 54.8681C32.3048 55.1804 32.4438 55.5238 32.5409 55.8985C32.8461 56.9535 32.9017 57.8069 32.7075 58.4592C32.4437 59.3336 31.9269 60.0069 31.1566 60.4786C30.3863 60.9505 29.5152 61.1999 28.5439 61.228C27.6139 61.2696 26.7187 61.1134 25.8583 60.7595C24.9978 60.4057 24.3387 59.882 23.8807 59.1878C23.811 59.0909 23.7486 58.9869 23.6933 58.8755C23.6377 58.7646 23.5892 58.6502 23.5476 58.5321C23.5059 58.4143 23.4711 58.3101 23.4435 58.2198C23.4156 58.1296 23.3879 58.0083 23.3602 57.8554L23.2978 57.5224C23.2838 57.4531 23.2698 57.3386 23.2562 57.1789C23.2422 57.0196 23.2318 56.9154 23.2249 56.8666C23.2178 56.8181 23.2073 56.7037 23.1937 56.5231C23.1797 56.3429 23.1729 56.2388 23.1729 56.2107C23.1589 56.0999 23.1901 56.0027 23.2665 55.9193C23.3427 55.8361 23.4399 55.7877 23.558 55.7736C23.6757 55.7601 23.7765 55.7912 23.8599 55.8674C23.9431 55.9438 23.9917 56.0443 24.0056 56.1692C24.0056 56.2107 24.0124 56.2733 24.0264 56.3565C24.0541 56.7453 24.0785 57.0435 24.0993 57.2518C24.1201 57.4599 24.1721 57.7065 24.2554 57.9907C24.3387 58.2754 24.4496 58.5216 24.5885 58.7299C24.9492 59.271 25.4905 59.6945 26.2123 59.9996C26.9338 60.3052 27.704 60.4369 28.5231 60.3952C29.3558 60.3676 30.0773 60.1663 30.6882 59.7916C31.2987 59.4168 31.7083 58.8895 31.9164 58.2094C32.055 57.7238 31.9996 57.0228 31.7499 56.1068C31.6526 55.8017 31.5277 55.517 31.3751 55.2533C31.2223 54.9897 31.0733 54.7639 30.9276 54.5766C30.7819 54.3893 30.577 54.2055 30.3134 54.025C30.0496 53.8447 29.8347 53.7058 29.6681 53.6087C29.5015 53.5116 29.2481 53.3972 28.9082 53.2651C28.568 53.1333 28.3217 53.0397 28.1691 52.9841L27.3365 52.7342C26.129 52.3595 25.3172 51.9779 24.9008 51.5893C24.2206 50.937 24.0332 50.0071 24.3387 48.7997C24.4912 48.1615 24.8243 47.6338 25.3379 47.2175C25.8512 46.8011 26.4133 46.5272 27.0243 46.3952C27.6348 46.2634 28.2661 46.2321 28.9186 46.3015C29.5708 46.371 30.1746 46.5305 30.7298 46.7803C31.2847 47.0302 31.7531 47.4016 32.135 47.894C32.5165 48.3869 32.6935 48.9525 32.6659 49.5907C32.6659 49.702 32.6206 49.7956 32.5306 49.8718C32.4401 49.9482 32.3396 49.9863 32.2287 49.9863C32.1174 49.9863 32.0238 49.9414 31.9477 49.8509C31.8712 49.7609 31.8331 49.6603 31.8331 49.5491Z" fill="#0088CF" stroke="#0088CF" stroke-width="0.5" stroke-miterlimit="10"/>
<path d="M41.0535 53.1621C40.9004 52.7597 40.6578 52.3781 40.3248 52.0171C39.9916 51.6564 39.6238 51.3717 39.2214 51.1635C38.2914 50.6919 37.4655 50.7334 36.744 51.2884C35.9946 51.8576 35.5086 52.843 35.2867 54.2446C35.0646 55.5353 35.1339 56.6943 35.495 57.7212C35.7308 58.4014 36.1263 58.9078 36.6816 59.2408C37.2505 59.574 37.8682 59.7129 38.5343 59.6573C39.2142 59.602 39.8216 59.3729 40.3559 58.9702C40.8901 58.5679 41.2544 58.0406 41.4488 57.3882C41.4765 57.2772 41.5425 57.1904 41.6466 57.1278C41.7508 57.0654 41.8549 57.0517 41.9589 57.0863C42.063 57.121 42.1463 57.1904 42.2087 57.2944C42.2711 57.3985 42.2816 57.4994 42.24 57.5963C42.0038 58.443 41.5458 59.1195 40.866 59.626C40.1859 60.1328 39.4296 60.4204 38.5968 60.49C37.7641 60.5453 36.9867 60.3651 36.2652 59.9487C35.5434 59.5323 35.023 58.887 34.7039 58.0127C34.3011 56.8608 34.2179 55.5561 34.4541 54.0989C34.7315 52.489 35.3285 51.3301 36.2444 50.6222C36.744 50.2339 37.3061 50.0324 37.9306 50.0185C38.5552 50.0049 39.1101 50.1366 39.5961 50.4141C40.0957 50.6639 40.5466 51.011 40.9493 51.455C41.3517 51.8993 41.65 52.3709 41.8444 52.8706C41.886 52.9819 41.8825 53.0892 41.834 53.1932C41.7852 53.2974 41.7055 53.3702 41.5946 53.4119C41.4833 53.4535 41.376 53.4502 41.272 53.4015C41.1679 53.3531 41.0951 53.2733 41.0535 53.1621Z" fill="#0088CF"/>
<path fill-rule="evenodd" clip-rule="evenodd" d="M41.0535 53.1621C40.9004 52.7597 40.6578 52.3781 40.3248 52.0171C39.9916 51.6564 39.6238 51.3717 39.2214 51.1635C38.2914 50.6919 37.4655 50.7334 36.744 51.2884C35.9946 51.8576 35.5086 52.843 35.2867 54.2446C35.0646 55.5353 35.1339 56.6943 35.495 57.7212C35.7308 58.4014 36.1263 58.9078 36.6816 59.2408C37.2505 59.574 37.8682 59.7129 38.5343 59.6573C39.2142 59.602 39.8216 59.3729 40.3559 58.9702C40.8901 58.5679 41.2544 58.0406 41.4488 57.3882C41.4765 57.2772 41.5425 57.1904 41.6466 57.1278C41.7508 57.0654 41.8549 57.0517 41.9589 57.0863C42.063 57.121 42.1463 57.1904 42.2087 57.2944C42.2711 57.3985 42.2816 57.4994 42.24 57.5963C42.0038 58.443 41.5458 59.1195 40.866 59.626C40.1859 60.1328 39.4296 60.4204 38.5968 60.49C37.7641 60.5453 36.9867 60.3651 36.2652 59.9487C35.5434 59.5323 35.023 58.887 34.7039 58.0127C34.3011 56.8608 34.2179 55.5561 34.4541 54.0989C34.7315 52.489 35.3285 51.3301 36.2444 50.6222C36.744 50.2339 37.3061 50.0324 37.9306 50.0185C38.5552 50.0049 39.1101 50.1366 39.5961 50.4141C40.0957 50.6639 40.5466 51.011 40.9493 51.455C41.3517 51.8993 41.65 52.3709 41.8444 52.8706C41.886 52.9819 41.8825 53.0892 41.834 53.1932C41.7852 53.2974 41.7055 53.3702 41.5946 53.4119C41.4833 53.4535 41.376 53.4502 41.272 53.4015C41.1679 53.3531 41.0951 53.2733 41.0535 53.1621Z" stroke="#0088CF" stroke-width="0.5" stroke-miterlimit="10"/>
<path d="M43.9233 58.6783C43.9233 57.1518 43.9301 54.8654 43.9441 51.8189C43.9578 48.7725 43.9649 46.4861 43.9649 44.9592C43.9649 44.8484 44.0065 44.751 44.0898 44.6679C44.173 44.5845 44.27 44.543 44.3813 44.543C44.4921 44.543 44.5894 44.5845 44.6727 44.6679C44.7559 44.751 44.7976 44.8484 44.7976 44.9592C44.7976 46.3472 44.7904 48.1028 44.7768 50.2263C45.3874 49.4351 46.0743 48.9355 46.8378 48.7273C47.4623 48.5332 48.0692 48.5712 48.6593 48.8419C49.249 49.1124 49.78 49.6156 50.2519 50.3511C50.8208 51.2394 51.1332 52.6343 51.1888 54.5356C51.2302 55.7153 51.1679 57.1242 51.0013 58.7616C50.9874 58.8729 50.9354 58.9665 50.8452 59.0426C50.7548 59.1188 50.6544 59.1499 50.5434 59.1363C50.4322 59.1223 50.3385 59.0703 50.2623 58.9802C50.1859 58.8901 50.1546 58.7895 50.1687 58.6783C50.3352 57.0684 50.3977 55.6945 50.356 54.5563C50.3003 52.8355 50.0297 51.5865 49.5441 50.809C48.8363 49.6713 48.0103 49.2409 47.0667 49.5184C46.6364 49.6434 46.2237 49.9002 45.8281 50.2887C45.4325 50.6775 45.1028 51.1562 44.8393 51.7251C44.8253 51.7531 44.8045 51.7807 44.7768 51.8084C44.7628 54.8617 44.7559 57.1518 44.7559 58.6783C44.7559 58.7895 44.7143 58.8866 44.631 58.9697C44.5478 59.0531 44.4505 59.0946 44.3396 59.0946C44.2284 59.0946 44.1314 59.0531 44.0481 58.9697C43.9649 58.8866 43.9233 58.7895 43.9233 58.6783Z" fill="#0088CF"/>
<path fill-rule="evenodd" clip-rule="evenodd" d="M43.9233 58.6783C43.9233 57.1518 43.9301 54.8654 43.9441 51.8189C43.9578 48.7725 43.9649 46.4861 43.9649 44.9592C43.9649 44.8484 44.0065 44.751 44.0898 44.6679C44.173 44.5845 44.27 44.543 44.3813 44.543C44.4921 44.543 44.5894 44.5845 44.6727 44.6679C44.7559 44.751 44.7976 44.8484 44.7976 44.9592C44.7976 46.3472 44.7904 48.1028 44.7768 50.2263C45.3874 49.4351 46.0743 48.9355 46.8378 48.7273C47.4623 48.5332 48.0692 48.5712 48.6593 48.8419C49.249 49.1124 49.78 49.6156 50.2519 50.3511C50.8208 51.2394 51.1332 52.6343 51.1888 54.5356C51.2302 55.7153 51.1679 57.1242 51.0013 58.7616C50.9874 58.8729 50.9354 58.9665 50.8452 59.0426C50.7548 59.1188 50.6544 59.1499 50.5434 59.1363C50.4322 59.1223 50.3385 59.0703 50.2623 58.9802C50.1859 58.8901 50.1546 58.7895 50.1687 58.6783C50.3352 57.0684 50.3977 55.6945 50.356 54.5563C50.3003 52.8355 50.0297 51.5865 49.5441 50.809C48.8363 49.6713 48.0103 49.2409 47.0667 49.5184C46.6364 49.6434 46.2237 49.9002 45.8281 50.2887C45.4325 50.6775 45.1028 51.1562 44.8393 51.7251C44.8253 51.7531 44.8045 51.7807 44.7768 51.8084C44.7628 54.8617 44.7559 57.1518 44.7559 58.6783C44.7559 58.7895 44.7143 58.8866 44.631 58.9697C44.5478 59.0531 44.4505 59.0946 44.3396 59.0946C44.2284 59.0946 44.1314 59.0531 44.0481 58.9697C43.9649 58.8866 43.9233 58.7895 43.9233 58.6783Z" stroke="#0088CF" stroke-width="0.5" stroke-miterlimit="10"/>
<path d="M74.9692 61.526C74.8453 59.6856 74.6664 56.9287 74.4331 53.2549C74.1994 49.5815 74.021 46.8247 73.8971 44.9839C73.8882 44.8503 73.9217 44.7301 73.9981 44.624C74.0743 44.5182 74.1676 44.4615 74.2787 44.4539C74.3893 44.4465 74.4898 44.4902 74.5796 44.585C74.6695 44.6798 74.7189 44.7944 74.7279 44.928C74.8518 46.7687 75.0302 49.5256 75.2639 53.1989C75.4973 56.8728 75.6761 59.6297 75.8 61.47C75.809 61.6042 75.7755 61.7238 75.6991 61.8297C75.6227 61.9358 75.529 61.9924 75.4185 62C75.3074 62.0074 75.2073 61.9639 75.1175 61.8689C75.0277 61.7742 74.9782 61.6601 74.9692 61.526Z" fill="#0088CF" stroke="#0088CF" stroke-width="0.5" stroke-miterlimit="10"/>
<path fill-rule="evenodd" clip-rule="evenodd" d="M60.5505 53.736C60.5505 51.3323 58.9316 49.3809 56.9377 49.3809C54.9438 49.3809 53.3249 51.3323 53.3249 53.736C53.3249 56.1398 54.9438 58.0912 56.9377 58.0912C58.9316 58.0912 60.5505 56.1398 60.5505 53.736Z" stroke="#EC1C24" stroke-miterlimit="10"/>
<path fill-rule="evenodd" clip-rule="evenodd" d="M70.4726 53.736C70.4726 51.3323 68.8537 49.3809 66.8598 49.3809C64.8659 49.3809 63.247 51.3323 63.247 53.736C63.247 56.1398 64.8659 58.0912 66.8598 58.0912C68.8537 58.0912 70.4726 56.1398 70.4726 53.736Z" stroke="#EC1C24" stroke-miterlimit="10"/>
<path d="M62.1084 28.5681C62.1084 32.3813 59.534 34.2882 54.3855 34.2882H53.7008L53.631 41.0559C53.619 41.2498 53.4987 41.4327 53.2709 41.6055C53.0426 41.778 52.7999 41.8643 52.5424 41.8643C52.2847 41.8643 52.0478 41.7758 51.8316 41.5991C51.6147 41.4224 51.5068 41.2413 51.5068 41.0559L51.5772 23.8583C51.5772 23.6646 51.6971 23.488 51.9368 23.328C52.1766 23.1682 52.4371 23.0879 52.7183 23.0879H54.4909C59.5693 23.0879 62.1084 24.9149 62.1084 28.5681ZM59.9492 28.5681C59.9492 25.9164 58.1546 24.5904 54.5658 24.5904H53.7008V32.7855H54.5609C56.3394 32.7855 57.6909 32.4027 58.6152 31.6366C59.5046 30.904 59.9492 29.8813 59.9492 28.5681Z" fill="#0088CF"/>
<path d="M70.8275 38.826C70.8431 38.9816 70.7719 39.1375 70.6141 39.2929C70.4556 39.4483 70.2685 39.5371 70.0521 39.5593C69.5702 39.6082 69.2507 39.4439 69.0929 39.0669C69.0524 38.9637 69.0047 38.6398 68.9493 38.0951C68.3053 38.4109 67.5851 38.6092 66.7882 38.6903C64.4667 38.9265 63.2242 38.2381 63.0602 36.6247C62.9623 35.6624 63.3996 34.7884 64.3733 34.0027C65.3097 33.2425 66.4568 32.7934 67.8142 32.6552L68.242 32.6117C68.003 30.9487 67.4654 30.1598 66.6295 30.2451C65.9804 30.311 65.231 30.8627 64.3827 31.9C64.3059 32.0222 64.1704 32.2042 63.9763 32.4456C63.7442 32.7049 63.4757 32.8501 63.1706 32.8813C62.9545 32.9033 62.7429 32.8517 62.5364 32.7259C62.3299 32.6004 62.2185 32.46 62.2028 32.3039C62.1871 32.1485 62.2301 31.9905 62.3332 31.8296C62.7354 31.1883 63.3008 30.5946 64.0307 30.0483C64.879 29.4043 65.7022 29.0416 66.4984 28.9605C67.9248 28.8154 68.9245 29.357 69.4966 30.5859C69.8007 31.2342 70.0603 32.366 70.2743 33.9813C70.4497 35.3148 70.634 36.9297 70.8275 38.826ZM68.7574 36.5058C68.6492 35.5375 68.5393 34.6549 68.4285 33.8583C68.3184 33.855 68.1458 33.8656 67.9096 33.8894C67.6737 33.9134 67.3511 34.0145 66.9415 34.1917C65.4738 34.8061 64.7851 35.5554 64.8749 36.4399C64.9102 36.7867 65.0962 37.0537 65.4334 37.2408C65.7703 37.4282 66.1798 37.4972 66.6621 37.4485C66.9865 37.4154 67.3645 37.3002 67.7966 37.1023C68.2288 36.9047 68.5487 36.7057 68.7574 36.5058Z" fill="#0088CF"/>
<path d="M74.1945 40.7343C74.2075 40.8835 74.1154 41.0387 73.9167 41.2002C73.7179 41.3614 73.5149 41.4454 73.3074 41.4504C73.0798 41.4558 72.8706 41.397 72.6796 41.2737C72.4882 41.1505 72.3859 41.0073 72.372 40.8439L71.2614 24.2758C71.258 24.1263 71.3431 23.9716 71.517 23.8102C71.691 23.6499 71.8867 23.5666 72.1045 23.5609C72.3317 23.5554 72.5432 23.6141 72.7395 23.7374C72.9351 23.8605 73.0403 24.0039 73.0541 24.1671L74.1945 40.7343Z" fill="#EC1C24"/>
<path d="M88.6711 38.3555C88.6711 39.0101 88.6562 39.4009 88.6267 39.5291C88.5081 40.0129 88.1866 40.2548 87.6625 40.2548C87.4552 40.2548 87.2574 40.1746 87.0697 40.0146C86.8815 39.8545 86.7874 39.6965 86.7874 39.5398C86.7874 39.3477 86.7972 39.0597 86.8173 38.6755C86.8369 38.2915 86.847 38.0033 86.847 37.8113C86.847 36.3746 86.7678 35.0623 86.6098 33.8745C86.323 31.7478 85.8336 30.6843 85.1415 30.6843C84.7458 30.6843 84.2419 31.2392 83.6285 32.3489C83.0747 33.3303 82.7735 34.0382 82.724 34.4719C82.6943 34.6358 82.6793 34.8312 82.6793 35.0587C82.6793 35.3576 82.7069 35.802 82.7611 36.3925C82.8153 36.9829 82.8428 37.4275 82.8428 37.7261C82.8428 39.0275 82.813 39.7925 82.7534 40.0201C82.6445 40.4253 82.3385 40.628 81.8342 40.628C81.6067 40.628 81.4042 40.5499 81.2262 40.3934C81.0482 40.2369 80.9591 40.0766 80.9591 39.9133C80.9591 39.6572 80.9688 39.2768 80.9889 38.7717C81.0086 38.2666 81.0187 37.8898 81.0187 37.6408C81.0187 36.3249 80.9495 35.08 80.811 33.9063C80.5932 31.9221 80.2272 30.9298 79.7132 30.9298C79.4462 30.9298 79.036 31.3318 78.4826 32.1354C78.0769 32.733 77.7757 33.2344 77.5775 33.6397C77.37 34.0808 77.2517 34.4366 77.2219 34.7065C77.1824 35.0623 77.1623 35.5426 77.1623 36.1469C77.1623 36.5951 77.1824 37.2603 77.2219 38.142C77.2613 39.0243 77.2811 39.6856 77.2811 40.1267C77.2811 40.283 77.185 40.4324 76.992 40.5748C76.7993 40.7168 76.5939 40.7882 76.3765 40.7882C76.149 40.7882 75.9438 40.7168 75.7609 40.5748C75.5781 40.4324 75.4867 40.283 75.4867 40.1267C75.4867 37.8365 75.457 36.1114 75.3979 34.952C75.3681 34.4755 75.2592 33.6788 75.0712 32.5623C74.9032 31.5379 74.8191 30.7377 74.8191 30.1617V30.1191C74.8191 29.9412 74.9085 29.7739 75.0861 29.6175C75.264 29.4612 75.4767 29.3828 75.724 29.3828C76.238 29.3828 76.5449 29.5712 76.6437 29.9482C76.6629 30.0977 76.6927 30.3217 76.7321 30.6203L76.9101 31.9112C77.7801 30.4106 78.7148 29.6602 79.7132 29.6602C80.9197 29.6602 81.7501 30.4106 82.2049 31.9112C83.0949 30.2543 84.0737 29.4254 85.1415 29.4254C87.4945 29.4254 88.6711 32.402 88.6711 38.3555Z" fill="#0088CF"/>
<path d="M97.5105 35.3044C97.5105 37.2109 96.4013 38.1637 94.1834 38.1637C93.2664 38.1637 92.3614 37.9184 91.4695 37.4276C91.0441 37.1858 90.8316 36.9156 90.8316 36.6166C90.8316 36.4604 90.9105 36.3233 91.0693 36.2059C91.2272 36.0887 91.4028 36.03 91.5947 36.03C91.8195 36.03 92.2051 36.1757 92.7514 36.4675C93.2976 36.759 93.7747 36.9048 94.1834 36.9048C94.7421 36.9048 95.1842 36.7627 95.5093 36.4781C95.8347 36.1936 95.997 35.8096 95.997 35.3257C95.997 34.6787 95.5134 34.1948 94.5463 33.8748C93.6375 33.5903 92.7325 33.3059 91.8324 33.0212C90.8566 32.5518 90.3685 31.7978 90.3685 30.7592C90.3685 29.8701 90.648 29.1642 91.2071 28.6416C91.7652 28.1187 92.5618 27.8574 93.5955 27.8574C94.9213 27.8574 96.014 28.2273 96.8728 28.967C97.2144 29.2657 97.3854 29.543 97.3854 29.7988C97.3854 29.9556 97.304 30.0925 97.1415 30.2098C96.979 30.3273 96.8019 30.3859 96.6101 30.3859C96.3681 30.3859 96.1637 30.3078 95.997 30.1512C95.3133 29.4614 94.5129 29.1163 93.5955 29.1163C93.0701 29.1163 92.6534 29.2691 92.345 29.575C92.0364 29.8809 91.8821 30.2616 91.8821 30.7166C91.8821 31.3213 92.3655 31.7765 93.3331 32.0823C95.1007 32.6443 96.0052 32.9359 96.0473 32.9572C97.0226 33.4552 97.5105 34.2374 97.5105 35.3044Z" fill="#0088CF"/>
<path d="M11.3194 41.0264C11.3194 41.3465 11.0971 41.5493 10.652 41.6345C10.4938 41.6629 10.0885 41.6775 9.43572 41.6775C8.83266 41.6775 7.80943 41.6629 6.36583 41.6345C5.8911 41.6274 5.17933 41.6134 4.23041 41.5919C4.0227 41.5848 3.82696 41.5119 3.64438 41.3732C3.46137 41.2346 3.36485 41.0905 3.35525 40.9412L2.89519 26.1642C2.89519 26.0079 2.98944 25.8566 3.17742 25.7108C3.36485 25.5653 3.56749 25.4922 3.78555 25.4922C4.01267 25.4922 4.22027 25.5564 4.40813 25.6843C4.596 25.8122 4.69004 25.9582 4.69004 26.1216L5.17933 40.3225L10.4592 40.3864C10.6865 40.3936 10.8867 40.4612 11.06 40.5891C11.2331 40.717 11.3194 40.863 11.3194 41.0264Z" fill="#0088CF"/>
<path d="M15.2276 28.1189C15.2037 28.3165 15.0705 28.4904 14.828 28.6399C14.586 28.7898 14.332 28.8483 14.0673 28.8159C13.8023 28.7839 13.5698 28.6663 13.3707 28.4627C13.1713 28.2594 13.0835 28.0588 13.1078 27.8611C13.1304 27.6706 13.2634 27.5003 13.5059 27.3507C13.7482 27.2009 14.0017 27.1425 14.2667 27.1745C14.5316 27.2067 14.7638 27.3246 14.9632 27.528C15.1629 27.7313 15.2506 27.9285 15.2276 28.1189ZM14.0975 40.1159C14.0897 40.2651 13.9854 40.4068 13.7849 40.54C13.5843 40.6732 13.3809 40.7273 13.1746 40.7023C12.9395 40.6734 12.7334 40.584 12.5579 40.4336C12.3821 40.2834 12.2984 40.1264 12.3088 39.9628L12.9754 31.2843C12.9842 31.1281 13.0889 30.9829 13.2897 30.8496C13.4899 30.7163 13.6931 30.6623 13.8995 30.6875C14.1253 30.7148 14.3284 30.8058 14.5086 30.9601C14.6891 31.1148 14.7693 31.2733 14.7498 31.4357L14.0975 40.1159Z" fill="#0088CF"/>
<path d="M23.0477 29.4971C23.0477 29.9097 22.8052 30.1266 22.3211 30.1478L20.675 30.2332L21.283 40.2197C21.283 40.3833 21.1842 40.5344 20.9864 40.6731C20.7885 40.8117 20.576 40.8813 20.3485 40.8813C20.1506 40.8813 19.9604 40.8117 19.7775 40.6731C19.5946 40.5344 19.5031 40.3903 19.5031 40.241L18.8952 30.3505C17.5994 30.4218 17.0115 30.4573 17.1304 30.4573C16.5868 30.4573 16.3145 30.2476 16.3145 29.8279C16.3145 29.4295 16.5469 29.2161 17.0115 29.1874L18.7913 29.0812C18.6923 27.4026 18.643 26.4173 18.643 26.1256C18.643 25.9692 18.7396 25.825 18.9321 25.6935C19.1249 25.5619 19.3351 25.4961 19.5627 25.4961C19.7603 25.4961 19.9528 25.5619 20.141 25.6935C20.3285 25.825 20.4273 25.9621 20.4378 26.1042L20.6155 28.9743C21.8019 28.8961 22.3307 28.8568 22.2023 28.8568C22.7657 28.8568 23.0477 29.0703 23.0477 29.4971Z" fill="#EC1C24"/>
<path d="M29.3597 31.6416C29.3597 32.0543 29.1172 32.2711 28.6331 32.2924L26.9866 32.3777L27.5948 42.3643C27.5948 42.5279 27.4958 42.679 27.2984 42.8177C27.1005 42.9562 26.8878 43.0258 26.6605 43.0258C26.4626 43.0258 26.2724 42.9562 26.0895 42.8177C25.9066 42.679 25.8151 42.535 25.8151 42.3855L25.2072 32.495C23.9117 32.5663 23.3235 32.6018 23.442 32.6018C22.8988 32.6018 22.6265 32.3921 22.6265 31.9724C22.6265 31.574 22.8589 31.3607 23.3235 31.3322L25.1034 31.2257C25.0043 29.5471 24.9551 28.5618 24.9551 28.2703C24.9551 28.1137 25.0516 27.9695 25.2441 27.838C25.4371 27.7064 25.6471 27.6406 25.8748 27.6406C26.0723 27.6406 26.265 27.7064 26.453 27.838C26.6408 27.9695 26.7398 28.1066 26.7494 28.2488L26.9275 31.1188C28.1139 31.0406 28.6428 31.0014 28.5143 31.0014C29.0778 31.0014 29.3597 31.2148 29.3597 31.6416Z" fill="#EC1C24"/>
<path d="M33.0461 40.7729C33.0557 40.9223 32.9597 41.0753 32.7569 41.2317C32.554 41.3881 32.3489 41.4665 32.1414 41.4665C31.9138 41.4665 31.7062 41.4024 31.5184 41.2743C31.3306 41.1466 31.2316 41.0004 31.2216 40.8368L30.5249 24.2463C30.5249 24.0969 30.6137 23.944 30.7917 23.7874C30.9699 23.6314 31.1673 23.5527 31.385 23.5527C31.6124 23.5527 31.8223 23.6169 32.0153 23.7447C32.2081 23.8729 32.3094 24.0187 32.3195 24.1823L33.0461 40.7729Z" fill="#0088CF"/>
<path d="M42.8065 39.7392C42.8065 40.0237 42.5739 40.3155 42.1093 40.6141C41.0709 41.2826 39.8253 41.6169 38.3721 41.6169C36.889 41.6169 35.7965 40.9983 35.0945 39.7605C34.5901 38.8714 34.3376 37.7938 34.3376 36.5276C34.3376 35.2475 34.5602 34.106 35.0054 33.1029C35.6478 31.6165 36.6713 30.873 38.0753 30.873C39.4992 30.873 40.5373 31.4991 41.1898 32.751C41.6444 33.6258 41.872 34.6819 41.872 35.9197C41.872 36.3748 41.6497 36.6236 41.2047 36.6663L36.1623 37.072C36.2214 37.7833 36.3896 38.4376 36.6662 39.0351C37.0816 39.9171 37.6499 40.3581 38.3721 40.3581C39.311 40.3581 40.265 40.0058 41.2341 39.3018C41.4124 39.1737 41.6348 39.1098 41.9014 39.1098C42.1189 39.1098 42.3243 39.1755 42.5175 39.3071C42.71 39.439 42.8065 39.5829 42.8065 39.7392ZM40.0775 35.4608C39.7986 33.2489 39.1161 32.1428 38.0299 32.1428C37.4621 32.1428 36.989 32.6655 36.6106 33.7111C36.3213 34.4935 36.1719 35.1871 36.1623 35.7917L40.0775 35.4608Z" fill="#0088CF"/>
</svg>
