<svg width="225" height="40" viewBox="0 0 225 40" fill="none" xmlns="http://www.w3.org/2000/svg">
<path d="M224.974 31.1187C224.491 33.8425 223.282 35.8768 221.347 37.2214C219.413 38.5661 217.082 39.2385 214.353 39.2385C210.796 39.2385 207.946 37.9972 205.804 35.5148C203.663 33.0323 202.592 29.7913 202.592 25.7917C202.592 21.7922 203.663 18.5511 205.804 16.0687C207.946 13.5862 210.796 12.345 214.353 12.345C217.151 12.345 219.534 13.1035 221.503 14.6206C223.472 16.1377 224.629 18.103 224.974 20.5165C225.043 20.6889 224.974 20.7751 224.767 20.7751H222.539C222.401 20.7751 222.297 20.6889 222.228 20.5165C221.917 18.8615 221.036 17.4996 219.586 16.4307C218.17 15.3274 216.425 14.7757 214.353 14.7757C211.59 14.7757 209.431 15.8274 207.877 17.9305C206.357 20.0337 205.597 22.6542 205.597 25.7917C205.597 28.8948 206.374 31.5152 207.929 33.6529C209.518 35.756 211.659 36.8077 214.353 36.8077C216.46 36.8077 218.204 36.3249 219.586 35.3596C220.968 34.3942 221.848 32.9633 222.228 31.067C222.263 30.8946 222.367 30.8084 222.539 30.8084H224.767C224.974 30.8084 225.043 30.9119 224.974 31.1187ZM100.499 14.7757C102.572 14.7757 104.316 15.3274 105.732 16.4307C107.183 17.4996 108.064 18.8615 108.375 20.5165C108.443 20.6889 108.547 20.7751 108.685 20.7751H110.913C111.12 20.7751 111.189 20.6889 111.12 20.5165C110.775 18.103 109.618 16.1377 107.649 14.6206C105.68 13.1035 103.297 12.345 100.499 12.345C96.9416 12.345 94.0921 13.5862 91.9509 16.0687C89.8092 18.5512 88.7386 21.7922 88.7386 25.7917C88.7386 29.7913 89.8092 33.0323 91.9509 35.5148C94.092 37.9973 96.9416 39.2385 100.499 39.2385C103.228 39.2385 105.559 38.5661 107.494 37.2214C109.428 35.8768 110.637 33.8425 111.121 31.1187C111.189 30.9119 111.121 30.8084 110.913 30.8084H108.685C108.513 30.8084 108.409 30.8946 108.375 31.067C107.995 32.9633 107.114 34.3942 105.732 35.3596C104.35 36.3249 102.606 36.8077 100.499 36.8077C97.8054 36.8077 95.6638 35.756 94.0751 33.6529C92.5208 31.5152 91.7436 28.8948 91.7436 25.7917C91.7436 22.6542 92.5034 20.0337 94.0233 17.9305C95.5775 15.8274 97.7361 14.7757 100.499 14.7757ZM81.4663 7.06974C84.4022 10.4487 85.8701 14.9653 85.8701 20.6199C85.8701 26.2744 84.4022 30.7912 81.4663 34.1701C78.5304 37.5492 74.4719 39.2385 69.291 39.2385C64.11 39.2385 60.0688 37.5492 57.1675 34.1701C54.2661 30.7912 52.8155 26.2744 52.8155 20.6199C52.8155 14.9654 54.2661 10.4487 57.1675 7.06974C60.0688 3.6908 64.11 2.00133 69.291 2.00133C74.472 2.00133 78.5304 3.6908 81.4663 7.06974ZM82.8652 20.6199C82.8652 15.8274 81.6735 11.983 79.2903 9.08673C76.9415 6.19049 73.6085 4.74246 69.291 4.74246C64.9735 4.74246 61.6404 6.19049 59.2917 9.08673C56.9775 11.9485 55.8204 15.7928 55.8204 20.6199C55.8204 25.4469 56.9775 29.3086 59.2917 32.2048C61.6404 35.0665 64.9735 36.4974 69.291 36.4974C73.6085 36.4974 76.9415 35.0493 79.2903 32.1531C81.6735 29.2569 82.8652 25.4125 82.8652 20.6199ZM196.747 2.51852H193.897C193.724 2.51852 193.638 2.60469 193.638 2.77707V6.39736C193.638 6.56975 193.724 6.656 193.897 6.656H196.747C196.92 6.656 197.006 6.56978 197.006 6.39736V2.77707C197.006 2.60469 196.92 2.51852 196.747 2.51852ZM179.855 12.3967C176.125 12.3967 173.258 13.9827 171.255 17.1548V13.1208C171.255 12.9484 171.168 12.8622 170.996 12.8622H168.768C168.595 12.8622 168.509 12.9484 168.509 13.1208V38.4627C168.509 38.6353 168.595 38.7213 168.768 38.7213H170.996C171.168 38.7213 171.255 38.6353 171.255 38.4627V23.5679C171.255 21.1888 171.98 19.1373 173.431 17.4134C174.916 15.6894 176.816 14.8274 179.13 14.8274C181.271 14.8274 182.895 15.448 184 16.6893C185.14 17.8961 185.71 19.982 185.71 22.9472V38.4627C185.71 38.6353 185.796 38.7213 185.969 38.7213H188.196C188.369 38.7213 188.455 38.6353 188.455 38.4627V22.2232C188.455 15.6722 185.589 12.3967 179.855 12.3967ZM163.039 21.1888V38.4627C163.039 38.6353 162.952 38.7213 162.779 38.7213H160.552C160.379 38.7213 160.293 38.6353 160.293 38.4627V33.446C159.464 35.2045 158.237 36.6182 156.614 37.6869C154.991 38.7213 153.195 39.2385 151.226 39.2385C148.29 39.2385 146.062 38.5835 144.542 37.2732C143.057 35.9629 142.315 34.1011 142.315 31.6876C142.315 30.1016 142.746 28.7741 143.61 27.7053C144.508 26.6364 145.63 25.8951 146.977 25.4814C148.325 25.0331 149.758 24.6539 151.278 24.3436C152.832 24.0333 154.283 23.8092 155.63 23.6713C156.977 23.5334 158.082 23.2575 158.946 22.8438C159.843 22.3955 160.293 21.8094 160.293 21.0853C160.293 18.9821 159.723 17.4134 158.583 16.379C157.443 15.3446 155.612 14.8274 153.091 14.8274C151.053 14.8274 149.361 15.3618 148.014 16.4307C146.701 17.4995 146.01 19.0511 145.941 21.0853C145.941 21.2577 145.855 21.3439 145.682 21.3439H143.454C143.282 21.3439 143.195 21.2577 143.195 21.0853C143.333 18.258 144.352 16.1031 146.252 14.6205C148.186 13.1034 150.466 12.3449 153.091 12.3449C156.165 12.3449 158.583 13.069 160.344 14.5171C162.14 15.9307 163.039 18.1547 163.039 21.1888ZM160.293 24.9125C159.394 25.3607 158.013 25.74 156.148 26.0503C154.283 26.3606 152.59 26.6192 151.07 26.8261C149.585 27.0329 148.255 27.5501 147.081 28.3776C145.906 29.1706 145.32 30.2739 145.32 31.6876C145.32 33.4115 145.855 34.7045 146.926 35.5664C148.031 36.3939 149.481 36.8077 151.278 36.8077C154.075 36.8077 156.268 35.8767 157.858 34.0149C159.481 32.1531 160.293 29.8602 160.293 27.1364L160.293 24.9125ZM135.568 16.017C137.502 18.4305 138.435 21.7749 138.365 26.0503C138.365 26.2227 138.279 26.3089 138.106 26.3089H119.092C119.196 29.6188 119.956 32.1875 121.372 34.0149C122.822 35.8424 124.912 36.756 127.641 36.756C129.782 36.756 131.526 36.2561 132.873 35.2561C134.255 34.2562 135.119 32.8599 135.464 31.067C135.533 30.8946 135.637 30.8083 135.775 30.8083H137.795C138.037 30.8083 138.124 30.8945 138.054 31.067C137.536 33.6529 136.345 35.6699 134.48 37.118C132.649 38.5317 130.352 39.2385 127.589 39.2385C123.893 39.2385 121.044 38.0146 119.04 35.5664C117.037 33.084 116.035 29.8257 116.035 25.7917C116.035 21.8611 117.071 18.6374 119.144 16.1204C121.251 13.6035 124.031 12.345 127.485 12.345C130.939 12.345 133.634 13.5689 135.568 16.017ZM135.36 23.9298C135.326 21.137 134.635 18.9304 133.288 17.3099C131.941 15.6549 130.007 14.8274 127.485 14.8274C124.964 14.8274 122.978 15.6549 121.527 17.3099C120.111 18.9649 119.317 21.1715 119.144 23.9298H135.36ZM196.436 12.8622H194.208C194.035 12.8622 193.949 12.9483 193.949 13.1207V38.4627C193.949 38.6353 194.035 38.7213 194.208 38.7213H196.436C196.609 38.7213 196.695 38.6353 196.695 38.4627V13.1208C196.695 12.9484 196.609 12.8622 196.436 12.8622ZM16.9102 11.0361C16.0041 11.259 15.1037 11.5012 14.2062 11.7523C14.5238 10.9101 14.9087 10.0975 15.3619 9.32238C17.262 6.07265 19.9265 4.16176 21.8272 3.131L21.2979 0.718743C16.8298 0.422277 12.3426 0.697842 7.96113 1.53899C5.24772 2.05995 2.58844 2.7943 0 3.73338V6.47891C2.73662 5.42701 5.55997 4.61816 8.44756 4.06368C11.3377 3.5088 14.2763 3.21271 17.224 3.17777C15.7923 4.39007 14.3355 5.97728 13.1375 8.02645C12.2944 9.4683 11.6529 11.0195 11.2195 12.6469C7.38359 13.8679 3.63473 15.3426 2.70508e-05 17.0722V19.9284C5.58951 17.1699 11.4622 15.0245 17.5266 13.5326C24.0558 11.926 30.7308 11.0923 37.4398 11.0413C34.9175 12.4682 32.1472 14.5831 29.746 17.6962C26.3975 22.0375 25.1012 26.5688 24.6384 29.99C25.5064 29.1899 26.5406 28.3607 27.7165 27.6306C28.3751 25.0531 29.5895 22.1136 31.7867 19.2649C35.0013 15.0971 38.9502 12.9188 41.8075 11.8076V8.54531C33.4247 8.19565 25.0574 9.03175 16.9102 11.0361ZM22.879 36.3919C21.3706 34.318 19.5527 32.6048 17.4559 31.2836C11.3619 27.4441 4.56782 28.0222 0 29.152V31.7979C4.07685 30.6841 10.4596 29.916 16.0812 33.4579C18.3764 34.904 20.2933 36.902 21.7789 39.3965L23.9997 39.3847C25.0382 37.598 26.9414 35.0583 30.1113 33.1054C33.5453 30.9898 36.9386 30.4807 39.2503 30.4386V27.866C36.6086 27.9086 32.7069 28.4851 28.7586 30.9176C26.0573 32.5817 24.161 34.6175 22.879 36.3919Z" fill="#020A08"/>
</svg>
