<svg width="152" height="57" viewBox="0 0 152 57" fill="none" xmlns="http://www.w3.org/2000/svg">
<path d="M5.49452 43.8181C8.36552 43.8181 10.104 45.1724 10.104 47.6103C10.104 50.0481 8.36552 51.4025 5.49452 51.4025H2.63925V55.9277H1.02844V43.8181H5.49452ZM5.54223 49.9686C7.40842 49.9686 8.42923 49.2037 8.42923 47.6103C8.42923 46.0168 7.40842 45.2522 5.54223 45.2522H2.63925V49.9686H5.54223ZM18.5093 50.4307V55.9278H16.9462V54.1751C16.356 55.3701 15.6543 56.103 13.9955 56.103C12.4005 56.103 11.1245 54.9398 11.1245 53.3624C11.1245 51.3708 13.1181 50.9883 14.6495 50.829L16.9462 50.5899V50.4147C16.9462 49.2993 16.3242 48.3592 14.9683 48.3592C13.7721 48.3592 13.1021 49.0921 12.9907 49.9048H11.3957C11.5871 48.2955 12.9587 47.212 14.9684 47.212C17.5682 47.212 18.5093 48.8372 18.5093 50.4307ZM16.9462 52.2949V51.6575L15.2395 51.8329C14.0593 51.9602 12.7196 52.1195 12.7196 53.3623C12.7196 54.4619 13.5807 55.0673 14.5698 55.0673C16.1489 55.0673 16.9462 53.8244 16.9462 52.2949ZM22.4646 49.2197C22.8474 48.0247 23.6928 47.212 25.2716 47.212V48.7576H24.7933C23.23 48.7576 22.4646 49.2515 22.4646 50.7811V55.9277H20.9015V47.3872H22.4646V49.2197ZM31.3802 54.7486V55.9278H30.2636C28.7803 55.9278 27.6158 55.2107 27.6158 53.5856V48.5664H25.8136V47.3873H27.6158V45.3637H29.1791V47.3873H31.3482V48.5664H29.1791V53.5856C29.1791 54.4937 29.6417 54.7486 30.4231 54.7486H31.3802ZM36.4831 51.6575C36.4831 49.0125 38.1102 47.212 40.6463 47.212C43.1825 47.212 44.7933 49.0125 44.7933 51.6575C44.7933 54.3025 43.1822 56.103 40.6463 56.103C38.1105 56.103 36.4831 54.3025 36.4831 51.6575ZM43.1982 51.6575C43.1982 49.6498 42.2731 48.3592 40.6463 48.3592C39.0196 48.3592 38.0782 49.6498 38.0782 51.6575C38.0782 53.6652 39.0193 54.9558 40.6463 54.9558C42.2734 54.9558 43.1982 53.6652 43.1982 51.6575ZM50.1204 44.9972C49.3388 44.9972 48.8762 45.2522 48.8762 46.1922V47.3873H51.0775V48.5664H48.8762V55.9278H47.3132V48.5664H45.5427V47.3873H47.3132V46.1922C47.3132 44.551 48.4617 43.8181 49.961 43.8181H51.0775V44.9972H50.1204ZM63.5995 54.6828L61.2565 43.819H55.5858V50.3009L63.1859 55.9277H64.1509L71.751 50.3009V43.819H66.0804L63.7373 54.6828C63.7213 54.7568 63.6155 54.7568 63.5995 54.6828ZM70.3365 55.9277C71.1177 55.9277 71.751 55.2951 71.751 54.5147C71.751 53.7343 71.1177 53.1017 70.3365 53.1017C69.5554 53.1017 68.9221 53.7343 68.9221 54.5147C68.9221 55.2951 69.5554 55.9277 70.3365 55.9277ZM13.1129 36.9866C9.13557 36.9866 5.965 35.985 3.59954 33.9816C1.23412 31.978 0.0336978 29.1269 0 25.4285C0 25.2575 0.0852246 25.1715 0.257097 25.1715H2.46837C2.63947 25.1715 2.72547 25.2575 2.72547 25.4285C2.75917 28.4425 3.75388 30.6939 5.7079 32.1836C7.66205 33.6733 10.25 34.4183 13.4728 34.4183C16.2151 34.4183 18.5034 33.699 20.3378 32.2606C22.1714 30.8223 23.0889 28.8878 23.0889 26.4559C23.0889 24.8465 22.6687 23.5454 21.829 22.5516C20.9886 21.5588 19.9087 20.8565 18.5894 20.4455C17.2693 20.0345 15.8037 19.7183 14.1927 19.4952C12.581 19.2728 10.9699 19.0161 9.359 18.7245C7.74717 18.434 6.28165 18.0141 4.96231 17.4661C3.64218 16.9187 2.56238 16.0107 1.72264 14.7434C0.882238 13.4767 0.462828 11.8667 0.462828 9.9147C0.462828 6.72969 1.59416 4.28152 3.85667 2.56866C6.11931 0.856578 9.10188 0 12.8044 0C16.4376 0 19.335 0.933588 21.4947 2.79969C23.6546 4.66684 24.7513 7.2947 24.7858 10.6851C24.7858 10.8569 24.6999 10.9421 24.5287 10.9421H22.3175C22.1455 10.9421 22.0604 10.8569 22.0604 10.6851C21.9575 5.27431 18.7516 2.56866 12.4443 2.56866C9.70129 2.56866 7.51571 3.22852 5.88788 4.54635C4.25927 5.86525 3.44534 7.67189 3.44534 9.96604C3.44534 11.4387 3.86475 12.6203 4.70516 13.5105C5.54478 14.4013 6.6247 15.0258 7.94482 15.3855C9.26416 15.7451 10.7297 16.0364 12.3415 16.2588C13.9524 16.482 15.5633 16.7557 17.1752 17.0808C18.7863 17.4067 20.2518 17.869 21.5719 18.4678C22.8912 19.0674 23.971 20.0177 24.8114 21.3188C25.6512 22.6207 26.0714 24.2644 26.0714 26.2503C26.0714 29.538 24.8453 32.1498 22.3946 34.0843C19.9431 36.0196 16.849 36.9866 13.1129 36.9866ZM33.7128 14.0241C35.7866 11.5246 38.5377 10.2741 41.9661 10.2741C45.3946 10.2741 48.0679 11.4814 49.9881 13.8958C51.9076 16.3101 52.8333 19.6413 52.765 23.8872C52.765 24.059 52.6791 24.1442 52.5079 24.1442H33.6357C33.7385 27.4319 34.501 29.9835 35.9241 31.7983C37.3462 33.6138 39.4119 34.521 42.1204 34.521C44.2457 34.521 45.9853 34.0248 47.3399 33.0313C48.6938 32.0382 49.5422 30.6512 49.8853 28.8702C49.9536 28.6992 50.0564 28.6133 50.1938 28.6133H52.1993C52.4387 28.6133 52.5248 28.6992 52.4564 28.8702C51.9422 31.4386 50.7675 33.4341 48.934 34.8549C47.0996 36.2763 44.8113 36.9867 42.069 36.9867C38.4002 36.9867 35.572 35.7626 33.5843 33.3136C31.5956 30.8655 30.6017 27.6373 30.6017 23.6305C30.6017 19.7262 31.6383 16.5244 33.7128 14.0241ZM47.7256 15.1801C46.3885 13.5539 44.4682 12.7401 41.9661 12.7401C39.4641 12.7401 37.5005 13.5618 36.0782 15.2058C34.6553 16.8495 33.8583 19.0417 33.6871 21.7812H49.7825C49.7479 19.0072 49.0626 16.8071 47.7256 15.1801ZM65.9958 36.9867C63.0816 36.9867 60.8792 36.3365 59.388 35.0347C57.8966 33.7336 57.151 31.8842 57.151 29.4866C57.151 27.8091 57.5881 26.4389 58.4624 25.3769C59.3365 24.316 60.4421 23.5967 61.7791 23.2195C63.116 22.8431 64.5471 22.518 66.0729 22.2435C67.5979 21.9698 69.0298 21.7812 70.3667 21.6785C71.7037 21.5755 72.8093 21.3018 73.6834 20.8565C74.5576 20.4117 74.9948 19.7778 74.9948 18.9558C74.9948 16.8673 74.429 15.3084 73.2978 14.2811C72.1665 13.2538 70.349 12.7401 67.847 12.7401C65.8238 12.7401 64.1525 13.2713 62.8332 14.3325C61.5131 15.3944 60.8188 16.9354 60.7506 18.9558C60.7506 19.1274 60.6647 19.2125 60.4935 19.2125H58.2823C58.1103 19.2125 58.0252 19.1274 58.0252 18.9558C58.1618 16.148 59.1823 13.9985 61.0849 12.5088C62.9875 11.019 65.2413 10.2741 67.847 10.2741C70.8978 10.2741 73.3058 10.9853 75.0718 12.4061C76.8371 13.8276 77.7201 16.0453 77.7201 19.0585V32.6203C77.7201 34.1613 78.6457 34.6582 80.4969 34.1099C80.5308 34.0762 80.5653 34.0762 80.5999 34.1099C80.6336 34.1445 80.6513 34.1959 80.6513 34.264V36.3189C80.6513 36.4216 80.5999 36.4897 80.4969 36.5243C79.6396 36.6953 78.9197 36.7813 78.3372 36.7813C76.1084 36.7813 74.9948 35.5315 74.9948 33.0312V31.2332C74.1719 32.9799 72.9547 34.3755 71.3437 35.4199C69.732 36.4648 67.9499 36.9867 65.9958 36.9867ZM66.0472 34.5723C68.8578 34.5723 71.0521 33.6909 72.6293 31.9266C74.2058 30.1632 74.9948 27.8429 74.9948 24.9662V22.7572C74.1029 23.2025 72.7321 23.571 70.8809 23.8615C69.0298 24.1528 67.3584 24.3841 65.8672 24.5552C64.376 24.7267 63.047 25.2229 61.8819 26.0449C60.7161 26.8669 60.1336 28.0144 60.1336 29.4866C60.1336 31.1995 60.6735 32.4749 61.7534 33.3136C62.8332 34.1532 64.2643 34.5723 66.0472 34.5723ZM105.046 0.513936C105.217 0.513936 105.303 0.599583 105.303 0.770636V2.82536C105.303 2.99719 105.217 3.08233 105.046 3.08233H92.6533V36.216C92.6533 36.3878 92.5673 36.473 92.3962 36.473H90.185C90.013 36.473 89.9278 36.3878 89.9278 36.216V3.08233H77.535C77.363 3.08233 77.2779 2.99719 77.2779 2.82536V0.770636C77.2779 0.599583 77.363 0.513936 77.535 0.513936H105.046ZM106.357 14.0241C108.431 11.5246 111.182 10.2741 114.611 10.2741C118.039 10.2741 120.713 11.4814 122.633 13.8958C124.552 16.3101 125.478 19.6413 125.41 23.8872C125.41 24.059 125.324 24.1442 125.153 24.1442H106.28C106.383 27.4319 107.146 29.9835 108.569 31.7983C109.991 33.6138 112.057 34.521 114.765 34.521C116.89 34.521 118.63 34.0248 119.985 33.0313C121.338 32.0382 122.187 30.6512 122.53 28.8702C122.598 28.6992 122.701 28.6133 122.838 28.6133H124.844C125.083 28.6133 125.169 28.6992 125.101 28.8702C124.587 31.4386 123.412 33.4341 121.579 34.8549C119.744 36.2763 117.456 36.9867 114.714 36.9867C111.045 36.9867 108.217 35.7626 106.229 33.3136C104.24 30.8655 103.246 27.6373 103.246 23.6305C103.246 19.7262 104.283 16.5244 106.357 14.0241ZM120.37 15.1801C119.033 13.5539 117.113 12.7401 114.611 12.7401C112.109 12.7401 110.145 13.5618 108.723 15.2058C107.3 16.8495 106.503 19.0417 106.332 21.7812H122.427C122.393 19.0072 121.707 16.8071 120.37 15.1801ZM141.433 36.9867C137.901 36.9867 135.073 35.7537 132.948 33.288C130.822 30.8223 129.76 27.6037 129.76 23.6305C129.76 19.6573 130.822 16.4385 132.948 13.9728C135.073 11.5071 137.901 10.2741 141.433 10.2741C144.21 10.2741 146.575 11.0279 148.529 12.5344C150.483 14.0419 151.631 15.994 151.974 18.3908C152.043 18.5623 151.974 18.6475 151.769 18.6475H149.558C149.42 18.6475 149.317 18.5623 149.249 18.3908C148.94 16.7468 148.074 15.3855 146.652 14.3068C145.229 13.2281 143.49 12.6884 141.433 12.6884C138.69 12.6884 136.556 13.7336 135.031 15.8221C133.505 17.9114 132.742 20.5144 132.742 23.6305C132.742 26.7126 133.522 29.3069 135.082 31.413C136.642 33.5193 138.759 34.5723 141.433 34.5723C143.523 34.5723 145.255 34.0932 146.627 33.134C147.997 32.1755 148.871 30.7542 149.249 28.8702C149.283 28.6992 149.386 28.6133 149.558 28.6133H151.769C151.974 28.6133 152.043 28.7162 151.974 28.9216C151.494 31.6272 150.294 33.6476 148.375 34.9833C146.454 36.319 144.14 36.9867 141.433 36.9867Z" fill="#4B4B4B"/>
</svg>
