<svg width="67" height="100" viewBox="0 0 67 100" fill="none" xmlns="http://www.w3.org/2000/svg">
<path fill-rule="evenodd" clip-rule="evenodd" d="M52.4571 59.7925C47.1526 65.2789 45.5789 73.4067 48.0539 83.1761C43.2529 79.4998 39.3258 74.7144 35.9639 69.731L36.7364 68.0283C39.3644 72.0996 42.0706 74.9237 44.673 77.1162C45.0256 65.662 48.1766 61.2005 50.4601 59.024C51.0269 58.4831 52.4973 57.3503 53.3108 57.4951C59.6109 57.6808 53.902 65.2713 52.4571 59.7925Z" fill="#1B1B1B"/>
<path fill-rule="evenodd" clip-rule="evenodd" d="M13.9955 73.7651C19.3 68.2787 20.8737 60.1509 18.3987 50.3816C23.1997 54.0579 27.1268 58.8433 30.4888 63.8266L29.7161 65.5294C27.0882 61.4581 24.382 58.6339 21.7796 56.4414C21.4268 67.8956 18.2759 72.3571 15.9925 74.5337C15.4257 75.0746 13.9551 76.2073 13.1416 76.0626C6.84174 75.8769 12.5504 68.2864 13.9955 73.7651Z" fill="#1B1B1B"/>
<path fill-rule="evenodd" clip-rule="evenodd" d="M32.4487 66.4326C29.0801 73.516 21.6525 81.7582 18.8198 83.7427C19.9205 79.6137 19.8178 75.3496 19.6916 71.792L20.881 68.7929C21.5047 71.3525 21.7947 74.4708 22.0253 77.6868C24.5116 75.7808 27.6008 71.9058 31.6565 64.6392L32.4487 66.4326Z" fill="#1B1B1B"/>
<path fill-rule="evenodd" clip-rule="evenodd" d="M17.7145 65.6895C16.5717 63.2217 15.3112 61.3916 13.8413 60.6877C12.6548 65.8567 7.15172 59.6842 11.8574 58.3873C12.3442 58.2531 12.7912 58.2793 13.7139 58.4192C15.5466 59.3136 17.1867 60.5079 18.2985 62.5137C18.2113 63.5396 18.0625 64.6641 17.7145 65.6895Z" fill="#1B1B1B"/>
<path fill-rule="evenodd" clip-rule="evenodd" d="M33.5105 65.4801C30.9093 60.6941 29.2603 55.4023 28.6194 49.5714C28.3057 37.5852 37.2733 41.0208 37.1465 47.135C37.1169 51.8268 36.4586 56.6857 34.841 61.3459L33.7169 58.5147C34.9235 55.7807 35.1927 52.2561 35.4802 48.6011C36.1248 42.9528 28.9787 40.9336 30.4759 50.1841C31.379 54.9778 32.3941 59.6687 34.6306 63.6735L33.5105 65.4801Z" fill="#1B1B1B"/>
<path fill-rule="evenodd" clip-rule="evenodd" d="M34.0049 67.1247C37.3733 60.0413 44.8012 51.7991 47.6336 49.8146C46.5332 53.9435 46.6358 58.2076 46.762 61.7653L45.5726 64.7644C44.9487 62.2047 44.6589 59.0865 44.4283 55.8704C41.942 57.7765 38.8528 61.6515 34.7971 68.9181L34.0049 67.1247Z" fill="#1B1B1B"/>
<path fill-rule="evenodd" clip-rule="evenodd" d="M48.7388 67.8678C49.8814 70.3356 51.1422 72.1657 52.612 72.8696C53.7984 67.7005 59.3016 73.873 54.5959 75.17C54.1091 75.3041 53.6621 75.278 52.7394 75.1381C50.9067 74.2436 49.2666 73.0494 48.1548 71.0435C48.242 70.0176 48.3908 68.8931 48.7388 67.8678Z" fill="#1B1B1B"/>
<path fill-rule="evenodd" clip-rule="evenodd" d="M31.2022 62.2565L33.5468 67.2511L33.4725 67.4075C31.5702 71.4076 28.3772 75.6797 25.2744 79.2216C22.1741 82.7605 19.133 85.6051 17.5153 86.7385L16.6924 87.315L16.9512 86.344C18.1696 81.7733 18.5436 76.7527 18.4035 72.8072L18.3995 72.6945L18.4596 72.599C19.5349 70.8913 20.417 68.9499 20.9806 66.6008L21.6927 66.5995C21.7532 66.8478 21.8129 67.0908 21.8717 67.3299C22.4349 69.6224 22.9103 71.5579 23.1696 74.399C24.6891 72.6993 25.6552 71.1406 27.6963 67.8475C28.5297 66.503 29.5422 64.8695 30.8447 62.8192L31.2022 62.2565ZM28.3554 68.1762C26.0493 71.8973 25.0627 73.4892 23.1377 75.5137L22.5662 76.1146L22.5069 75.2874C22.2939 72.3196 21.8597 70.37 21.3165 68.1428C20.7591 69.9367 20.0119 71.4922 19.1395 72.8937C19.261 76.5873 18.9413 81.1892 17.9157 85.5131C19.5745 84.1692 22.1166 81.7142 24.7233 78.7387C27.7662 75.2654 30.867 71.1166 32.7362 67.2484L31.1059 63.7754C29.9972 65.5271 29.1063 66.9645 28.3554 68.1762Z" fill="#1B1B1B"/>
<path fill-rule="evenodd" clip-rule="evenodd" d="M15.8775 46.6239L16.714 47.2644C22.1061 51.3932 27.6986 57.2091 31.4777 62.8109L31.6111 63.0087L28.979 67.1997L28.6663 66.7205C28.559 66.5559 28.4549 66.3963 28.3538 66.2412C25.8813 62.4493 25.1958 61.3979 22.8572 59.2135C22.1162 70.764 17.8275 75.3531 14.7139 77.0386C14.266 77.281 13.675 77.4058 13.0914 77.4444C12.5029 77.4833 11.8848 77.4369 11.365 77.3092L11.3395 77.3029L11.3151 77.293C10.0475 76.7804 9.33859 75.8587 9.07613 74.8338C8.81726 73.823 8.997 72.7337 9.45461 71.859C9.9103 70.988 10.6718 70.2775 11.6212 70.1085C12.4908 69.9538 13.4248 70.2684 14.3112 71.1539C16.8633 67.7598 17.9907 64.6083 18.1697 61.0284C18.3559 57.3065 17.5188 53.1026 16.1363 47.6453L15.8775 46.6239ZM17.1055 48.4994C18.335 53.4697 19.0813 57.4674 18.9014 61.065C18.7081 64.9304 17.4475 68.3146 14.6274 71.9467L14.3523 72.3011L14.0601 71.9606C13.198 70.9557 12.3895 70.7161 11.7496 70.83C11.0892 70.9475 10.4897 71.461 10.1037 72.1987C9.71969 72.9328 9.57712 73.837 9.78583 74.652C9.98934 75.4466 10.5309 76.1775 11.5653 76.6037C11.9981 76.7067 12.5292 76.7472 13.0431 76.7132C13.572 76.6783 14.046 76.5669 14.3651 76.3942C17.2603 74.8269 21.5835 70.3472 22.1694 58.4005L22.2074 57.624L22.782 58.1477C25.6639 60.7744 26.2967 61.7448 28.9638 65.8353C28.9649 65.8371 28.9661 65.8389 28.9673 65.8407L30.7366 63.0235C27.2043 57.8419 22.1121 52.4806 17.1055 48.4994Z" fill="#1B1B1B"/>
<path fill-rule="evenodd" clip-rule="evenodd" d="M13.5741 57.7448C11.6832 57.4541 10.6545 58.0795 10.3012 58.3728L10.3011 58.3729C9.55276 58.9939 9.30828 59.7397 9.36821 60.4594C9.42948 61.1952 9.81272 61.9278 10.3649 62.4716C10.9193 63.0174 11.6031 63.3346 12.2352 63.3108C12.8414 63.288 13.4788 62.9487 13.969 62.0106L14.1872 61.5931L14.5381 61.9074C15.2635 62.5574 15.7051 63.1016 16.1003 63.8806C16.4077 64.4862 16.6871 65.2353 17.0604 66.2782C17.2867 65.72 17.527 65.0122 17.7286 64.28C18.0332 63.1732 18.2281 62.0855 18.1817 61.4142C16.7992 59.5751 15.528 58.7023 13.5741 57.7448ZM9.83336 57.809C10.3418 57.3868 11.5968 56.6831 13.7439 57.0297L13.7974 57.0384L13.8462 57.0622C15.9301 58.079 17.3246 59.029 18.8313 61.0596L18.8902 61.139L18.9012 61.2372C18.9922 62.0508 18.7549 63.312 18.4349 64.4745C18.112 65.6475 17.6812 66.8029 17.3356 67.4221L16.9421 68.1271L16.6708 67.3666C16.6351 67.2665 16.6003 67.169 16.5664 67.074C16.0842 65.7208 15.7812 64.8708 15.4471 64.2122C15.161 63.6484 14.8524 63.2269 14.3761 62.7589C13.8071 63.6067 13.0589 64.0131 12.2627 64.043C11.3737 64.0765 10.5044 63.6372 9.85095 62.9937C9.19537 62.3482 8.71626 61.4586 8.63812 60.5203C8.55865 59.5659 8.8977 58.5855 9.83327 57.809" fill="#1B1B1B"/>
<path fill-rule="evenodd" clip-rule="evenodd" d="M28.2025 49.1032C28.7816 55.0046 30.2287 60.6197 33.0878 66.3732L34.8087 62.8659C33.8822 60.9055 33.2843 59.3454 32.8477 57.9226L32.718 57.6132L32.7323 57.5369C32.2943 56.0359 32.0243 54.6653 31.7163 53.1014C31.541 52.2117 31.3534 51.2593 31.1155 50.1847L31.1123 50.1704L31.1103 50.1559C30.8314 48.1482 30.9278 46.7049 31.2521 45.7748C31.4146 45.3089 31.6439 44.9444 31.9399 44.7138C32.2465 44.4748 32.607 44.3951 32.9681 44.4816C33.6511 44.6451 34.2187 45.3624 34.5595 46.328C34.91 47.3212 35.061 48.6745 34.8412 50.2984L34.84 50.3068C34.5512 52.1242 34.4803 52.4658 34.3031 53.3212C34.1589 54.0171 33.9443 55.0529 33.4845 57.4996C33.5013 57.5558 33.5183 57.6122 33.5356 57.6688L35.287 61.8458C37.1363 56.913 37.6557 51.3999 37.6932 46.4603C37.5596 43.3214 35.0396 40.9886 32.6771 40.9056C31.5187 40.8649 30.3723 41.3612 29.5242 42.6221C28.667 43.8967 28.1017 45.9755 28.2025 49.1032ZM35.2449 63.6396L35.301 63.7732L35.6365 62.9584C37.8065 57.6893 38.3863 51.7162 38.4257 46.4568L38.4254 46.439C38.2819 42.9491 35.4852 40.2713 32.7028 40.1735C31.2877 40.1238 29.9036 40.7457 28.9165 42.2132C27.9397 43.6655 27.3655 45.922 27.4709 49.1391L27.4713 49.1509L27.4724 49.1628C28.0807 55.3742 29.6397 61.2851 32.7672 67.3621L33.1006 68.01L35.2449 63.6396ZM33.0485 55.8693C33.3267 54.4209 33.4791 53.6864 33.589 53.1573C33.762 52.3234 33.8292 51.9997 34.1159 50.196C34.3223 48.6671 34.1736 47.4354 33.8688 46.5719C33.5541 45.68 33.1104 45.2689 32.7976 45.194C32.6607 45.1612 32.5272 45.1847 32.3901 45.2916C32.2422 45.4068 32.0781 45.6308 31.9437 46.016C31.6751 46.7863 31.5644 48.0916 31.8338 50.0407C32.0754 51.1331 32.2647 52.0936 32.4404 52.9849C32.6416 54.0057 32.825 54.9357 33.0485 55.8693Z" fill="#1B1B1B"/>
<path fill-rule="evenodd" clip-rule="evenodd" d="M49.9329 46.3978L49.7067 47.2465C48.4886 51.817 48.1143 56.8378 48.2543 60.7833L48.2583 60.8961L48.1982 60.9915C47.1088 62.7217 46.0444 64.5951 45.4852 66.926L44.7732 66.9273C44.1212 64.2525 43.7361 62.2659 43.4768 59.0909C41.1303 61.2176 39.8603 63.1725 35.8273 70.7471L35.4834 71.393L33.1128 66.3431L33.1826 66.1891C35.0819 62.0003 37.9822 57.7929 40.9465 54.3241C43.9056 50.8613 46.9563 48.102 49.1708 46.8342L49.9329 46.3978ZM33.9199 66.3382L35.5249 69.7573C39.5806 62.1669 40.7882 60.4343 43.5465 58.0518L44.099 57.5745L44.1513 58.3029C44.3648 61.2813 44.6682 63.1943 45.1655 65.3981C45.7745 63.6033 46.6486 62.0833 47.5183 60.6965C47.3956 56.9649 47.7234 52.3062 48.7741 47.944C46.7412 49.3043 44.1034 51.7576 41.5034 54.8002C38.607 58.1895 35.7845 62.2787 33.9199 66.3382Z" fill="#1B1B1B"/>
<path fill-rule="evenodd" clip-rule="evenodd" d="M53.6136 56.683C53.1103 56.6257 52.7034 56.6578 52.4218 56.8103C49.5242 58.3778 44.9468 63.1196 44.3612 75.0617L44.3231 75.8383L43.7486 75.3146C40.9116 72.7287 40.2235 71.6727 37.6596 67.7382C37.6239 67.6833 37.5877 67.6278 37.5512 67.5718L35.9133 70.5547C39.4459 75.7402 44.5421 81.1066 49.5528 85.0912C48.3194 80.1093 47.5435 76.0229 47.6929 72.337C47.8533 68.3783 49.0798 64.8961 51.9031 61.2597L52.2003 60.877L52.4874 61.2672C53.3105 62.3855 54.1101 62.6899 54.7453 62.6221C55.3998 62.5523 56.014 62.0749 56.4254 61.3559C56.8345 60.6409 57.0073 59.7433 56.8233 58.9318C56.6442 58.1422 56.1237 57.4114 55.0926 56.9865C55.0661 56.98 55.0395 56.9734 55.0128 56.9668C54.5565 56.8544 54.0736 56.7354 53.6136 56.683ZM55.1807 56.2535C55.2189 56.2629 55.2565 56.2722 55.2935 56.2813L55.3191 56.2876L55.3435 56.2975C56.6143 56.8115 57.3046 57.7416 57.5377 58.7697C57.7673 59.782 57.5498 60.866 57.0612 61.7198C56.575 62.5696 55.7842 63.2481 54.823 63.3507C53.9483 63.444 53.0369 63.0511 52.1988 62.0803C49.6665 65.4662 48.5735 68.7013 48.4249 72.3667C48.27 76.1867 49.1396 80.4882 50.5221 85.9453L50.7809 86.9668L49.9443 86.3262C44.5523 82.1973 38.9598 76.3816 35.1807 70.7797L35.0557 70.5944L37.4972 66.1478L37.831 66.6595C37.9831 66.8926 38.1288 67.1162 38.2688 67.331C40.6447 70.9769 41.3715 72.0922 43.6737 74.2484C44.4256 62.6826 48.9633 57.8483 52.073 56.1659M55.1807 56.2535C54.7332 56.1431 54.2058 56.0129 53.6964 55.9549L55.1807 56.2535ZM53.6964 55.9549C53.1511 55.8929 52.557 55.9039 52.073 56.1659L53.6964 55.9549Z" fill="#1B1B1B"/>
<path fill-rule="evenodd" clip-rule="evenodd" d="M49.4605 65.2078L49.7319 65.9684C50.7155 68.7253 51.1989 69.7689 52.283 70.832C52.852 69.9841 53.6002 69.5778 54.3964 69.5478C55.2854 69.5144 56.1547 69.9537 56.8081 70.5971C57.4637 71.2427 57.9428 72.1322 58.021 73.0706C58.1005 74.025 57.7615 75.0055 56.8259 75.7819C56.3174 76.2039 55.0624 76.9078 52.9151 76.5611L52.8616 76.5525L52.8129 76.5287C50.7292 75.5119 49.3345 74.5617 47.8278 72.5313L47.7689 72.4519L47.7579 72.3536C47.6685 71.5542 47.8341 70.2403 48.0906 69.0108C48.3471 67.7815 48.7133 66.5471 49.067 65.9131L49.4605 65.2078ZM48.4769 72.1761C49.8596 74.0154 51.131 74.8885 53.0849 75.8461C54.9759 76.1368 56.0046 75.5114 56.358 75.218L56.3581 75.218C57.1064 74.5969 57.3508 73.8512 57.2909 73.1314C57.2296 72.3956 56.8464 71.6631 56.2942 71.1193C55.7398 70.5734 55.056 70.2563 54.4239 70.2801C53.8178 70.3028 53.1804 70.6422 52.6902 71.5803L52.4721 71.9978L52.1212 71.6835C50.8022 70.502 50.2426 69.4803 49.3603 67.0935C49.1635 67.6641 48.9673 68.3961 48.8078 69.1605C48.5645 70.3264 48.4238 71.4861 48.4769 72.1761Z" fill="#1B1B1B"/>
<path d="M33.8926 66.2279C37.02 72.3048 38.579 78.2157 39.1875 84.4271L39.1885 84.4398V84.4515C39.2937 87.6686 38.7114 89.9184 37.7207 91.3597C36.7191 92.8167 35.3167 93.4201 33.8877 93.3529C31.0828 93.2208 28.2566 90.5224 28.1064 87.0365C27.4992 81.5235 28.8678 75.8642 31.0225 70.6322L31.3584 69.8168L31.4141 69.9506L33.5586 65.5804L33.8926 66.2279ZM33.0488 68.2797C35.5873 73.0125 37.202 78.2366 37.834 83.9857C38.1474 95.9715 29.1798 92.5354 29.3066 86.4213C29.3362 81.7494 29.9893 76.912 31.5918 72.2699L31.3682 71.7357C29.4335 76.6713 28.2753 81.9028 28.8359 86.9681L28.8379 86.9935C28.9672 90.1341 31.5204 92.5076 33.9229 92.6205C35.0993 92.6757 36.2596 92.1922 37.1172 90.9447C37.9843 89.6831 38.5577 87.6137 38.457 84.4867C37.8777 78.5853 36.4303 72.9705 33.5713 67.2172L33.0488 68.2797ZM31.8506 70.724C32.7771 72.6845 33.375 74.2455 33.8115 75.6683L33.9414 75.9769L33.9268 76.0531C34.3649 77.5544 34.6352 78.9253 34.9434 80.4896C35.1185 81.379 35.3062 82.3315 35.5439 83.4056L35.5469 83.4193L35.5488 83.434C35.8278 85.4417 35.7316 86.8856 35.4072 87.8158C35.2448 88.2814 35.0155 88.6457 34.7197 88.8763C34.4132 89.1152 34.0524 89.1951 33.6914 89.1088C33.0084 88.9452 32.4404 88.2277 32.0996 87.2621C31.7492 86.269 31.5986 84.9159 31.8184 83.2924L31.8193 83.2836C32.108 81.467 32.1794 81.1245 32.3564 80.2699C32.5006 79.574 32.715 78.5379 33.1748 76.0902C33.1581 76.0342 33.1412 75.9777 33.124 75.9213L32.4004 74.1967L32.7363 75.0424C31.5297 77.7763 31.2603 81.3007 30.9727 84.9554C30.3283 90.6037 37.4747 92.623 35.9775 83.3724C35.1063 78.7476 34.1298 74.2186 32.0537 70.309L31.8506 70.724ZM33.6104 77.7211C33.332 79.1702 33.1802 79.9048 33.0703 80.434C32.8974 81.2669 32.8295 81.5914 32.543 83.3939C32.3366 84.9224 32.4854 86.1545 32.79 87.0179C33.1046 87.9093 33.5486 88.3207 33.8613 88.3959C33.9982 88.4286 34.1324 88.4051 34.2695 88.2982C34.4172 88.183 34.5816 87.9594 34.7158 87.5746C34.9844 86.8043 35.0946 85.4984 34.8252 83.5492C34.5838 82.4575 34.3943 81.4976 34.2188 80.6068C34.0175 79.5856 33.834 78.655 33.6104 77.7211Z" fill="#1B1B1B"/>
<path d="M31.7754 -0.00537109C32.5352 -0.0052221 33.2656 0.285276 33.8057 0.805176C34.346 1.32545 34.6523 2.03295 34.6523 2.77295C34.6523 3.32469 34.4824 3.86367 34.165 4.3208C34.0711 4.45615 33.9634 4.58054 33.8477 4.69678L33.9316 4.63818L33.9521 11.1265L34.2734 10.8999C34.7043 11.3906 35.1911 11.9356 35.6738 12.3999C36.1142 12.8234 36.5321 13.1589 36.8857 13.3335L37.2168 12.8667L35.9775 10.4351L35.8574 10.1997L36.1074 10.1147L37.1504 9.75928L37.7246 8.59033L37.9502 8.13037L38.1426 8.60498L38.6045 9.75244L39.6133 10.2729L39.8594 10.3999L39.6885 10.6177L37.835 12.9751L38.001 13.3657C38.4051 13.2988 38.9325 13.0906 39.501 12.8022C40.0891 12.5038 40.7006 12.1307 41.2324 11.7769L42.2705 6.12061C42.2454 6.09726 42.2196 6.07458 42.1953 6.05029C41.793 5.64813 41.5183 5.13543 41.4072 4.57764C41.2962 4.01974 41.3536 3.44105 41.5713 2.91553C41.7892 2.38989 42.1585 1.94055 42.6318 1.62451C43.1051 1.30859 43.6614 1.1401 44.2305 1.14014C44.9935 1.14031 45.726 1.4426 46.2656 1.98193C46.805 2.52129 47.1083 3.25347 47.1084 4.01611C47.1083 4.58492 46.9392 5.1418 46.623 5.61475C46.3068 6.08764 45.8568 6.45665 45.3311 6.67432C45.2328 6.71497 45.1317 6.74749 45.0303 6.77686L45.0508 6.78076L43.5693 15.0415C43.9375 14.864 44.1583 14.5699 44.2578 14.188C44.3807 13.7159 44.3226 13.0992 44.084 12.4146L44.541 12.1987C44.8798 12.7567 45.2638 13.3776 45.6582 13.9185C46.0255 14.4221 46.3857 14.8314 46.708 15.062L47.1191 14.6558L46.3184 12.0337L46.249 11.8062L46.4844 11.77L47.5811 11.6001L48.3564 10.5405L48.6289 10.1685L48.7246 10.6196L48.9814 11.8374L49.8916 12.5317L50.0898 12.6831L49.9033 12.8491L47.6582 14.8569L47.7607 15.2993C48.1757 15.3075 48.7411 15.1933 49.3604 15.0054C50.0036 14.8101 50.6852 14.5442 51.2783 14.2837L51.3506 14.4028L53.4648 9.27588C53.4568 9.26834 53.4484 9.26105 53.4404 9.25342C53.0375 8.86552 52.7622 8.36942 52.6504 7.82861C52.5386 7.28783 52.5956 6.72705 52.8145 6.21826C53.0334 5.70959 53.4042 5.27632 53.877 4.97217C54.3496 4.66817 54.9049 4.50644 55.4717 4.50635C55.848 4.50639 56.2212 4.57754 56.5693 4.71631C56.9176 4.85519 57.2344 5.05943 57.502 5.31689C57.7696 5.57446 57.9826 5.88044 58.1279 6.21826C58.2733 6.55607 58.3486 6.91844 58.3486 7.28467C58.3486 7.83637 58.1786 8.37541 57.8613 8.83252C57.5441 9.28932 57.0937 9.64393 56.5693 9.85303C56.446 9.90218 56.3196 9.94215 56.1914 9.97412L50.1826 24.3354C51.274 26.4208 50.5379 27.3616 48.8418 27.7026L47.6006 30.8413C48.496 32.5981 48.087 33.945 46.1289 34.1099C37.321 30.7634 27.9323 31.1843 18.2637 34.8101C17.2668 34.5752 15.7008 32.6274 17.4326 31.6899L15.8311 28.3071C14.8018 28.204 13.4465 27.6086 14.3604 24.9565L8.30371 10.9653C8.2934 10.9635 8.28275 10.9634 8.27246 10.9614C7.7163 10.8549 7.2037 10.5923 6.80078 10.2046C6.39781 9.81666 6.12252 9.32061 6.01074 8.77979C5.89904 8.23895 5.95589 7.67824 6.1748 7.16943C6.39379 6.66073 6.76444 6.22746 7.2373 5.92334C7.71012 5.6193 8.26518 5.45752 8.83203 5.45752C9.59164 5.4576 10.3222 5.74752 10.8623 6.26709C11.4028 6.78733 11.7089 7.4958 11.709 8.23584C11.709 8.78756 11.5389 9.32657 11.2217 9.78369C11.13 9.91575 11.0256 10.038 10.9131 10.1519L13.1396 15.1226L13.1914 15.0298C13.7925 15.2844 14.4691 15.565 15.1074 15.7739C15.6734 15.9591 16.1889 16.0801 16.5869 16.0894L16.6875 15.4907L14.5293 13.8491L14.2959 13.6724L14.5039 13.4663L15.2803 12.7017L15.29 11.4077L15.2939 10.8394L15.7148 11.2222L16.6221 12.0464L17.748 12.0776L18.0547 12.0864L17.9893 12.3862L17.3477 15.2993L17.6396 15.5552C17.9672 15.3197 18.3438 14.9124 18.7236 14.4146C19.1299 13.882 19.5261 13.2695 19.8545 12.7124L20.0459 12.7935L18.8057 7.40186L18.6787 7.08936C18.2447 6.95584 17.8471 6.72591 17.5215 6.4126C17.1185 6.02467 16.8432 5.52866 16.7314 4.98779C16.6197 4.4469 16.6766 3.88634 16.8955 3.37744C17.1145 2.86866 17.4851 2.43549 17.958 2.13135C18.4308 1.82734 18.9859 1.66553 19.5527 1.66553C20.3123 1.66569 21.043 1.95551 21.583 2.4751C22.1235 2.9954 22.4297 3.70375 22.4297 4.44385C22.4297 4.99558 22.2597 5.53455 21.9424 5.9917C21.8301 6.15341 21.6996 6.30094 21.5566 6.43506L21.6494 6.55225L22.9609 12.2983L23.0127 12.2329C23.5666 12.5782 24.1911 12.9596 24.7881 13.2651C25.3203 13.5375 25.8101 13.738 26.1992 13.8081L26.3857 13.2515L24.5068 11.2905L24.3066 11.0815L24.542 10.9126L25.4297 10.2769L25.6416 9.00049L25.7334 8.44678L26.085 8.88428L26.8535 9.84229L27.9609 10.0483L28.2598 10.104L28.1484 10.3872L27.0596 13.1665L27.3115 13.4683C27.6729 13.287 28.1102 12.9421 28.5645 12.5083C29.049 12.0456 29.536 11.5024 29.9473 11.0034L30.1279 11.1167L30.0391 4.98779C29.9357 4.91232 29.8367 4.83076 29.7441 4.7417C29.3412 4.35379 29.0649 3.85772 28.9531 3.31689C28.8414 2.77606 28.8993 2.21537 29.1182 1.70654C29.3372 1.19771 29.7077 0.763619 30.1807 0.459473C30.6534 0.155565 31.2086 -0.00541105 31.7754 -0.00537109ZM32.3535 28.9771C26.9396 29.0632 21.5388 30.6031 17.7803 32.3149C17.3916 32.491 17.4889 33.0082 17.6768 33.3726C17.8648 33.7367 18.3338 33.8903 18.7227 33.7144C22.2904 32.0898 27.2558 30.5847 32.4443 30.5024C37.1682 30.4281 42.3217 30.9864 46.002 32.9399C46.3951 33.1056 46.7298 33.0064 46.9072 32.6382C47.0843 32.2695 46.9741 31.7023 46.5811 31.5356C42.5212 29.6861 37.2926 28.8987 32.3535 28.9771ZM17.7412 30.9937L18.8994 30.7524L18.3311 29.6968L17.7412 30.9937ZM45.7471 30.3931L46.9053 30.6343L46.3164 29.3374L45.7471 30.3931ZM19.1992 26.855C19.1281 26.6298 18.8883 26.5112 18.666 26.5913C18.4441 26.6718 18.3201 26.9208 18.3906 27.146L19.374 30.2866C19.4445 30.5116 19.6843 30.6305 19.9062 30.5503C20.1279 30.4699 20.2525 30.2211 20.1826 29.9956L19.1992 26.855ZM17.3301 30.2476L18.2715 28.7446L16.5859 28.2778L17.3301 30.2476ZM46.1152 26.0747C45.8931 25.9944 45.653 26.1133 45.582 26.3384L44.5996 29.479C44.5293 29.7048 44.6528 29.9543 44.875 30.0347C45.0969 30.1147 45.3365 29.9958 45.4072 29.771L46.3906 26.6294C46.4609 26.4043 46.337 26.1552 46.1152 26.0747ZM20.7363 26.2339C20.6654 26.0089 20.4252 25.8901 20.2031 25.9702C19.9813 26.0507 19.8573 26.2998 19.9277 26.5249L20.9111 29.6665C20.9819 29.8912 21.2213 30.0093 21.4434 29.9292C21.6651 29.8488 21.7896 29.6003 21.7197 29.3745L20.7363 26.2339ZM46.3154 28.4731L47.251 29.9526L48.0225 27.9927L46.3154 28.4731ZM44.54 25.7681C44.3177 25.6878 44.078 25.8067 44.0068 26.0317L43.0244 29.1724C42.9542 29.398 43.0779 29.6467 43.2998 29.7271C43.5218 29.8071 43.7616 29.6883 43.832 29.4634L44.8154 26.3228C44.8857 26.0976 44.7619 25.8486 44.54 25.7681ZM22.3027 28.0493C22.2061 28.0703 22.1152 28.0538 22.04 28.0112L22.415 29.2085C22.4855 29.4334 22.7253 29.5523 22.9473 29.4722C23.1691 29.3918 23.2938 29.1422 23.2236 28.9165L22.9102 27.9155L22.3027 28.0493ZM41.3623 28.7534C41.2922 28.9791 41.4158 29.2287 41.6377 29.3091C41.8597 29.3891 42.1002 29.2702 42.1709 29.0454L42.5459 27.8472C42.4704 27.8904 42.3787 27.9076 42.2812 27.8862L41.6748 27.7524L41.3623 28.7534ZM23.5186 27.7817L23.7461 28.7847C23.7985 29.0143 24.0274 29.1521 24.2549 29.0903C24.4823 29.028 24.6267 28.7896 24.5752 28.5591L24.3564 27.5972L23.5186 27.7817ZM40.0088 28.396C39.957 28.6267 40.1013 28.865 40.3291 28.9272C40.5566 28.9889 40.7857 28.8513 40.8379 28.6216L41.0645 27.6187L40.2266 27.4341L40.0088 28.396ZM25.7461 27.1431C25.6787 27.2486 25.5745 27.3306 25.4512 27.3579L24.9199 27.4741L25.0342 28.4419C25.0619 28.6762 25.2756 28.8379 25.5088 28.8003C25.7414 28.7623 25.9098 28.5399 25.8828 28.3052L25.7461 27.1431ZM38.7021 28.1431C38.6753 28.3778 38.8433 28.5995 39.0762 28.6372C39.309 28.6746 39.5232 28.513 39.5508 28.2788L39.6631 27.311L39.1328 27.1948C39.0095 27.1675 38.9052 27.0855 38.8379 26.98L38.7021 28.1431ZM26.5645 24.4185C26.3314 24.456 26.1633 24.6782 26.1904 24.9126L26.5693 28.1821C26.5967 28.4162 26.8102 28.5777 27.043 28.5405C27.2758 28.5029 27.4448 28.2812 27.418 28.0464L27.0391 24.7778C27.0114 24.5434 26.7976 24.3812 26.5645 24.4185ZM38.0215 24.2554C37.7882 24.2181 37.5747 24.3802 37.5469 24.6147L37.168 27.8833C37.1411 28.1183 37.3098 28.3402 37.543 28.3774C37.7759 28.4144 37.9892 28.2531 38.0166 28.019L38.3955 24.7495C38.4226 24.5152 38.2543 24.2931 38.0215 24.2554ZM16.75 27.6938L18.0576 28.2583L17.7949 27.104L16.75 27.6938ZM36.6133 24.229C33.5159 24.2421 30.7213 24.2707 27.8848 24.4575L28.2451 28.2173L36.416 28.1187C36.5357 26.8552 36.4936 25.4927 36.6133 24.229ZM46.5908 27.8999L47.8994 27.3345L46.8545 26.7446L46.5908 27.8999ZM34.2832 25.0698C34.9308 25.0701 35.46 25.5988 35.46 26.2466C35.4597 26.8937 34.9311 27.4241 34.2832 27.4243H30.2119C29.5642 27.4243 29.0354 26.8953 29.0352 26.2476C29.0352 25.6 29.5637 25.0698 30.2119 25.0698H34.2832ZM22.2402 25.7759C22.169 25.551 21.9292 25.4319 21.707 25.5122C21.4851 25.5926 21.3614 25.8418 21.4316 26.0669L21.8516 27.4087C21.8937 27.2098 22.0565 27.0085 22.2422 26.9692L22.5908 26.895L22.2402 25.7759ZM42.8779 25.3491C42.6559 25.2691 42.4167 25.3877 42.3457 25.6128L41.9941 26.7319L42.3428 26.8062C42.5293 26.8457 42.6913 27.0488 42.7324 27.2485L43.1543 25.9038C43.2247 25.6787 43.0998 25.4298 42.8779 25.3491ZM32.3809 21.98C26.0523 22.0661 19.6014 23.6919 15.208 25.4038C14.879 26.0455 14.99 26.6222 15.166 26.8149C15.3859 27.1785 15.8552 26.9797 16.3096 26.8032C20.4798 25.1786 26.4213 23.6861 32.4863 23.604C38.0081 23.5295 44.1298 24.3165 48.4316 26.27C48.8916 26.436 49.2831 26.3368 49.4902 25.9683C49.6972 25.5996 49.568 25.0331 49.1084 24.8667C44.3631 23.017 38.154 21.9016 32.3809 21.98ZM30.2119 25.5776C29.845 25.5776 29.543 25.8798 29.543 26.2476C29.5432 26.6148 29.8448 26.9165 30.2119 26.9165H34.2832C34.6497 26.9163 34.9509 26.614 34.9512 26.2466C34.9512 25.8794 34.6503 25.5779 34.2832 25.5776H30.2119ZM23.3379 25.0435C23.11 25.1056 22.9665 25.3445 23.0186 25.5747L23.2842 26.7485L24.124 26.5718L23.8477 25.3491C23.7948 25.1192 23.5655 24.9817 23.3379 25.0435ZM41.2461 24.8804C41.0182 24.8185 40.7892 24.9561 40.7363 25.186L40.459 26.4077L41.2988 26.5854L41.5654 25.4116C41.6175 25.1817 41.4738 24.9428 41.2461 24.8804ZM25.0254 24.6792C24.7921 24.7169 24.6239 24.9388 24.6514 25.1733L24.7979 26.4292L25.249 26.3345C25.3833 26.3063 25.547 26.3483 25.6631 26.4341L25.5 25.0376C25.4722 24.8033 25.2584 24.6419 25.0254 24.6792ZM39.5596 24.5161C39.3266 24.4785 39.1133 24.6393 39.085 24.8735L38.9209 26.271C39.0371 26.185 39.2014 26.143 39.3359 26.1714L39.7861 26.2661L39.9336 25.0093C39.9606 24.7753 39.7925 24.554 39.5596 24.5161ZM31.2148 18.0972C30.5543 19.8465 29.2737 19.6097 27.5146 18.314C26.4711 19.5988 24.7418 21.0441 23.3848 18.8413L23.375 18.7622L20.9521 7.26514L19.7295 7.5415L22.458 19.1714C22.1443 21.7619 20.1314 21.0108 18.6455 20.272C17.5813 22.1801 16.4339 22.9842 15.1084 21.6665L10.2812 10.9077L9.35156 11.2642L14.5381 23.0601C16.0181 24.8344 18.2328 24.2696 18.9775 22.2183C20.3885 23.1907 22.462 23.2148 23.5225 21.2729C25.2656 22.5759 26.9683 21.801 27.8438 20.3403C29.1918 21.7155 31.238 21.4708 32.1211 19.8628C33.4783 21.6025 35.3182 21.3231 36.542 20.1245C37.5045 21.8069 39.5811 22.0496 40.8438 20.6812C41.8388 22.8088 43.9174 22.7165 45.3838 21.7368C46.0986 23.7987 48.756 24.1535 50.2617 22.4009L54.9473 10.52L54.0244 10.1401L49.6318 21.1157C48.287 22.4145 46.8839 21.7308 45.8477 19.8071C44.3548 20.5225 42.0548 21.4904 42.1416 18.4146L42.1875 18.3276L44.0586 7.07666L43.082 6.87354L40.625 18.8081C39.5435 20.3328 38.2283 19.7012 36.8545 18.0024C35.5163 18.9839 33.3212 20.2249 32.8447 17.1567L32.8242 17.1606L32.834 17.1167L32.7314 5.83936L31.0527 5.82471L31.2148 18.0972ZM15.999 20.3394L15.7744 20.6216C16.6187 21.4242 17.6398 21.1085 18.2578 19.48L18.1768 19.4194L17.2666 18.7388L15.999 20.3394ZM15.4072 20.1841C15.5142 20.3404 15.6265 20.4758 15.7422 20.5903L15.6445 20.2729C15.4911 19.7794 15.2206 19.2532 14.8184 18.8706L15.4072 20.1841ZM50.0078 17.6577C49.3811 18.0093 49.0303 18.6628 48.8369 19.3149L48.7354 19.6597L48.4893 19.3979L47.1455 17.9634L46.3662 18.7681L46.249 18.8872C46.7293 20.6701 48.5962 21.1364 49.3428 19.272L50.0078 17.6577ZM20.8525 16.3042C20.593 16.9232 20.6867 17.6152 20.9014 18.23L21.0479 18.6479L20.6133 18.563L18.7344 18.1948L18.5801 19.2524L18.5645 19.356C20.3137 20.3174 21.2875 20.0119 21.2568 18.0581L20.8525 16.3042ZM14.1113 15.8472C14.3115 16.0868 14.4694 16.3379 14.5703 16.5981C14.7632 17.096 14.7471 17.6132 14.4736 18.1011L14.4941 18.147C15.1974 18.4951 15.6465 19.166 15.9053 19.7993L16.9385 18.4946L16.3926 18.0864L16.2686 17.9937L16.2764 17.9438L16.2607 17.9312L16.2812 17.812L16.5156 16.4946C16.0624 16.4733 15.5237 16.3394 14.9805 16.1616C14.6939 16.0678 14.4007 15.9595 14.1113 15.8472ZM43.6875 18.2222L43.2783 18.3374C43.6744 19.6137 45.0305 19.353 45.9912 18.5923L45.6963 17.6528L43.6875 18.2222ZM50.3662 15.0962C50.0715 15.2061 49.7732 15.3111 49.4805 15.3999C48.9321 15.5663 48.3914 15.6869 47.9404 15.7085L48.1484 16.8042L48.166 16.894L48.1387 16.9282L48.1416 16.937L48.1006 16.978L47.5137 17.7544L48.5557 18.8657C48.798 18.2292 49.2147 17.5828 49.9307 17.2358C49.8107 17.0369 49.738 16.835 49.7129 16.6294C49.6786 16.3477 49.736 16.0753 49.8594 15.814C49.9741 15.5711 50.1484 15.3327 50.3662 15.0962ZM16.8213 17.772L18.1396 18.7563L18.4111 16.9028L17.2227 15.8647L17.2168 15.8931L17.1445 15.8384L16.8213 17.772ZM24.1494 17.5034C24.7566 18.8939 25.724 19.1054 27.2803 17.4038L27.2412 17.3628L26.4639 16.5649L24.9609 17.9487L24.6475 18.2378L24.5859 17.8159C24.5007 17.2302 24.2715 16.5794 23.834 16.1235L24.1494 17.5034ZM40.5693 15.3882C40.0595 15.8388 39.8416 16.5105 39.7676 17.1606L39.7227 17.5571L39.4033 17.3179L37.8486 16.1528L37.2354 17.061L37.1514 17.1841C38.2754 18.4711 39.5779 18.8386 40.2627 17.062L40.5693 15.3882ZM43.1699 17.2729C43.1523 17.6691 43.1838 17.9958 43.2549 18.2612L43.377 17.897C43.5806 17.2894 43.6644 16.5428 43.4131 15.9116L43.1699 17.2729ZM47.0625 15.2905L47.0645 15.2915L46.9609 15.3921L45.8105 16.5288L46.0244 17.2974L46.0781 17.4927L46.3105 18.2319L47.6885 16.812L47.3076 15.1704L47.2832 15.1929L47.2549 15.1011L47.0625 15.2905ZM27.6611 17.2622L27.6064 17.4351C28.7632 18.2998 29.7812 18.2179 30.1807 17.0405L29.7822 16.896L27.9795 16.2378L27.6611 17.2622ZM19.5645 14.1128C19.4219 14.321 19.2768 14.5271 19.1279 14.7222C18.7936 15.1603 18.4378 15.5632 18.0928 15.8472L18.8633 16.5767L18.9443 16.6538L18.9434 16.6938L18.9541 16.7036L18.9414 16.7837L18.9199 17.7144L20.3018 17.9849C20.1443 17.3499 20.1145 16.6173 20.4619 15.9409C20.264 15.8499 20.096 15.7337 19.9609 15.5874C19.7612 15.371 19.6458 15.1074 19.5918 14.8159C19.5518 14.5998 19.5454 14.3641 19.5645 14.1128ZM34.4814 16.9731L34.1426 17.1362C34.6344 18.4785 35.7154 17.7605 36.8525 17.0571L36.8428 17.0386L36.3408 16.0728L34.4814 16.9731ZM44.8262 13.605C44.8304 13.8546 44.8069 14.0936 44.749 14.3159C44.6124 14.8405 44.2939 15.2607 43.7832 15.5044C44.1365 16.1814 44.1226 16.9583 43.9785 17.6108L45.4668 17.189L45.2773 16.5034L45.2373 16.3579L45.3447 16.2534L46.2637 15.3599C45.9174 15.0735 45.5712 14.6614 45.248 14.2183C45.1045 14.0215 44.9644 13.8141 44.8262 13.605ZM14.2471 17.5952C14.324 17.3144 14.2992 17.029 14.1895 16.7456C14.0525 16.3924 13.7817 16.0357 13.3994 15.7017L14.2471 17.5952ZM23.8408 13.2593C23.9814 13.507 24.0851 13.7582 24.1396 14.0103C24.2543 14.541 24.1569 15.0604 23.8018 15.5063C24.4448 15.9555 24.7881 16.6821 24.9502 17.3462L26.1445 16.2476L25.999 16.0874L25.6875 15.7681L25.5811 15.6577L25.5879 15.6353L25.5566 15.6011L25.6006 15.4741L26.0293 14.2319C25.5875 14.1368 25.083 13.9224 24.583 13.6665C24.337 13.5406 24.0872 13.4016 23.8408 13.2593ZM30.1865 15.0835C30.0142 15.5699 30.0237 16.1107 30.1152 16.6157L30.1875 17.02C30.1954 16.996 30.2065 16.9726 30.2139 16.9478L30.1865 15.0835ZM51.1328 14.9292C50.7 15.3068 50.3903 15.6555 50.2324 15.9897C50.1358 16.1944 50.099 16.388 50.1221 16.5786C50.1386 16.7142 50.1876 16.8562 50.2764 17.0073L51.1328 14.9292ZM33.9707 16.4409C34.0026 16.6399 34.0419 16.8145 34.0869 16.9673L34.126 16.7114C34.2055 16.1793 34.1856 15.5647 33.9658 15.0386L33.9707 16.4409ZM40.4502 12.8032C40.2041 12.9463 39.9548 13.0852 39.708 13.2104C39.2064 13.4649 38.7021 13.675 38.2646 13.7778L38.6514 14.7964L38.6875 14.8911L38.668 14.9292L38.6719 14.938L38.6387 14.9868L38.1992 15.8442L39.375 16.7241C39.506 16.069 39.8013 15.378 40.4277 14.9155C40.2817 14.7438 40.1775 14.5613 40.1182 14.3667C40.034 14.0905 40.0441 13.8081 40.1211 13.5259C40.1857 13.2891 40.3001 13.0486 40.4502 12.8032ZM26.1533 15.5269L27.3066 16.7104L27.8662 14.9155L26.8506 13.6997L26.8408 13.7261L26.7773 13.6597L26.1533 15.5269ZM36.2891 14.9673L36.3662 15.1304L37.0713 16.4858L38.1523 14.8872L37.5117 13.3853L37.4932 13.4097L37.4502 13.3257L36.2891 14.9673ZM34.7959 12.2192C34.8456 12.4689 34.8644 12.7129 34.8457 12.9458C34.8024 13.4861 34.561 13.9546 34.0996 14.2827C34.5685 14.8895 34.6887 15.6616 34.6592 16.3315L36.0615 15.6528L35.7539 15.0063L35.6904 14.8726L35.7773 14.7534L36.5293 13.7095C36.1377 13.4881 35.7239 13.1409 35.3271 12.7593C35.1486 12.5875 34.9713 12.4044 34.7959 12.2192ZM29.4443 12.3296C29.2688 12.5156 29.091 12.6998 28.9111 12.8716C28.5119 13.2528 28.0972 13.5953 27.7119 13.8218L28.3594 14.6646L28.4277 14.7534L28.4189 14.7954L28.4268 14.8042L28.4043 14.8755L28.2363 15.7974L29.5664 16.2827C29.5093 15.6295 29.5945 14.8994 30.0449 14.2847C29.8626 14.1637 29.7144 14.022 29.6035 13.856C29.4405 13.6117 29.3673 13.3343 29.3594 13.0386C29.3535 12.816 29.3848 12.5785 29.4443 12.3296ZM20.1885 13.4136C20.0686 13.9445 20.0275 14.3821 20.0908 14.7241C20.1307 14.9395 20.211 15.1094 20.334 15.2427C20.4151 15.3306 20.5224 15.4067 20.6611 15.4722L20.1885 13.4136ZM23.582 15.02C23.7354 14.7364 23.769 14.4292 23.6992 14.106C23.6231 13.754 23.4248 13.3794 23.1221 13.0063L23.582 15.02ZM15.7881 12.8101V12.9155L15.7129 12.9888L15.0693 13.6226L16.7832 14.9253L16.8018 14.8218L16.9111 14.9175L17.4268 12.5767L16.5146 12.5522L16.4209 12.5503L16.3506 12.4868L15.793 11.98L15.7881 12.8101ZM41.0605 12.7134C40.8105 13.0546 40.6396 13.3637 40.5625 13.646C40.5038 13.8612 40.5011 14.0549 40.5557 14.2339C40.5876 14.3384 40.6424 14.443 40.7227 14.5503L41.0605 12.7134ZM47.8633 11.9126L47.8135 11.9819L47.7285 11.9946L46.7822 12.1401L47.4492 14.3286L47.5195 14.2603L47.5518 14.3979L49.4424 12.7075L48.6719 12.1196L48.6104 12.0728L48.5947 11.9985L48.416 11.1567L47.8633 11.9126ZM33.9609 13.7495C34.1974 13.5238 34.321 13.2384 34.3477 12.9058C34.3834 12.4598 34.2474 11.9223 33.9531 11.3491L33.9609 13.7495ZM30.1387 11.8052C29.9526 12.2846 29.8525 12.6905 29.8613 13.0249C29.8671 13.2444 29.9204 13.4252 30.0215 13.5767C30.06 13.6344 30.1095 13.688 30.167 13.7417L30.1387 11.8052ZM25.9082 10.4624L25.8916 10.5649L25.8066 10.6255L25.0693 11.1519L26.5654 12.7134L26.5996 12.6147L26.6924 12.7261L27.5703 10.4868L26.6699 10.3188L26.5791 10.3022L26.5205 10.229L26.0449 9.63623L25.9082 10.4624ZM37.5186 10.0464L37.4775 10.1323L37.3877 10.1626L36.5059 10.4624L37.5146 12.4448L37.5742 12.3618L37.6299 12.4927L39.1562 10.5513L38.3193 10.1196L38.2441 10.0806L38.2129 10.0024L37.9092 9.25146L37.5186 10.0464ZM8.83203 5.96338C8.36118 5.96338 7.90079 6.09831 7.51074 6.34912C7.12098 6.59987 6.8188 6.95575 6.64062 7.36963C6.46252 7.78351 6.41624 8.23856 6.50684 8.67725C6.59752 9.11603 6.82162 9.52097 7.15234 9.83936C7.48316 10.1577 7.90576 10.376 8.36719 10.4644C8.82885 10.5527 9.30786 10.5067 9.74219 10.3335C10.1761 10.1604 10.5455 9.86791 10.8047 9.49463C11.0638 9.12124 11.2021 8.6829 11.2021 8.23584C11.202 7.6366 10.9551 7.05913 10.5117 6.63232C10.068 6.20527 9.46356 5.96346 8.83203 5.96338ZM55.9932 10.0161C55.9708 10.0201 55.9483 10.0234 55.9258 10.0269L55.9512 10.0356L55.9932 10.0161ZM8.26855 6.55713C9.26097 6.35137 10.0143 6.86546 10.2852 7.58838C10.555 8.30904 10.3373 9.21236 9.47656 9.76514L9.3584 9.58154L9.24121 9.39893C9.93001 8.95667 10.0754 8.26973 9.87793 7.7417C9.68106 7.21604 9.13527 6.82135 8.35645 6.98291L8.26855 6.55713ZM55.4717 5.01221C55.0009 5.0123 54.5404 5.14714 54.1504 5.39795C53.7607 5.64874 53.4584 6.00463 53.2803 6.41846C53.1023 6.83232 53.0558 7.28744 53.1465 7.72607C53.2372 8.16481 53.4613 8.56982 53.792 8.88818C54.1227 9.20644 54.5456 9.42474 55.0068 9.51318C55.4683 9.60154 55.9477 9.55532 56.3818 9.38232C56.8157 9.20929 57.1851 8.9166 57.4443 8.54346C57.7035 8.17011 57.8417 7.73174 57.8418 7.28467C57.8418 6.98777 57.7813 6.69331 57.6631 6.41846C57.5448 6.14349 57.371 5.89259 57.1514 5.68115C56.9317 5.46978 56.67 5.30192 56.3818 5.18701C56.0937 5.07219 55.7841 5.01225 55.4717 5.01221ZM8.54688 7.47119C8.99093 7.37922 9.33388 7.6113 9.45703 7.93994C9.57928 8.26704 9.47812 8.67317 9.09473 8.91943L8.93848 8.67529C9.20703 8.50261 9.25892 8.24012 9.18457 8.0415C9.11072 7.84453 8.90688 7.6929 8.60547 7.75537L8.57617 7.61377L8.54688 7.47119ZM53.8984 6.73877C54.1695 6.01591 54.9226 5.50153 55.915 5.70752L55.8711 5.92041L55.8262 6.1333C55.0476 5.97185 54.5026 6.36655 54.3057 6.89209C54.1081 7.42021 54.2532 8.10702 54.9424 8.54932L54.8252 8.73193L54.707 8.91553C53.8459 8.36277 53.6285 7.45954 53.8984 6.73877ZM55.6377 6.62158L55.6084 6.76416L55.5791 6.90576C55.2775 6.84324 55.0728 6.99486 54.999 7.19189C54.9248 7.39047 54.9774 7.65297 55.2461 7.82568L55.168 7.94775L55.0889 8.06982C54.7056 7.82334 54.605 7.41642 54.7275 7.08936C54.8508 6.7608 55.1937 6.52951 55.6377 6.62158ZM19.5527 2.17139C19.0819 2.17139 18.6215 2.30635 18.2314 2.55713C17.8416 2.80792 17.5395 3.16371 17.3613 3.57764C17.1832 3.9916 17.1369 4.44647 17.2275 4.88525C17.3182 5.32408 17.5423 5.72897 17.873 6.04736C18.2038 6.36562 18.6265 6.58398 19.0879 6.67236C19.5495 6.76067 20.0287 6.71463 20.4629 6.5415C20.8968 6.3684 21.2662 6.07586 21.5254 5.70264C21.7845 5.32925 21.9229 4.89095 21.9229 4.44385C21.9228 3.84457 21.6758 3.26721 21.2324 2.84033C20.7887 2.41327 20.1842 2.17155 19.5527 2.17139ZM44.2305 1.64795C43.7619 1.64791 43.3037 1.78725 42.9141 2.04736C42.5244 2.30753 42.2204 2.67723 42.041 3.10986C41.8618 3.54243 41.8149 4.01882 41.9062 4.47803C41.9977 4.93718 42.2234 5.35983 42.5547 5.69092C42.8859 6.02178 43.3082 6.24799 43.7676 6.33936C44.227 6.43061 44.704 6.38366 45.1367 6.20459C45.5696 6.02536 45.9399 5.72085 46.2002 5.33154C46.4604 4.9423 46.5995 4.48422 46.5996 4.01611C46.5995 3.38841 46.3493 2.78629 45.9053 2.34229C45.4611 1.89835 44.8587 1.64812 44.2305 1.64795ZM19.0879 2.79834C20.0804 2.59247 20.8336 3.1066 21.1045 3.82959C21.3743 4.55029 21.1568 5.45363 20.2959 6.00635L20.1777 5.82275L20.0605 5.64014C20.7495 5.19792 20.8947 4.51098 20.6973 3.98291C20.5004 3.45715 19.9548 3.06245 19.1758 3.22412L19.0879 2.79834ZM42.5898 3.47021C42.8608 2.74723 43.6138 2.23306 44.6064 2.43896L44.5625 2.65186L44.5176 2.86475C43.7388 2.70338 43.1939 3.09792 42.9971 3.62354C42.7995 4.1516 42.9446 4.83846 43.6338 5.28076L43.5166 5.46338L43.3984 5.64697C42.5373 5.09423 42.32 4.19096 42.5898 3.47021ZM30.4736 5.27002L30.5156 5.26904C30.4906 5.25727 30.4651 5.24636 30.4404 5.23389L30.4736 5.27002ZM19.3643 3.71143C19.8081 3.6196 20.1512 3.85078 20.2744 4.1792C20.3969 4.50632 20.2956 4.9133 19.9121 5.15967L19.7559 4.91553C20.0243 4.74293 20.0771 4.48022 20.0029 4.28174C19.9291 4.08481 19.7242 3.93323 19.4229 3.99561L19.3936 3.854L19.3643 3.71143ZM31.7754 0.500488C31.3046 0.500455 30.8451 0.635534 30.4551 0.88623C30.0651 1.13703 29.7622 1.49265 29.584 1.90674C29.4059 2.32066 29.3595 2.77561 29.4502 3.21436C29.5409 3.65308 29.765 4.05811 30.0957 4.37646C30.4265 4.69469 30.8492 4.91309 31.3105 5.00146C31.7721 5.08979 32.2513 5.04372 32.6855 4.87061C33.1195 4.6975 33.4888 4.40501 33.748 4.03174C34.0072 3.65837 34.1455 3.22004 34.1455 2.77295C34.1455 2.17373 33.8984 1.59629 33.4551 1.16943C33.0114 0.742318 32.4069 0.500637 31.7754 0.500488ZM44.3291 3.35303L44.2998 3.49561L44.2695 3.63721C43.9684 3.57504 43.7642 3.7264 43.6904 3.92334C43.6163 4.12196 43.6689 4.3846 43.9375 4.55713L43.8594 4.6792L43.7803 4.80127C43.3972 4.55503 43.2968 4.14875 43.4189 3.82178C43.542 3.49298 43.8849 3.26094 44.3291 3.35303ZM31.3115 1.19678C32.3038 0.991126 33.0573 1.50511 33.3281 2.22803C33.5978 2.94869 33.3795 3.85213 32.5186 4.40479L32.4014 4.22119L32.2842 4.03857C32.9728 3.59643 33.1181 2.90928 32.9209 2.38135C32.7241 1.85569 32.1781 1.46111 31.3994 1.62256L31.3115 1.19678ZM31.5898 2.11084C32.0341 2.01879 32.3769 2.25078 32.5 2.57959C32.6223 2.90677 32.5214 3.31287 32.1377 3.55908L31.9814 3.31494C32.2502 3.14237 32.3027 2.87976 32.2285 2.68115C32.1547 2.48402 31.9501 2.33245 31.6484 2.39502L31.6191 2.25342L31.5898 2.11084Z" fill="#1B1B1B"/>
<path fill-rule="evenodd" clip-rule="evenodd" d="M33.0878 38.7525C27.6836 38.7525 22.3996 40.3769 17.9039 43.4219C13.408 46.467 9.90187 50.7965 7.83092 55.8646C5.75991 60.9327 5.21786 66.5104 6.27382 71.8916C7.32976 77.2727 9.93583 82.2138 13.7604 86.0906C17.5849 89.9674 22.4559 92.6059 27.7567 93.6747C33.0574 94.7435 38.5519 94.1951 43.5459 92.0982C48.5401 90.0013 52.8109 86.4493 55.8166 81.8894C58.8225 77.3293 60.4277 71.9667 60.4277 66.4797C60.4277 59.1217 57.544 52.0677 52.4152 46.8688C47.2869 41.6704 40.3344 38.7525 33.0878 38.7525ZM16.7633 41.7373C21.5942 38.4653 27.2752 36.718 33.0878 36.718C40.8827 36.718 48.3556 39.857 53.8632 45.4399C59.3703 51.0223 62.4618 58.5908 62.4618 66.4797C62.4618 72.363 60.7408 78.1153 57.5149 83.0092C54.2888 87.9033 49.7022 91.7198 44.3333 93.9741C38.9642 96.2285 33.0554 96.8185 27.3547 95.6691C21.6541 94.5197 16.4196 91.6828 12.3125 87.5196C8.20552 83.3565 5.41016 78.054 4.2778 72.2834C3.14544 66.5129 3.72647 60.5314 5.94801 55.0948C8.16959 49.6582 11.9326 45.0092 16.7633 41.7373Z" fill="#1B1B1B"/>
<path fill-rule="evenodd" clip-rule="evenodd" d="M33.0877 35.0212C26.9556 35.0212 20.96 36.8644 15.859 40.3193C10.7579 43.7743 6.78005 48.6866 4.4305 54.4364C2.08091 60.1863 1.46593 66.5141 2.66392 72.6191C3.8619 78.7241 6.81855 84.33 11.1579 88.7286C15.4971 93.1271 21.0238 96.1209 27.0385 97.3336C33.0532 98.5464 39.2876 97.924 44.9541 95.5448C50.6208 93.1655 55.4665 89.1354 58.8767 83.9619C62.287 78.7882 64.1081 72.7043 64.1081 66.4794C64.1081 58.1317 60.8365 50.1287 55.0175 44.2302C49.199 38.3322 41.3103 35.0212 33.0877 35.0212ZM14.6999 38.6072C20.1414 34.9216 26.5405 32.9535 33.0877 32.9535C41.8676 32.9535 50.285 36.4891 56.4891 42.7779C62.6927 49.0663 66.1754 57.5922 66.1754 66.4794C66.1754 73.1071 64.2366 79.5871 60.6027 85.1001C56.9686 90.6131 51.8019 94.9122 45.7544 97.4514C39.7067 99.9906 33.0511 100.655 26.63 99.3606C20.209 98.0659 14.3128 94.8706 9.6863 90.1809C5.05997 85.4914 1.91092 79.5181 0.635273 73.0174C-0.640361 66.5167 0.0142289 59.7785 2.51682 53.6541C5.01946 47.5296 9.25845 42.2927 14.6999 38.6072Z" fill="#1B1B1B"/>
</svg>
